ply
format ascii 1.0
comment VCGLIB generated
element vertex 406
property float x
property float y
property float z
property float nx
property float ny
property float nz
element face 808
property list uchar int vertex_indices
property uchar red
property uchar green
property uchar blue
property uchar alpha
end_header
17.128 1.25429 10.0895 0.6793018 -0.02192577 -0.7335314 
14.70708 -1.983215 12.63221 -0.03723963 -0.9014431 -0.4312931 
14.90907 -2.772623 14.04025 -0.3721336 -0.8571794 -0.3560338 
15.39219 -1.362451 11.46712 0.2717813 -0.7788298 -0.5652955 
16.23798 -2.437499 13.05418 -0.1479996 -0.7463428 -0.6488979 
16.77507 -0.499376 11.02313 -0.04542593 -0.5728943 -0.8183696 
13.49788 -1.046962 10.37111 0.01159617 -0.7921448 -0.6102231 
13.72128 -0.725825 10.01841 0.1258619 -0.7440825 -0.656125 
14.37513 -2.167383 13.15182 -0.1863418 -0.9141131 -0.3601027 
12.97273 -1.043279 10.43671 -0.1165009 -0.8414239 -0.5276679 
11.18949 -0.407743 12.74403 -0.5897334 -0.7172865 0.3710993 
16.78996 0.626289 10.34192 -0.003331259 -0.4436628 -0.8961877 
16.33888 -3.742897 14.4216 -0.4284407 -0.6768014 -0.5986472 
17.50498 -2.869754 12.94748 -0.5104562 -0.5079495 -0.6938456 
12.25214 -1.157054 11.87817 -0.5117584 -0.8590754 0.009640923 
12.97558 -0.439844 9.537537 0.05650754 -0.7942703 -0.6049311 
16.51489 1.087494 10.03511 0.2442041 -0.3439311 -0.9066839 
13.45397 -0.419269 9.607591 0.1496905 -0.7555955 -0.6377054 
13.80922 -1.328067 10.74204 0.05135489 -0.7660685 -0.6407041 
12.61417 -0.802196 10.07773 -0.02527495 -0.8641148 -0.5026599 
11.31882 -0.717023 11.82856 -0.5852705 -0.8045266 -0.1009723 
15.00794 -0.264887 10.21808 0.4483259 -0.5356185 -0.7156233 
16.54616 -1.926708 12.4277 -0.07983041 -0.7792132 -0.6216543 
11.68071 -0.311867 13.65884 -0.7165473 -0.585591 0.3790029 
15.23978 -2.506604 13.4697 -0.1736358 -0.8312913 -0.5280203 
11.64651 -0.598625 13.08373 -0.5983317 -0.7520041 0.2765664 
16.23551 -0.302131 10.80535 0.1495697 -0.5960917 -0.7888623 
16.77742 -3.494069 13.87046 -0.4135834 -0.6106542 -0.6753149 
15.52572 0.629396 9.86213 0.4124418 -0.4977719 -0.7629646 
14.94753 -1.620747 11.87714 0.1356621 -0.9123366 -0.3863128 
16.85739 -2.885181 13.33335 -0.3238105 -0.6078047 -0.7250657 
17.21677 0.605259 10.21045 0.3894622 -0.3022541 -0.8700354 
16.24816 0.565145 10.26531 0.2442807 -0.4947402 -0.8340018 
16.08113 -3.00502 13.7647 -0.3072181 -0.7250299 -0.6163997 
14.59846 -0.710733 10.2945 0.3677158 -0.5954979 -0.71426 
17.33173 -3.323496 13.42329 -0.4777034 -0.5374154 -0.6949706 
16.13254 -1.386628 11.63759 0.06389087 -0.7613365 -0.6452013 
16.14129 2.688152 9.872038 0.3985599 0.1311756 -0.9077131 
16.77372 2.322695 10.1304 0.4851002 0.06797539 -0.8718126 
15.57099 -0.212944 10.53102 0.3687118 -0.5609217 -0.7412277 
14.2726 -1.801815 12.15902 0.03024869 -0.9664497 -0.2550687 
14.85438 0.129017 9.82871 0.448472 -0.531319 -0.7187302 
13.48718 -1.987355 12.81107 -0.237317 -0.9565834 -0.169201 
13.3365 -1.98912 13.75674 -0.4935769 -0.8692763 -0.02721258 
12.70083 -1.373892 11.39805 -0.4073148 -0.8856253 -0.223075 
12.67956 -1.430821 13.8082 -0.6945315 -0.7063447 0.1367598 
13.29916 -1.345809 10.76995 -0.1524389 -0.8400769 -0.5206084 
11.24309 0.620133 13.13337 -0.9476778 0.1723842 0.2686829 
12.16242 2.010556 14.66352 -0.9341499 0.04592455 0.3539139 
17.00567 -1.472648 11.88527 -0.08725466 -0.7023984 -0.7064157 
11.67212 0.529468 14.0002 -0.8734711 0.09762935 0.4769872 
11.65613 1.079229 13.76918 -0.8715037 0.1804212 0.455993 
12.25494 3.143887 14.58466 -0.9621561 0.2689019 0.04412866 
12.13814 2.749388 14.22403 -0.9636166 0.1860367 0.1919205 
14.01114 -1.014648 10.37115 0.1410701 -0.7318536 -0.6667005 
12.03916 1.431359 14.48463 -0.8968305 0.1456424 0.4177121 
12.06169 -0.879259 13.47638 -0.7098854 -0.6867834 0.1561776 
14.2626 -2.538995 14.90261 -0.5949739 -0.803206 0.0294314 
11.71887 -0.926683 11.43664 -0.5194305 -0.8486637 -0.09980928 
16.99371 0.059432 10.67096 -0.0851 -0.5356623 -0.8401332 
12.67118 -1.118663 14.51378 -0.6728064 -0.5846254 0.4533703 
11.62689 -0.774888 12.40143 -0.4942648 -0.8564306 0.1490942 
12.43567 -1.0036 10.56794 -0.266456 -0.8951551 -0.3573493 
12.33673 -1.170588 12.79982 -0.6453808 -0.7625744 0.04431549 
13.18336 -0.780428 9.97224 0.03010505 -0.8041313 -0.593689 
13.96936 -0.3824 9.711853 0.2730808 -0.6766824 -0.68376 
15.4735 -1.980449 12.58577 -0.04064954 -0.8449547 -0.533291 
15.98459 2.303895 9.752424 0.3386482 0.0997386 -0.935612 
16.69767 1.680333 10.00892 0.4169721 0.05454126 -0.9072814 
16.16851 1.443048 9.750509 0.3985724 -0.2508411 -0.8821672 
13.66942 -2.090224 14.59382 -0.6501863 -0.7290056 0.2140298 
17.18967 -0.804677 11.18435 0.04165943 -0.637788 -0.7690845 
15.32273 -3.276921 14.59241 -0.4842899 -0.7519009 -0.4473349 
17.71587 -1.338037 11.62967 0.0578884 -0.5478935 -0.8345429 
17.68947 -1.731407 11.91033 -0.02462644 -0.626647 -0.7789141 
17.49167 -2.10572 12.34907 -0.3401154 -0.6220939 -0.7052098 
17.1593 -2.327027 12.81207 -0.2897609 -0.6607925 -0.6923813 
16.14183 -0.752881 11.21408 0.1638806 -0.6190438 -0.7680677 
15.47463 1.194025 9.492367 0.3382985 -0.187461 -0.9221781 
15.9029 1.88083 9.66966 0.334588 0.09171116 -0.9378912 
16.38797 2.329687 9.926403 0.4164424 0.1049758 -0.9030812 
15.0965 -1.079977 10.88662 0.4217641 -0.6101192 -0.6707233 
14.70687 -1.325222 10.88974 0.2693802 -0.7677488 -0.5813744 
14.11737 -1.623743 11.08503 0.112823 -0.8911121 -0.439534 
13.5566 -1.791123 11.5318 -0.1609563 -0.9529966 -0.2566916 
13.019 -1.733435 12.18333 -0.4231236 -0.8959067 -0.1353428 
12.74023 -1.6366 12.84277 -0.6099728 -0.792058 -0.02402946 
14.1647 -2.534344 14.05863 -0.4552908 -0.8812833 -0.126689 
13.10457 -1.796417 14.36883 -0.6512705 -0.6948279 0.305059 
12.19387 -0.859448 14.213 -0.7323845 -0.583352 0.3511601 
11.25097 -0.14173 13.37337 -0.8068661 -0.3318768 0.4886971 
11.72947 0.085387 14.12677 -0.8521508 -0.1509823 0.5010422 
11.43247 0.595175 13.5815 -0.8701364 0.08922791 0.4846658 
11.85443 0.907843 14.29233 -0.8913253 0.07609931 0.446932 
11.88643 1.836533 14.06917 -0.9326379 0.187403 0.308329 
12.22423 2.645433 14.829 -0.9668399 0.07825036 0.2430998 
12.3185 3.625417 14.87697 -0.9745672 0.1879974 -0.1219668 
12.40417 3.784843 14.65243 -0.8325811 0.2121478 -0.511666 
16.8711 2.73252 10.1972 0.7421687 0.4361957 -0.5088408 
17.4305 -4.08168 13.9233 0.5473654 -0.8347449 0.05993408 
13.2092 -0.094979 9.13868 -0.1998807 -0.2185476 -0.9551359 
12.5342 -0.444124 9.50169 -0.4309318 -0.2154873 -0.8762779 
13.1767 0.009477 9.34869 -0.4314475 0.6029013 -0.6710909 
13.992 0.273002 9.10714 -0.07545534 0.1312409 -0.9884747 
13.8416 0.610841 9.41268 -0.3646831 0.5670972 -0.7385168 
14.1654 0.965699 9.52252 -0.3940328 0.6131572 -0.6846726 
12.712 -0.202495 9.52735 -0.6014978 0.4992907 -0.6236259 
14.2497 1.43817 9.96169 -0.4352468 0.6396314 -0.6335865 
14.3781 0.640756 9.12933 -0.1340073 0.3049746 -0.9428852 
13.3215 0.538035 9.5671 -0.4088065 0.5838431 -0.7014303 
14.6348 1.90526 10.0768 -0.6076435 0.5508807 -0.5721012 
14.7821 1.44305 9.42699 -0.557852 0.3777631 -0.7389833 
12.1071 -0.370937 10.1288 -0.6774884 0.4919986 -0.5467604 
12.2235 -0.622561 9.69301 -0.4822516 -0.4664816 -0.7415041 
12.7389 0.36492 9.86658 -0.5732082 0.5161986 -0.6363736 
15.2242 2.05348 9.53185 -0.2777818 0.4555039 -0.8457857 
12.3242 0.168263 10.1844 -0.6835048 0.3997649 -0.6107448 
13.749 1.31791 10.1927 -0.4059477 0.6688215 -0.6228036 
14.9178 1.68703 9.25827 -0.2534118 0.142634 -0.9567853 
13.9498 1.79008 10.5729 -0.4826961 0.6472909 -0.5899314 
11.5269 -0.597117 10.479 -0.820537 -0.3182675 -0.4747893 
14.3397 2.25197 10.7214 -0.6237004 0.5441069 -0.5612002 
15.3555 2.79718 10.0248 -0.5260559 0.5344757 -0.6615142 
14.0373 2.79323 11.616 -0.586843 0.5920998 -0.5522979 
13.0439 0.902525 10.1357 -0.4421036 0.6497713 -0.6183378 
13.2667 1.80599 11.0443 -0.3989344 0.7202098 -0.567582 
13.8805 2.21032 11.1104 -0.4787658 0.6867134 -0.5469992 
15.4624 2.56534 9.79043 -0.5290189 0.6626565 -0.5301182 
11.6139 -0.227488 10.869 -0.7643412 0.3732438 -0.5258057 
11.9347 0.601523 10.911 -0.7408798 0.4730984 -0.4767339 
12.7154 0.894224 10.3994 -0.5313891 0.6024837 -0.5955157 
15.1992 2.97519 10.3868 -0.6433758 0.459013 -0.6126783 
15.6629 2.70117 9.66121 -0.1100794 0.5767773 -0.8094508 
11.2765 -0.339779 11.2392 -0.9095046 0.1693309 -0.3796425 
12.3211 0.691468 10.5715 -0.6009819 0.5422568 -0.5871783 
14.6592 2.90335 10.8932 -0.7162281 0.3871223 -0.5806493 
10.6906 -0.306611 12.4573 -0.9232267 -0.2718944 0.2715254 
11.1379 -0.051778 12.0776 -0.7123418 0.5518612 -0.4336109 
10.6107 -0.449498 11.6476 -0.5796528 0.3467765 -0.7373932 
11.3252 -0.006362 11.7654 -0.837684 0.4681662 -0.2812578 
12.8149 1.47216 10.9205 -0.5129738 0.6925949 -0.5071194 
14.3879 3.03456 11.4234 -0.7249487 0.4765306 -0.4973611 
11.5061 0.20784 11.4035 -0.838037 0.4194028 -0.3489919 
13.3007 2.09595 11.5088 -0.5266817 0.7152726 -0.4593382 
15.7453 2.7754 9.83135 -0.2526651 0.6976901 -0.6703649 
13.4397 2.54715 11.9879 -0.6164156 0.6219793 -0.4828804 
12.2719 1.03859 10.9801 -0.6160786 0.6484977 -0.4470996 
15.6422 3.68689 10.4717 -0.3688744 0.4636121 -0.8056026 
11.6829 0.611317 11.4711 -0.8348404 0.4704358 -0.2858875 
13.6437 3.06241 12.2869 -0.6571438 0.512206 -0.5529983 
15.0954 3.47302 10.7459 -0.5784176 0.319293 -0.7506564 
15.833 3.45814 10.2865 -0.0008465011 0.533499 -0.8458003 
14.699 3.53837 11.3434 -0.8385794 0.4014266 -0.3682951 
15.9988 2.98739 9.98399 0.09279072 0.6833666 -0.7241547 
16.373 3.0336 10.0285 0.2412214 0.6587221 -0.7126693 
10.9103 0.213244 12.8351 -0.954159 0.2618194 0.1450214 
11.3318 0.45151 12.344 -0.8001209 0.4871958 -0.349924 
12.0861 1.14936 11.4961 -0.6809309 0.6587033 -0.3200674 
12.8601 2.02546 12.0142 -0.6253826 0.6940044 -0.3567275 
13.0986 2.67198 12.6319 -0.7206299 0.5610197 -0.4073689 
14.1552 3.48611 12.1339 -0.6465476 0.4856581 -0.5883133 
11.2307 0.529998 12.6382 -0.7538825 0.5107105 -0.4133232 
11.8478 0.968866 11.7001 -0.7296622 0.6160012 -0.2968765 
15.154 4.17588 10.9317 -0.62449 0.3558831 -0.6952407 
11.543 0.694771 12.095 -0.8419381 0.4685271 -0.267624 
13.8418 3.77315 12.6219 -0.6673479 0.3821734 -0.6392108 
14.8896 4.45681 12.0283 -0.7385179 0.5120947 -0.4385778 
12.6671 2.30479 12.8712 -0.6591474 0.6580614 -0.3639781 
14.9648 4.10827 11.3979 -0.8536194 0.4400452 -0.2787369 
16.1237 3.41253 10.3065 0.2980967 0.4916064 -0.8182063 
13.5281 3.7286 13.058 -0.8003186 0.3938957 -0.4520357 
15.2157 4.45791 11.0563 -0.695972 0.535689 -0.4781844 
11.3865 1.05198 12.9835 -0.7833286 0.4906152 -0.3816977 
11.7459 1.37623 12.7628 -0.7327481 0.5797079 -0.3563974 
13.1857 3.41487 13.4926 -0.7831935 0.4580297 -0.420496 
16.086 4.37813 10.787 0.1503641 0.551456 -0.8205407 
12.0172 1.52942 12.5386 -0.6394082 0.6818553 -0.3552893 
14.7166 4.58617 12.3501 -0.5422457 0.4805165 -0.6892558 
15.5889 4.53609 10.9037 -0.2638231 0.5030587 -0.8230002 
16.3808 3.05024 10.1802 0.4467815 0.8142322 -0.3706916 
13.7613 4.44536 13.0981 -0.8391184 0.3197174 -0.4400695 
13.9518 4.51578 12.8824 -0.69144 0.2387781 -0.6818327 
12.6535 2.63002 13.4975 -0.6485583 0.5897757 -0.4811827 
14.3796 4.67473 12.6355 -0.5049548 0.3233953 -0.8002726 
15.2132 4.80886 11.7708 -0.7837461 0.5524653 -0.283768 
16.5966 3.17321 10.416 0.5650944 0.4162018 -0.7123514 
16.3572 4.19873 10.8008 0.4403018 0.4803954 -0.7585213 
13.1488 4.03536 14.106 -0.7730911 0.4661233 -0.4301851 
15.252 5.10586 12.3452 -0.3701769 0.8374256 -0.4021038 
15.4573 4.87271 11.335 -0.5184923 0.7734795 -0.3645481 
15.7236 4.88762 11.1387 -0.1676454 0.7843319 -0.5972592 
11.6815 1.73467 13.4337 -0.8247312 0.5464338 -0.1457001 
12.1046 2.03328 13.2945 -0.6138147 0.6673679 -0.4217247 
13.8343 5.08868 13.2114 -0.8272082 0.3710312 -0.4219746 
12.9075 3.3824 13.8688 -0.6664046 0.49244 -0.5598284 
14.0652 5.10386 12.9106 -0.5527523 0.3435299 -0.7592446 
14.6913 5.00298 12.6279 -0.3034661 0.5072976 -0.8065714 
15.1095 5.19806 12.6159 -0.492335 0.6082654 -0.622591 
16.9172 2.57269 10.3295 0.896356 0.3909674 -0.2090228 
11.261 1.19754 13.1919 -0.9509928 0.29835 0.08123987 
11.8352 2.03815 13.6169 -0.7165632 0.5604899 -0.4151967 
13.4435 4.44287 13.9128 -0.8148701 0.4729774 -0.3350807 
12.4645 3.11362 14.0704 -0.2611896 0.5036956 -0.8234505 
13.498 4.7033 14.1853 -0.8642346 0.4334753 -0.2553384 
15.5224 5.01837 11.7157 -0.1405946 0.9614312 -0.2363964 
15.9769 4.9081 11.2356 0.2816267 0.8943236 -0.347666 
16.3791 4.64981 11.1955 0.5687997 0.6987244 -0.4338791 
16.6692 4.208 11.0382 0.7374872 0.4518882 -0.5019062 
17.0627 2.85797 10.7452 0.7853886 0.3165075 -0.5319659 
11.9681 2.44192 13.7951 -0.8260101 0.4235987 -0.3718487 
12.6377 3.66918 14.4086 -0.5912532 0.5046856 -0.6290566 
14.2726 5.49922 13.0591 -0.5096617 0.6444584 -0.5700161 
15.5153 5.12635 12.2975 0.2033591 0.969783 -0.1347813 
16.83 3.40521 10.7381 0.7007709 0.3368975 -0.6288245 
13.8178 5.31197 13.6919 -0.902078 0.4066052 -0.1446637 
13.9906 5.44497 13.4396 -0.682771 0.6801471 -0.2668777 
15.1184 5.44304 12.872 -0.1471264 0.7220672 -0.6759977 
17.0621 1.90588 10.2676 0.876704 0.1786948 -0.4466076 
12.781 4.08998 14.7894 -0.4547794 0.7830323 -0.4243068 
12.9508 4.36017 14.9356 -0.7667577 0.5454315 -0.3385072 
14.5546 5.65338 13.0673 -0.2240901 0.7236887 -0.6527314 
15.5397 5.20138 12.6367 0.4111027 0.8713533 -0.2678395 
13.8194 5.33157 14.3265 -0.9416436 0.2852145 -0.1787738 
15.26 5.52598 13.0054 0.3408088 0.7982839 -0.4965806 
16.2524 4.77685 11.4733 0.5648088 0.8252007 0.005906732 
17.2293 3.12304 11.1752 0.9086823 0.2831226 -0.3068191 
17.1535 2.24892 10.6026 0.8808392 0.1826525 -0.4367613 
12.2221 3.16081 14.048 -0.7091522 0.5486436 -0.4428244 
14.5522 5.98313 13.7838 -0.3941341 0.8896117 -0.2307582 
16.7606 4.32034 11.5952 0.7746471 0.6323223 0.00951199 
12.5314 4.10252 14.7978 -0.4836675 0.7955851 -0.3648426 
13.2875 4.93465 15.077 -0.7510102 0.6542559 -0.08906749 
14.8795 5.91761 13.3668 0.01135908 0.890879 -0.4540988 
17.0478 3.76492 11.5115 0.9166883 0.3975946 -0.04001405 
17.5285 1.98018 11.4646 0.9628794 0.1724261 -0.2076836 
12.7 4.12659 15.1308 -0.5686113 0.819221 0.07455429 
15.9173 4.92562 12.3839 0.5583033 0.829635 0.001813018 
17.393 1.79057 11.0089 0.9340287 0.1409069 -0.3282312 
17.3421 1.23019 10.6127 0.8875649 0.09580479 -0.4506107 
17.1053 1.50001 10.3079 0.9672327 0.1225143 -0.222376 
13.7258 5.33015 14.863 -0.8001429 0.5993285 -0.02401241 
15.9445 5.11323 13.1427 0.6176178 0.7224815 -0.3107551 
15.4275 5.59668 13.3023 0.5137331 0.7324606 -0.4467435 
16.4292 4.57177 11.913 0.6330276 0.7699683 0.08015506 
14.3285 5.8752 14.0516 -0.6076474 0.7927901 -0.04741862 
17.3574 2.81946 11.7483 0.954905 0.2968689 -0.005042831 
14.0444 5.65271 14.4817 -0.4789137 0.8595154 0.1785359 
16.3295 4.59177 12.6466 0.7018113 0.7120302 -0.0217673 
16.8274 4.12578 11.9532 0.8722607 0.4637599 0.1552029 
15.2059 6.04583 13.8108 0.3598509 0.9119594 -0.1970723 
15.5065 5.79403 13.73 0.6972252 0.7158451 -0.03798515 
17.6067 0.769193 11.2993 0.9595207 0.1126738 -0.2581175 
17.2258 0.553802 10.464 0.9427975 0.1260109 -0.3086328 
13.3137 4.86377 15.5008 -0.6159384 0.6189198 0.4873994 
17.5116 2.34493 12.0196 0.961736 0.2720057 0.03281394 
12.4921 3.80228 15.3041 -0.6245254 0.4968278 0.6026028 
17.607 1.80524 11.8995 0.9795246 0.1946199 -0.05152494 
17.5535 0.304362 10.8901 0.9226975 0.03979423 -0.3834656 
13.7967 5.30464 15.1876 -0.3143546 0.811071 0.4933002 
14.7853 6.03028 13.9777 -0.149538 0.978151 0.1444266 
17.0298 3.35884 12.6445 0.9123319 0.3870964 0.1334424 
17.7632 1.16074 12.2326 0.9868256 0.1540219 -0.0495235 
12.459 4.0912 15.1115 -0.6905814 0.6515977 0.3138755 
12.817 4.04969 15.5633 -0.6656544 0.2588271 0.6999377 
16.1007 4.99133 13.3676 0.8312938 0.5555456 0.01788162 
16.5988 4.1723 12.8063 0.8508511 0.5105836 0.1239228 
17.5838 -0.288963 10.9684 0.9421937 0.3118276 -0.1226154 
14.4229 5.64382 14.8143 -0.05265893 0.8400136 0.5400039 
15.1237 5.93157 14.3011 0.3257378 0.8509928 0.4119542 
17.5664 2.01026 12.3267 0.9757013 0.2147453 0.04349041 
17.737 0.300316 11.6153 0.9815947 0.06768031 -0.1785813 
15.6764 5.54632 13.8247 0.8172498 0.5406007 0.1996339 
17.4131 0.012427 10.568 0.8063136 0.079853 -0.5860732 
17.2717 2.55362 13.3351 0.9236516 0.327905 0.1983585 
17.5427 1.8737 12.9331 0.9604664 0.2414088 0.1386582 
12.2744 3.62424 15.4714 -0.7698787 0.3557536 0.5298361 
12.4408 3.18701 15.3815 -0.7337179 -0.01109296 0.6793637 
13.1981 4.2083 15.8262 -0.450359 0.2837977 0.8465433 
13.6463 4.65205 15.7401 -0.01945992 0.4793199 0.8774245 
15.3701 5.74543 14.2695 0.6871242 0.5572064 0.4662419 
17.833 0.449507 12.7056 0.999342 0.02793212 0.02314092 
17.7993 -0.692136 11.7631 0.973058 0.03489598 -0.2279046 
14.1928 5.15796 15.2673 0.2260329 0.552509 0.8022736 
16.2428 4.60947 13.7609 0.8625564 0.4717729 0.1828303 
17.7734 0.73329 13.086 0.9810877 0.1374517 0.1362863 
16.0461 4.87583 13.9414 0.822349 0.4619733 0.3321489 
16.8834 3.52302 13.26 0.8936928 0.4302569 0.1272486 
17.8157 -0.106801 12.5354 0.9999515 0.0003503763 0.009846357 
14.0409 4.287 15.8286 0.3437454 0.3494425 0.8716244 
14.9569 5.71096 14.6451 0.3536937 0.6047529 0.7135648 
16.7303 3.63528 13.8295 0.8586551 0.389778 0.3328432 
12.8166 3.42147 15.6407 -0.5483944 0.02938693 0.8357033 
13.3784 3.97454 15.9392 -0.2717354 0.143209 0.951657 
16.9457 3.08975 13.8231 0.893903 0.3128785 0.3210055 
17.3827 1.57248 14.055 0.8858396 0.2319589 0.4018498 
17.6146 0.992195 13.6588 0.9516498 0.1377936 0.2745462 
13.8886 4.1195 15.9233 0.09753612 0.2121011 0.9723681 
17.7127 0.182163 13.6039 0.9655275 0.0239706 0.2591951 
17.849 -1.25705 11.8742 0.9687493 0.2124726 -0.1279853 
17.743 -0.753101 11.349 0.8783495 -0.1008053 -0.4672691 
15.1145 5.45817 14.6943 0.5163923 0.4020321 0.7561145 
15.7989 4.91112 14.3601 0.7225192 0.3934961 0.5684424 
17.7958 -0.485666 13.1137 0.9916319 -0.002336496 0.1290765 
17.8555 -1.36881 12.7978 0.9939946 0.0730139 0.08150952 
12.5218 2.1894 15.2971 -0.4968354 -0.1441301 0.8557927 
13.2523 2.63577 15.9134 -0.3921299 -0.02844974 0.9194698 
13.011 2.71558 15.797 -0.6182904 -0.05178696 0.7842418 
17.941 -1.84179 11.995 0.7437484 -0.2520147 -0.6191339 
17.7113 -0.323114 10.7093 0.3748868 -0.4129501 -0.8300194 
12.3814 2.29909 15.2776 -0.7455055 -0.0862643 0.6608934 
16.9114 2.83675 14.1012 0.847661 0.3073005 0.432478 
17.802 -0.915102 11.4042 0.8139152 -0.05411036 -0.5784584 
13.5317 3.30263 16.0164 -0.1396225 0.05981183 0.9883968 
16.369 3.37974 14.6005 0.7248002 0.324395 0.6078096 
17.9012 -1.27653 11.6631 0.7515568 -0.2877286 -0.5936115 
14.868 4.27526 15.3518 0.482754 0.327458 0.8122314 
15.6085 4.51348 14.7466 0.5905318 0.3384514 0.7326138 
17.9688 -2.23548 12.782 0.9889691 0.09501029 0.1136367 
12.845 1.44064 15.4267 -0.6918186 -0.1802318 0.6992164 
17.6813 -1.11182 13.5726 0.9675089 0.03288514 0.2506896 
17.9957 -2.30966 12.1924 0.5662768 -0.3467357 -0.7477332 
14.0819 2.75336 16.0745 0.04515006 0.1022735 0.9937312 
14.6967 2.48744 16.0166 0.2574412 0.1933349 0.9467553 
17.4311 0.862205 14.206 0.9002636 0.1001792 0.4236621 
12.9895 1.98141 15.6921 -0.5529273 -0.1318316 0.8227344 
13.8044 2.64372 16.0766 -0.1678202 0.001117771 0.985817 
14.9154 2.7786 15.8714 0.3879948 0.2690379 0.8815207 
16.8268 2.30995 14.5253 0.7738802 0.2785918 0.5687672 
17.4317 0.268957 14.2724 0.9069457 0.02980814 0.4201917 
13.9728 1.33508 16.0497 -0.3011725 -0.0910307 0.9492147 
15.1118 3.3113 15.594 0.4675922 0.3022198 0.8306749 
17.4904 -1.09458 14.1153 0.9140494 0.003695483 0.4055861 
12.3766 1.5497 15.0924 -0.5965381 -0.1295231 0.7920645 
12.5246 1.33903 15.1039 -0.5499355 -0.2279541 0.8034973 
13.487 1.19307 15.8367 -0.4378534 -0.162541 0.8842312 
16.0549 3.07892 15.0147 0.6115288 0.3093911 0.7282237 
17.1509 0.552806 14.7453 0.8354202 0.0827837 0.5433415 
15.4103 3.42616 15.3596 0.5391579 0.3251568 0.7769054 
16.832 1.08509 15.0765 0.7558157 0.2115796 0.6196586 
17.3028 -0.519962 14.5186 0.8628275 -0.01128213 0.5053726 
13.3121 0.507876 15.559 -0.57573 -0.2240136 0.7863542 
14.248 1.76948 16.1355 -0.0990677 0.003002354 0.9950762 
15.7904 2.61045 15.4257 0.5726002 0.3026007 0.7619461 
12.8486 0.868206 15.2299 -0.6660925 -0.216845 0.713652 
16.5203 1.91888 15.0606 0.6788002 0.283567 0.6773625 
17.2032 -1.7005 14.6287 0.8587372 0.01992149 0.512029 
17.5303 -2.23289 14.0938 0.8998185 0.03172249 0.4351097 
17.9072 -2.67566 13.2085 0.9513637 0.009153726 0.3079338 
18.0239 -2.95874 12.6071 0.5491872 -0.5351632 -0.6418675 
16.9224 -0.268149 15.1241 0.7859889 0.00805454 0.6181883 
12.284 0.380355 14.669 -0.03201153 -0.1458813 0.9887841 
13.0138 0.153058 15.1866 -0.6477435 -0.2124056 0.7316504 
15.0648 1.22127 16.1761 0.1288403 0.05766471 0.9899874 
15.5447 1.32605 16.0225 0.3605536 0.1954983 0.9120206 
16.7023 0.674152 15.313 0.7254865 0.09314813 0.6819038 
12.1762 1.15125 14.9676 -0.5903955 -0.06751149 0.8042856 
12.4977 0.489154 14.8135 -0.5641068 -0.2092961 0.7987356 
14.765 0.71718 16.1691 -0.116243 -0.07743864 0.9901974 
12.5789 -0.346906 14.6995 -0.3884299 0.06229182 0.9193704 
14.2831 0.255572 16.0021 -0.3202986 -0.1525829 0.9349477 
15.7536 1.81365 15.748 0.5080407 0.28135 0.8140866 
16.2124 1.28353 15.6175 0.6278238 0.2345237 0.7421832 
16.8504 -1.88142 15.1446 0.7390115 -0.02569975 0.6732024 
17.3879 -2.48515 14.4205 0.8644975 -0.0156481 0.5023935 
17.9165 -3.48977 13.0344 0.4819301 -0.7376028 -0.472954 
12.1261 0.37474 14.7175 -0.5044658 -0.04390688 0.8623146 
13.9884 -0.065232 15.8051 -0.4507698 -0.2234855 0.8642111 
16.2853 0.37855 15.7435 0.6149425 0.05452557 0.7866846 
17.7433 -3.38489 13.5345 0.9074203 -0.108019 0.4061038 
16.5721 -0.503664 15.4839 0.6813452 -0.0130848 0.7318453 
13.4404 -0.584973 15.2985 -0.5659376 -0.2418288 0.7881837 
14.7017 -0.452983 16.014 -0.2563591 -0.1891531 0.947893 
16.8466 -2.45725 15.1333 0.6952125 -0.1062406 0.7109097 
15.7675 0.171363 16.0205 0.2901218 -0.02330692 0.9567059 
15.9079 0.913869 15.9449 0.4845104 0.09513289 0.8695973 
12.152 -0.331822 14.8277 -0.286831 0.02024502 0.9577673 
12.404 -0.40797 14.7014 0.2077475 0.426713 0.8802028 
13.4167 -1.03259 15.1362 -0.3423629 0.02401409 0.9392609 
15.2318 -0.062264 16.0973 0.04692725 -0.09720276 0.9941577 
17.2818 -3.08485 14.4837 0.7961361 -0.1629585 0.5827622 
12.7151 -0.700123 14.9595 -0.3337897 0.08605397 0.9387115 
13.7143 -1.09246 15.3368 -0.5172942 -0.2611297 0.8149958 
14.1273 -0.900249 15.6473 -0.4510795 -0.2502171 0.8566905 
16.3063 -0.691405 15.6883 0.5548241 -0.05191561 0.8303463 
14.6881 -1.33175 15.7712 -0.3297651 -0.2645806 0.9062296 
13.3618 -1.26389 15.1673 -0.4773735 -0.2545747 0.841015 
16.3443 -2.34969 15.5015 0.469136 -0.1608785 0.8683488 
15.1036 -1.1731 15.9414 -0.1466902 -0.2163223 0.9652392 
15.6197 -1.53674 15.8926 0.111862 -0.2083499 0.9716364 
16.0756 -1.15296 15.7944 0.4370215 -0.07573303 0.8962571 
14.6185 -2.19952 15.4718 -0.3974209 -0.2962934 0.8684853 
16.7081 -3.06692 15.0817 0.5349801 -0.3141119 0.7843024 
14.0568 -1.91896 15.2745 -0.1870822 -0.04821366 0.9811604 
16.9194 -4.15369 14.4234 0.2002349 -0.9039302 0.3779103 
15.1027 -1.95365 15.7126 -0.2038084 -0.2973066 0.9327759 
16.2127 -2.82501 15.391 0.2027753 -0.3450378 0.916423 
16.66 -3.85886 14.7022 0.423719 -0.4037242 0.8108447 
14.9533 -2.96159 15.3195 -0.1677925 -0.287955 0.9428296 
15.488 -2.18495 15.6842 -0.02060938 -0.3286059 0.9442422 
16.3001 -3.83368 14.9075 0.4053281 -0.2405324 0.88196 
15.6472 -3.37511 15.2259 0.1117874 -0.2614814 0.9587132 
14.8841 -3.14273 15.2952 -0.4131152 -0.5802704 0.7018704 
15.779 -2.82626 15.4437 0.01729423 -0.3575506 0.9337336 
13.739 -1.93991 15.354 -0.5639102 -0.4097904 0.7169918 
15.7348 -3.75528 15.1598 0.2020974 -0.1075878 0.973438 
16.0161 -4.06998 15.0767 -0.2240406 -0.8635018 0.4518524 
3 31 252 272 0 255 255 255 
3 31 0 252 0 255 255 255 
3 272 59 31 0 255 255 255 
3 40 85 84 0 255 255 255 
3 45 86 43 0 255 255 255 
3 13 76 75 0 255 255 255 
3 70 43 87 0 255 255 255 
3 54 6 7 0 255 255 255 
3 24 1 66 0 255 255 255 
3 49 74 75 0 255 255 255 
3 401 72 405 0 255 255 255 
3 5 26 59 0 255 255 255 
3 299 71 308 0 255 255 255 
3 7 6 64 0 255 255 255 
3 46 84 44 0 255 255 255 
3 81 39 77 0 255 255 255 
3 70 88 43 0 255 255 255 
3 4 30 33 0 255 255 255 
3 6 54 18 0 255 255 255 
3 133 120 58 0 255 255 255 
3 136 138 20 0 255 255 255 
3 138 137 20 0 255 255 255 
3 41 78 28 0 255 255 255 
3 12 27 393 0 255 255 255 
3 29 1 40 0 255 255 255 
3 73 314 74 0 255 255 255 
3 22 66 36 0 255 255 255 
3 89 23 56 0 255 255 255 
3 43 86 42 0 255 255 255 
3 120 113 62 0 255 255 255 
3 65 17 100 0 255 255 255 
3 37 67 132 0 255 255 255 
3 77 39 26 0 255 255 255 
3 101 19 113 0 255 255 255 
3 103 105 108 0 255 255 255 
3 40 1 8 0 255 255 255 
3 81 34 21 0 255 255 255 
3 9 62 19 0 255 255 255 
3 65 54 7 0 255 255 255 
3 61 63 25 0 255 255 255 
3 120 133 112 0 255 255 255 
3 36 77 71 0 255 255 255 
3 78 41 108 0 255 255 255 
3 83 29 40 0 255 255 255 
3 73 71 299 0 255 255 255 
3 60 380 89 0 255 255 255 
3 25 90 10 0 255 255 255 
3 87 2 57 0 255 255 255 
3 399 393 396 0 255 255 255 
3 93 51 50 0 255 255 255 
3 56 63 45 0 255 255 255 
3 79 80 68 0 255 255 255 
3 69 32 28 0 255 255 255 
3 72 12 405 0 255 255 255 
3 13 75 348 0 255 255 255 
3 34 65 41 0 255 255 255 
3 83 46 18 0 255 255 255 
3 75 76 22 0 255 255 255 
3 49 36 71 0 255 255 255 
3 320 348 75 0 255 255 255 
3 393 27 99 0 255 255 255 
3 16 32 69 0 255 255 255 
3 71 77 5 0 255 255 255 
3 16 68 0 0 255 255 255 
3 65 34 54 0 255 255 255 
3 100 106 102 0 255 255 255 
3 67 37 80 0 255 255 255 
3 380 60 385 0 255 255 255 
3 43 8 87 0 255 255 255 
3 33 2 24 0 255 255 255 
3 78 115 79 0 255 255 255 
3 68 38 217 0 255 255 255 
3 0 11 16 0 255 255 255 
3 98 217 38 0 255 255 255 
3 41 65 103 0 255 255 255 
3 36 49 22 0 255 255 255 
3 66 4 24 0 255 255 255 
3 44 14 58 0 255 255 255 
3 39 41 28 0 255 255 255 
3 19 15 64 0 255 255 255 
3 72 401 2 0 255 255 255 
3 60 88 385 0 255 255 255 
3 57 2 401 0 255 255 255 
3 1 24 8 0 255 255 255 
3 12 33 27 0 255 255 255 
3 199 92 51 0 255 255 255 
3 85 40 42 0 255 255 255 
3 191 51 94 0 255 255 255 
3 17 7 64 0 255 255 255 
3 118 78 111 0 255 255 255 
3 10 61 25 0 255 255 255 
3 47 199 172 0 255 255 255 
3 93 55 51 0 255 255 255 
3 55 94 51 0 255 255 255 
3 29 3 36 0 255 255 255 
3 59 272 308 0 255 255 255 
3 155 90 47 0 255 255 255 
3 276 275 96 0 255 255 255 
3 51 92 50 0 255 255 255 
3 56 25 63 0 255 255 255 
3 210 96 97 0 255 255 255 
3 94 48 53 0 255 255 255 
3 210 227 52 0 255 255 255 
3 95 52 53 0 255 255 255 
3 83 82 29 0 255 255 255 
3 44 62 46 0 255 255 255 
3 136 20 10 0 255 255 255 
3 191 199 51 0 255 255 255 
3 23 91 90 0 255 255 255 
3 91 23 89 0 255 255 255 
3 29 82 3 0 255 255 255 
3 89 375 91 0 255 255 255 
3 63 14 85 0 255 255 255 
3 314 73 311 0 255 255 255 
3 28 78 69 0 255 255 255 
3 50 91 93 0 255 255 255 
3 401 403 57 0 255 255 255 
3 42 86 85 0 255 255 255 
3 308 71 5 0 255 255 255 
3 62 113 19 0 255 255 255 
3 29 66 1 0 255 255 255 
3 62 44 58 0 255 255 255 
3 88 60 45 0 255 255 255 
3 133 20 137 0 255 255 255 
3 9 46 62 0 255 255 255 
3 78 108 111 0 255 255 255 
3 17 65 7 0 255 255 255 
3 76 30 4 0 255 255 255 
3 4 66 22 0 255 255 255 
3 118 115 78 0 255 255 255 
3 179 198 98 0 255 255 255 
3 67 79 115 0 255 255 255 
3 154 80 37 0 255 255 255 
3 79 68 69 0 255 255 255 
3 67 115 132 0 255 255 255 
3 62 58 120 0 255 255 255 
3 63 85 86 0 255 255 255 
3 32 59 26 0 255 255 255 
3 75 307 320 0 255 255 255 
3 40 84 83 0 255 255 255 
3 27 33 30 0 255 255 255 
3 307 74 314 0 255 255 255 
3 30 13 35 0 255 255 255 
3 18 46 6 0 255 255 255 
3 307 75 74 0 255 255 255 
3 13 30 76 0 255 255 255 
3 49 75 22 0 255 255 255 
3 32 16 11 0 255 255 255 
3 82 81 3 0 255 255 255 
3 70 403 385 0 255 255 255 
3 80 154 98 0 255 255 255 
3 79 67 80 0 255 255 255 
3 308 5 59 0 255 255 255 
3 11 59 32 0 255 255 255 
3 266 308 272 0 255 255 255 
3 80 38 68 0 255 255 255 
3 39 21 41 0 255 255 255 
3 15 19 101 0 255 255 255 
3 46 83 84 0 255 255 255 
3 87 57 70 0 255 255 255 
3 81 21 39 0 255 255 255 
3 82 83 18 0 255 255 255 
3 9 19 64 0 255 255 255 
3 81 82 34 0 255 255 255 
3 92 91 50 0 255 255 255 
3 375 89 380 0 255 255 255 
3 92 199 47 0 255 255 255 
3 24 2 8 0 255 255 255 
3 14 61 58 0 255 255 255 
3 8 42 40 0 255 255 255 
3 87 8 2 0 255 255 255 
3 95 309 276 0 255 255 255 
3 84 85 44 0 255 255 255 
3 77 3 81 0 255 255 255 
3 57 403 70 0 255 255 255 
3 90 155 10 0 255 255 255 
3 25 23 90 0 255 255 255 
3 85 14 44 0 255 255 255 
3 89 56 45 0 255 255 255 
3 96 52 276 0 255 255 255 
3 94 200 191 0 255 255 255 
3 53 209 94 0 255 255 255 
3 48 95 53 0 255 255 255 
3 355 55 93 0 255 255 255 
3 96 230 97 0 255 255 255 
3 209 53 227 0 255 255 255 
3 96 255 262 0 255 255 255 
3 309 95 48 0 255 255 255 
3 262 230 96 0 255 255 255 
3 12 72 33 0 255 255 255 
3 80 98 38 0 255 255 255 
3 348 364 13 0 255 255 255 
3 385 403 392 0 255 255 255 
3 76 4 22 0 255 255 255 
3 82 18 54 0 255 255 255 
3 35 99 27 0 255 255 255 
3 36 66 29 0 255 255 255 
3 77 26 5 0 255 255 255 
3 32 39 28 0 255 255 255 
3 0 68 217 0 255 255 255 
3 385 88 70 0 255 255 255 
3 20 61 10 0 255 255 255 
3 41 103 108 0 255 255 255 
3 77 36 3 0 255 255 255 
3 376 375 380 0 255 255 255 
3 12 393 405 0 255 255 255 
3 27 30 35 0 255 255 255 
3 9 6 46 0 255 255 255 
3 91 365 93 0 255 255 255 
3 90 91 92 0 255 255 255 
3 136 10 155 0 255 255 255 
3 365 355 93 0 255 255 255 
3 47 172 155 0 255 255 255 
3 332 309 48 0 255 255 255 
3 45 60 89 0 255 255 255 
3 95 276 52 0 255 255 255 
3 255 96 275 0 255 255 255 
3 49 73 74 0 255 255 255 
3 375 365 91 0 255 255 255 
3 15 101 100 0 255 255 255 
3 61 20 58 0 255 255 255 
3 53 52 227 0 255 255 255 
3 210 52 96 0 255 255 255 
3 92 47 90 0 255 255 255 
3 0 31 11 0 255 255 255 
3 55 355 332 0 255 255 255 
3 14 63 61 0 255 255 255 
3 33 24 4 0 255 255 255 
3 262 235 230 0 255 255 255 
3 25 56 23 0 255 255 255 
3 55 48 94 0 255 255 255 
3 69 78 79 0 255 255 255 
3 299 311 73 0 255 255 255 
3 332 48 55 0 255 255 255 
3 65 100 103 0 255 255 255 
3 73 49 71 0 255 255 255 
3 200 94 209 0 255 255 255 
3 35 364 99 0 255 255 255 
3 31 59 11 0 255 255 255 
3 37 132 154 0 255 255 255 
3 17 64 15 0 255 255 255 
3 68 16 69 0 255 255 255 
3 210 97 230 0 255 255 255 
3 39 32 26 0 255 255 255 
3 58 20 133 0 255 255 255 
3 63 86 45 0 255 255 255 
3 41 21 34 0 255 255 255 
3 64 6 9 0 255 255 255 
3 34 82 54 0 255 255 255 
3 17 15 100 0 255 255 255 
3 43 42 8 0 255 255 255 
3 88 45 43 0 255 255 255 
3 13 364 35 0 255 255 255 
3 33 72 2 0 255 255 255 
3 404 401 405 0 255 255 255 
3 404 400 401 0 255 255 255 
3 400 397 401 0 255 255 255 
3 399 404 405 0 255 255 255 
3 405 393 399 0 255 255 255 
3 399 400 404 0 255 255 255 
3 402 397 400 0 255 255 255 
3 397 402 398 0 255 255 255 
3 397 398 394 0 255 255 255 
3 401 392 403 0 255 255 255 
3 400 395 402 0 255 255 255 
3 402 395 398 0 255 255 255 
3 397 392 401 0 255 255 255 
3 399 396 391 0 255 255 255 
3 395 400 399 0 255 255 255 
3 388 398 395 0 255 255 255 
3 391 395 399 0 255 255 255 
3 394 390 397 0 255 255 255 
3 388 394 398 0 255 255 255 
3 395 386 388 0 255 255 255 
3 388 387 394 0 255 255 255 
3 394 384 390 0 255 255 255 
3 390 392 397 0 255 255 255 
3 393 391 396 0 255 255 255 
3 391 386 395 0 255 255 255 
3 386 389 388 0 255 255 255 
3 387 384 394 0 255 255 255 
3 99 391 393 0 255 255 255 
3 389 373 388 0 255 255 255 
3 390 381 392 0 255 255 255 
3 377 385 392 0 255 255 255 
3 391 99 379 0 255 255 255 
3 372 386 391 0 255 255 255 
3 386 383 389 0 255 255 255 
3 382 381 390 0 255 255 255 
3 381 377 392 0 255 255 255 
3 391 379 372 0 255 255 255 
3 389 374 373 0 255 255 255 
3 378 371 387 0 255 255 255 
3 384 382 390 0 255 255 255 
3 383 374 389 0 255 255 255 
3 373 378 388 0 255 255 255 
3 387 388 378 0 255 255 255 
3 387 371 384 0 255 255 255 
3 372 362 386 0 255 255 255 
3 362 383 386 0 255 255 255 
3 367 374 383 0 255 255 255 
3 377 380 385 0 255 255 255 
3 368 379 99 0 255 255 255 
3 373 352 378 0 255 255 255 
3 378 357 371 0 255 255 255 
3 371 382 384 0 255 255 255 
3 382 370 381 0 255 255 255 
3 380 377 358 0 255 255 255 
3 362 369 383 0 255 255 255 
3 383 369 367 0 255 255 255 
3 371 366 382 0 255 255 255 
3 382 366 370 0 255 255 255 
3 381 370 377 0 255 255 255 
3 375 376 350 0 255 255 255 
3 364 368 99 0 255 255 255 
3 374 353 373 0 255 255 255 
3 358 376 380 0 255 255 255 
3 379 368 363 0 255 255 255 
3 372 379 363 0 255 255 255 
3 378 352 357 0 255 255 255 
3 358 377 370 0 255 255 255 
3 350 376 358 0 255 255 255 
3 350 365 375 0 255 255 255 
3 349 369 362 0 255 255 255 
3 374 367 361 0 255 255 255 
3 374 360 353 0 255 255 255 
3 351 358 370 0 255 255 255 
3 368 347 363 0 255 255 255 
3 374 361 360 0 255 255 255 
3 353 352 373 0 255 255 255 
3 366 371 359 0 255 255 255 
3 370 340 351 0 255 255 255 
3 363 362 372 0 255 255 255 
3 369 354 367 0 255 255 255 
3 371 357 359 0 255 255 255 
3 366 340 370 0 255 255 255 
3 362 339 349 0 255 255 255 
3 349 354 369 0 255 255 255 
3 344 342 361 0 255 255 255 
3 334 340 366 0 255 255 255 
3 358 356 350 0 255 255 255 
3 364 347 368 0 255 255 255 
3 347 346 363 0 255 255 255 
3 346 345 363 0 255 255 255 
3 354 361 367 0 255 255 255 
3 322 352 353 0 255 255 255 
3 359 357 329 0 255 255 255 
3 359 334 366 0 255 255 255 
3 365 350 355 0 255 255 255 
3 364 348 347 0 255 255 255 
3 345 362 363 0 255 255 255 
3 361 354 338 0 255 255 255 
3 361 342 360 0 255 255 255 
3 341 329 357 0 255 255 255 
3 340 318 351 0 255 255 255 
3 345 339 362 0 255 255 255 
3 338 344 361 0 255 255 255 
3 360 342 330 0 255 255 255 
3 330 353 360 0 255 255 255 
3 326 322 353 0 255 255 255 
3 322 321 352 0 255 255 255 
3 329 334 359 0 255 255 255 
3 351 318 343 0 255 255 255 
3 351 356 358 0 255 255 255 
3 347 331 346 0 255 255 255 
3 354 336 338 0 255 255 255 
3 352 341 357 0 255 255 255 
3 356 351 333 0 255 255 255 
3 350 356 333 0 255 255 255 
3 355 350 332 0 255 255 255 
3 319 331 347 0 255 255 255 
3 349 336 354 0 255 255 255 
3 342 344 335 0 255 255 255 
3 342 337 330 0 255 255 255 
3 353 330 326 0 255 255 255 
3 321 341 352 0 255 255 255 
3 343 333 351 0 255 255 255 
3 333 332 350 0 255 255 255 
3 339 336 349 0 255 255 255 
3 313 335 344 0 255 255 255 
3 318 340 324 0 255 255 255 
3 320 317 348 0 255 255 255 
3 348 317 347 0 255 255 255 
3 317 319 347 0 255 255 255 
3 331 345 346 0 255 255 255 
3 345 331 339 0 255 255 255 
3 328 336 339 0 255 255 255 
3 338 327 344 0 255 255 255 
3 315 330 337 0 255 255 255 
3 341 325 329 0 255 255 255 
3 327 313 344 0 255 255 255 
3 343 318 333 0 255 255 255 
3 328 323 336 0 255 255 255 
3 336 294 338 0 255 255 255 
3 335 337 342 0 255 255 255 
3 288 322 326 0 255 255 255 
3 341 321 325 0 255 255 255 
3 334 324 340 0 255 255 255 
3 297 331 319 0 255 255 255 
3 331 328 339 0 255 255 255 
3 338 294 327 0 255 255 255 
3 337 335 316 0 255 255 255 
3 316 315 337 0 255 255 255 
3 325 305 329 0 255 255 255 
3 323 294 336 0 255 255 255 
3 310 313 327 0 255 255 255 
3 313 316 335 0 255 255 255 
3 334 329 324 0 255 255 255 
3 333 318 304 0 255 255 255 
3 304 332 333 0 255 255 255 
3 332 304 309 0 255 255 255 
3 319 317 303 0 255 255 255 
3 319 303 302 0 255 255 255 
3 297 328 331 0 255 255 255 
3 328 295 323 0 255 255 255 
3 315 326 330 0 255 255 255 
3 296 321 322 0 255 255 255 
3 321 312 325 0 255 255 255 
3 305 324 329 0 255 255 255 
3 297 295 328 0 255 255 255 
3 294 310 327 0 255 255 255 
3 301 316 313 0 255 255 255 
3 326 315 288 0 255 255 255 
3 312 305 325 0 255 255 255 
3 324 305 306 0 255 255 255 
3 306 318 324 0 255 255 255 
3 295 294 323 0 255 255 255 
3 310 290 313 0 255 255 255 
3 288 296 322 0 255 255 255 
3 296 312 321 0 255 255 255 
3 314 298 307 0 255 255 255 
3 307 317 320 0 255 255 255 
3 302 297 319 0 255 255 255 
3 293 290 310 0 255 255 255 
3 316 300 315 0 255 255 255 
3 312 296 292 0 255 255 255 
3 306 304 318 0 255 255 255 
3 307 303 317 0 255 255 255 
3 316 301 300 0 255 255 255 
3 300 288 315 0 255 255 255 
3 311 298 314 0 255 255 255 
3 273 293 310 0 255 255 255 
3 290 301 313 0 255 255 255 
3 312 292 305 0 255 255 255 
3 299 298 311 0 255 255 255 
3 281 303 307 0 255 255 255 
3 297 284 295 0 255 255 255 
3 294 295 274 0 255 255 255 
3 310 294 273 0 255 255 255 
3 300 289 282 0 255 255 255 
3 292 291 305 0 255 255 255 
3 291 304 306 0 255 255 255 
3 276 309 304 0 255 255 255 
3 308 266 299 0 255 255 255 
3 307 298 281 0 255 255 255 
3 302 303 287 0 255 255 255 
3 302 287 280 0 255 255 255 
3 300 282 288 0 255 255 255 
3 296 288 278 0 255 255 255 
3 291 306 305 0 255 255 255 
3 304 291 276 0 255 255 255 
3 281 287 303 0 255 255 255 
3 280 297 302 0 255 255 255 
3 301 290 285 0 255 255 255 
3 285 279 301 0 255 255 255 
3 300 301 279 0 255 255 255 
3 279 289 300 0 255 255 255 
3 266 281 299 0 255 255 255 
3 299 281 298 0 255 255 255 
3 280 284 297 0 255 255 255 
3 290 286 283 0 255 255 255 
3 267 282 289 0 255 255 255 
3 278 292 296 0 255 255 255 
3 291 292 277 0 255 255 255 
3 291 263 276 0 255 255 255 
3 284 274 295 0 255 255 255 
3 274 273 294 0 255 255 255 
3 273 290 293 0 255 255 255 
3 283 285 290 0 255 255 255 
3 278 277 292 0 255 255 255 
3 291 277 263 0 255 255 255 
3 273 286 290 0 255 255 255 
3 286 265 264 0 255 255 255 
3 264 283 286 0 255 255 255 
3 279 268 289 0 255 255 255 
3 268 267 289 0 255 255 255 
3 267 258 282 0 255 255 255 
3 282 278 288 0 255 255 255 
3 281 280 287 0 255 255 255 
3 274 284 261 0 255 255 255 
3 286 260 265 0 255 255 255 
3 263 255 276 0 255 255 255 
3 270 280 281 0 255 255 255 
3 261 269 274 0 255 255 255 
3 273 260 286 0 255 255 255 
3 285 283 271 0 255 255 255 
3 271 279 285 0 255 255 255 
3 266 257 281 0 255 255 255 
3 261 284 280 0 255 255 255 
3 283 264 271 0 255 255 255 
3 282 258 278 0 255 255 255 
3 253 277 278 0 255 255 255 
3 257 270 281 0 255 255 255 
3 280 270 261 0 255 255 255 
3 274 254 273 0 255 255 255 
3 265 247 264 0 255 255 255 
3 250 279 271 0 255 255 255 
3 279 250 268 0 255 255 255 
3 268 259 267 0 255 255 255 
3 258 253 278 0 255 255 255 
3 253 263 277 0 255 255 255 
3 276 255 275 0 255 255 255 
3 269 254 274 0 255 255 255 
3 254 260 273 0 255 255 255 
3 260 248 265 0 255 255 255 
3 259 246 267 0 255 255 255 
3 252 266 272 0 255 255 255 
3 261 256 269 0 255 255 255 
3 250 271 264 0 255 255 255 
3 250 249 268 0 255 255 255 
3 257 251 270 0 255 255 255 
3 251 261 270 0 255 255 255 
3 256 254 269 0 255 255 255 
3 264 241 250 0 255 255 255 
3 249 259 268 0 255 255 255 
3 246 258 267 0 255 255 255 
3 252 257 266 0 255 255 255 
3 234 256 261 0 255 255 255 
3 254 245 260 0 255 255 255 
3 265 229 247 0 255 255 255 
3 265 248 229 0 255 255 255 
3 247 241 264 0 255 255 255 
3 242 249 250 0 255 255 255 
3 232 259 249 0 255 255 255 
3 244 246 259 0 255 255 255 
3 246 240 258 0 255 255 255 
3 253 258 231 0 255 255 255 
3 253 255 263 0 255 255 255 
3 235 262 255 0 255 255 255 
3 238 251 257 0 255 255 255 
3 251 234 261 0 255 255 255 
3 245 233 260 0 255 255 255 
3 233 248 260 0 255 255 255 
3 229 243 247 0 255 255 255 
3 228 259 232 0 255 255 255 
3 228 244 259 0 255 255 255 
3 240 231 258 0 255 255 255 
3 0 239 252 0 255 255 255 
3 257 252 238 0 255 255 255 
3 234 254 256 0 255 255 255 
3 253 235 255 0 255 255 255 
3 237 234 251 0 255 255 255 
3 234 245 254 0 255 255 255 
3 243 236 247 0 255 255 255 
3 247 221 241 0 255 255 255 
3 249 223 232 0 255 255 255 
3 231 235 253 0 255 255 255 
3 217 239 0 0 255 255 255 
3 239 238 252 0 255 255 255 
3 238 237 251 0 255 255 255 
3 241 242 250 0 255 255 255 
3 242 223 249 0 255 255 255 
3 220 228 232 0 255 255 255 
3 233 229 248 0 255 255 255 
3 236 221 247 0 255 255 255 
3 244 228 215 0 255 255 255 
3 244 240 246 0 255 255 255 
3 231 219 235 0 255 255 255 
3 238 239 226 0 255 255 255 
3 234 225 245 0 255 255 255 
3 225 233 245 0 255 255 255 
3 233 207 229 0 255 255 255 
3 236 243 224 0 255 255 255 
3 221 223 241 0 255 255 255 
3 220 211 228 0 255 255 255 
3 244 215 214 0 255 255 255 
3 214 240 244 0 255 255 255 
3 222 231 240 0 255 255 255 
3 219 218 235 0 255 255 255 
3 217 198 239 0 255 255 255 
3 243 229 224 0 255 255 255 
3 223 242 241 0 255 255 255 
3 214 222 240 0 255 255 255 
3 231 222 203 0 255 255 255 
3 198 226 239 0 255 255 255 
3 238 226 237 0 255 255 255 
3 226 234 237 0 255 255 255 
3 212 236 224 0 255 255 255 
3 236 212 221 0 255 255 255 
3 232 223 216 0 255 255 255 
3 218 230 235 0 255 255 255 
3 226 225 234 0 255 255 255 
3 225 207 233 0 255 255 255 
3 216 220 232 0 255 255 255 
3 203 219 231 0 255 255 255 
3 218 210 230 0 255 255 255 
3 229 207 206 0 255 255 255 
3 206 224 229 0 255 255 255 
3 220 216 196 0 255 255 255 
3 211 215 228 0 255 255 255 
3 227 210 202 0 255 255 255 
3 198 208 226 0 255 255 255 
3 205 212 224 0 255 255 255 
3 202 209 227 0 255 255 255 
3 226 208 225 0 255 255 255 
3 207 225 208 0 255 255 255 
3 208 213 207 0 255 255 255 
3 224 206 205 0 255 255 255 
3 223 221 188 0 255 255 255 
3 188 216 223 0 255 255 255 
3 214 203 222 0 255 255 255 
3 201 219 203 0 255 255 255 
3 218 219 187 0 255 255 255 
3 212 205 204 0 255 255 255 
3 221 212 188 0 255 255 255 
3 188 197 216 0 255 255 255 
3 196 211 220 0 255 255 255 
3 215 193 214 0 255 255 255 
3 201 187 219 0 255 255 255 
3 187 210 218 0 255 255 255 
3 98 198 217 0 255 255 255 
3 186 206 207 0 255 255 255 
3 197 196 216 0 255 255 255 
3 211 193 215 0 255 255 255 
3 193 203 214 0 255 255 255 
3 210 187 194 0 255 255 255 
3 206 175 205 0 255 255 255 
3 195 193 211 0 255 255 255 
3 185 213 208 0 255 255 255 
3 213 185 207 0 255 255 255 
3 190 204 205 0 255 255 255 
3 212 204 188 0 255 255 255 
3 211 196 195 0 255 255 255 
3 174 194 187 0 255 255 255 
3 202 210 194 0 255 255 255 
3 202 194 182 0 255 255 255 
3 209 202 200 0 255 255 255 
3 198 185 208 0 255 255 255 
3 185 186 207 0 255 255 255 
3 206 186 175 0 255 255 255 
3 175 190 205 0 255 255 255 
3 190 189 204 0 255 255 255 
3 189 188 204 0 255 255 255 
3 203 193 180 0 255 255 255 
3 180 201 203 0 255 255 255 
3 182 200 202 0 255 255 255 
3 192 191 200 0 255 255 255 
3 193 195 181 0 255 255 255 
3 180 187 201 0 255 255 255 
3 182 192 200 0 255 255 255 
3 192 173 191 0 255 255 255 
3 175 178 190 0 255 255 255 
3 189 184 188 0 255 255 255 
3 197 177 196 0 255 255 255 
3 196 183 195 0 255 255 255 
3 191 172 199 0 255 255 255 
3 179 185 198 0 255 255 255 
3 189 190 171 0 255 255 255 
3 197 188 166 0 255 255 255 
3 166 177 197 0 255 255 255 
3 177 183 196 0 255 255 255 
3 183 181 195 0 255 255 255 
3 170 174 187 0 255 255 255 
3 194 174 182 0 255 255 255 
3 181 180 193 0 255 255 255 
3 192 182 167 0 255 255 255 
3 167 176 192 0 255 255 255 
3 192 176 173 0 255 255 255 
3 173 172 191 0 255 255 255 
3 169 175 186 0 255 255 255 
3 178 171 190 0 255 255 255 
3 189 171 184 0 255 255 255 
3 184 166 188 0 255 255 255 
3 180 170 187 0 255 255 255 
3 154 179 98 0 255 255 255 
3 185 169 186 0 255 255 255 
3 169 151 175 0 255 255 255 
3 175 147 178 0 255 255 255 
3 174 159 182 0 255 255 255 
3 171 178 163 0 255 255 255 
3 168 184 171 0 255 255 255 
3 183 177 165 0 255 255 255 
3 179 169 185 0 255 255 255 
3 168 166 184 0 255 255 255 
3 165 181 183 0 255 255 255 
3 159 167 182 0 255 255 255 
3 176 167 158 0 255 255 255 
3 179 154 153 0 255 255 255 
3 177 160 165 0 255 255 255 
3 165 180 181 0 255 255 255 
3 170 180 165 0 255 255 255 
3 176 158 162 0 255 255 255 
3 173 164 156 0 255 255 255 
3 153 169 179 0 255 255 255 
3 147 163 178 0 255 255 255 
3 166 160 177 0 255 255 255 
3 173 176 162 0 255 255 255 
3 162 164 173 0 255 255 255 
3 172 173 161 0 255 255 255 
3 151 147 175 0 255 255 255 
3 168 171 152 0 255 255 255 
3 170 165 149 0 255 255 255 
3 174 170 159 0 255 255 255 
3 173 156 161 0 255 255 255 
3 161 155 172 0 255 255 255 
3 171 163 152 0 255 255 255 
3 166 141 160 0 255 255 255 
3 170 149 159 0 255 255 255 
3 158 157 162 0 255 255 255 
3 162 148 164 0 255 255 255 
3 153 151 169 0 255 255 255 
3 152 166 168 0 255 255 255 
3 167 159 158 0 255 255 255 
3 163 147 150 0 255 255 255 
3 166 152 141 0 255 255 255 
3 160 149 165 0 255 255 255 
3 140 158 143 0 255 255 255 
3 158 146 157 0 255 255 255 
3 139 164 148 0 255 255 255 
3 163 135 152 0 255 255 255 
3 158 159 145 0 255 255 255 
3 140 146 158 0 255 255 255 
3 162 157 129 0 255 255 255 
3 139 148 142 0 255 255 255 
3 139 156 164 0 255 255 255 
3 161 156 137 0 255 255 255 
3 153 154 144 0 255 255 255 
3 150 135 163 0 255 255 255 
3 129 148 162 0 255 255 255 
3 137 155 161 0 255 255 255 
3 141 123 160 0 255 255 255 
3 123 149 160 0 255 255 255 
3 149 145 159 0 255 255 255 
3 145 143 158 0 255 255 255 
3 146 129 157 0 255 255 255 
3 139 137 156 0 255 255 255 
3 137 136 155 0 255 255 255 
3 144 154 132 0 255 255 255 
3 144 151 153 0 255 255 255 
3 150 147 131 0 255 255 255 
3 135 141 152 0 255 255 255 
3 140 134 146 0 255 255 255 
3 144 147 151 0 255 255 255 
3 122 131 147 0 255 255 255 
3 131 135 150 0 255 255 255 
3 123 145 149 0 255 255 255 
3 125 140 143 0 255 255 255 
3 140 130 134 0 255 255 255 
3 129 142 148 0 255 255 255 
3 144 122 147 0 255 255 255 
3 146 134 129 0 255 255 255 
3 133 139 142 0 255 255 255 
3 127 122 144 0 255 255 255 
3 123 143 145 0 255 255 255 
3 125 143 126 0 255 255 255 
3 129 134 116 0 255 255 255 
3 142 128 133 0 255 255 255 
3 144 132 127 0 255 255 255 
3 123 126 143 0 255 255 255 
3 125 126 119 0 255 255 255 
3 140 124 130 0 255 255 255 
3 129 128 142 0 255 255 255 
3 141 135 121 0 255 255 255 
3 141 121 123 0 255 255 255 
3 125 124 140 0 255 255 255 
3 133 137 139 0 255 255 255 
3 137 138 136 0 255 255 255 
3 131 121 135 0 255 255 255 
3 130 114 134 0 255 255 255 
3 131 122 110 0 255 255 255 
3 119 117 125 0 255 255 255 
3 114 116 134 0 255 255 255 
3 116 112 129 0 255 255 255 
3 128 112 133 0 255 255 255 
3 115 127 132 0 255 255 255 
3 110 121 131 0 255 255 255 
3 125 109 124 0 255 255 255 
3 124 114 130 0 255 255 255 
3 129 112 128 0 255 255 255 
3 115 122 127 0 255 255 255 
3 126 123 119 0 255 255 255 
3 117 109 125 0 255 255 255 
3 109 114 124 0 255 255 255 
3 121 119 123 0 255 255 255 
3 104 109 117 0 255 255 255 
3 115 110 122 0 255 255 255 
3 110 119 121 0 255 255 255 
3 107 117 119 0 255 255 255 
3 117 105 104 0 255 255 255 
3 120 112 113 0 255 255 255 
3 110 107 119 0 255 255 255 
3 112 116 106 0 255 255 255 
3 115 118 111 0 255 255 255 
3 107 105 117 0 255 255 255 
3 116 114 106 0 255 255 255 
3 111 110 115 0 255 255 255 
3 109 106 114 0 255 255 255 
3 112 106 101 0 255 255 255 
3 102 106 109 0 255 255 255 
3 101 113 112 0 255 255 255 
3 107 110 108 0 255 255 255 
3 110 111 108 0 255 255 255 
3 104 102 109 0 255 255 255 
3 108 105 107 0 255 255 255 
3 100 101 106 0 255 255 255 
3 102 104 103 0 255 255 255 
3 104 105 103 0 255 255 255 
3 102 103 100 0 255 255 255 
