ply
format ascii 1.0
comment VCGLIB generated
element vertex 429
property float x
property float y
property float z
property float nx
property float ny
property float nz
element face 854
property list uchar int vertex_indices
property uchar red
property uchar green
property uchar blue
property uchar alpha
end_header
-12.32276 -0.6111559 13.51888 0.1202929 -0.947102 -0.2975355 
-14.49664 -1.880252 14.63999 0.3552878 -0.6195009 -0.6999922 
-13.51621 -1.131656 14.14691 0.1741883 -0.8137569 -0.5544891 
-11.43288 -0.8438412 14.90924 0.3226522 -0.9083498 -0.2660756 
-12.96419 -0.111332 12.3261 -0.2074773 -0.8441059 -0.4944072 
-13.90903 -1.634761 14.66392 0.2590838 -0.7470023 -0.6122608 
-11.27625 -0.5564187 13.89406 0.01958489 -0.9893301 -0.144369 
-9.288867 -0.2401121 13.90738 0.2607093 -0.9592234 0.1091845 
-13.50788 -0.5470339 13.23019 0.1394519 -0.880728 -0.4526272 
-13.36086 0.1424283 12.09203 -0.1811386 -0.7918909 -0.5831789 
-12.39388 -1.051446 14.50112 0.2667893 -0.8721393 -0.4101177 
-11.92988 -0.6654636 13.90042 0.2043897 -0.9104447 -0.3596044 
-11.10235 -0.9164839 15.39251 0.2802497 -0.8977197 -0.3399405 
-11.03406 -0.6512997 14.4669 0.2450236 -0.9595756 -0.138485 
-12.2701 -1.445196 15.45772 0.4302692 -0.7779398 -0.4579064 
-14.48047 -0.9537256 13.73431 0.04038306 -0.7218604 -0.6908594 
-12.13906 -1.134943 14.93709 0.3490182 -0.8697838 -0.3488016 
-14.06966 -2.58232 15.61853 0.3902744 -0.634114 -0.6675218 
-10.2186 -0.9908174 16.2059 0.4243834 -0.7477202 -0.5106987 
-14.13886 -1.262632 14.17057 0.1818049 -0.7436242 -0.643405 
-13.56628 -2.072388 15.37076 0.3377652 -0.7105592 -0.6172684 
-8.886207 -0.1694743 13.63641 0.1847038 -0.9744747 0.1276069 
-8.594851 0.2481979 14.63308 0.6048525 -0.6737767 0.4244743 
-9.225053 -0.275607 16.07145 0.7756074 -0.6040692 -0.1831218 
-12.88312 2.64037 11.06242 -0.4652096 0.1949432 -0.8634682 
-13.38517 -1.454148 14.63227 0.2876473 -0.7930633 -0.5369449 
-12.50317 -0.2945158 12.51503 -0.1369188 -0.9284703 -0.3452479 
-13.26472 2.0484 11.16362 -0.5294479 0.1961549 -0.8253534 
-13.06985 -2.07942 15.65923 0.406175 -0.692012 -0.5967757 
-10.26392 0.1452273 11.32875 -0.1002554 -0.8197487 -0.5638802 
-8.507223 -0.003496685 14.05689 0.2809829 -0.9201711 0.2726423 
-9.539971 -0.2356651 15.54116 0.4812333 -0.8399782 -0.2507014 
-11.73166 -1.088405 15.29985 0.3669763 -0.8759177 -0.3132038 
-14.11365 -0.6763396 13.34747 0.001028984 -0.8565599 -0.5160466 
-10.457 -0.4823016 14.62813 0.2960226 -0.9550751 0.01421859 
-9.734105 -0.3767092 13.12215 0.2176429 -0.9717036 -0.09178074 
-9.31442 -0.1708918 12.28481 0.1221968 -0.976196 -0.179191 
-8.781617 -0.1798482 12.67369 0.1047624 -0.985905 -0.1304464 
-11.75767 -0.8196693 14.44144 0.2591616 -0.9200328 -0.2938962 
-12.49611 -0.8379158 13.99193 0.1558068 -0.8843943 -0.4399671 
-9.66896 -0.2878457 14.33695 0.2576501 -0.9591347 0.1169492 
-13.51516 1.282932 11.28494 -0.4435011 -0.1636954 -0.8811984 
-12.01378 -0.4898155 13.01831 -0.0104399 -0.9980755 -0.06112549 
-12.7967 2.068564 10.86574 -0.5344251 0.1998486 -0.8212493 
-14.78365 -0.4029401 13.12304 -0.2732357 -0.6919895 -0.6682012 
-9.312657 -0.08427598 15.0542 0.4643192 -0.8834954 0.06199671 
-13.38536 -0.2865735 12.70519 -0.01235285 -0.8517388 -0.5238211 
-10.02649 -0.3126751 14.92512 0.3610989 -0.9283389 -0.08828584 
-12.92786 -1.496753 15.06999 0.3582408 -0.7951221 -0.4893306 
-14.12744 -0.4286252 12.71961 -0.1547757 -0.7918003 -0.590844 
-11.91956 -2.257773 16.60261 0.1738677 -0.7110164 -0.6813412 
-10.88324 -1.579365 16.56131 0.353018 -0.693431 -0.6281176 
-11.53586 -0.3388059 13.2679 0.004760215 -0.9966555 -0.08157958 
-9.929129 -0.1351326 11.82398 0.06933563 -0.9319496 -0.3558969 
-11.77554 0.1762314 11.52649 -0.1374616 -0.7123299 -0.6882518 
-12.58966 1.94229 10.69433 -0.3414343 0.2094618 -0.9162687 
-14.41213 1.21732 11.71668 -0.6793712 0.07255702 -0.7301988 
-13.55078 1.872007 11.29991 -0.5104656 0.1245384 -0.850832 
-12.73358 2.413172 10.9121 -0.3430842 0.3882899 -0.8552919 
-13.72179 3.375944 11.7094 -0.557734 0.1069795 -0.8230967 
-9.176538 -0.1363576 14.42138 0.3423865 -0.9174981 0.2024077 
-13.69318 0.4667651 11.81282 -0.2266601 -0.6577414 -0.7183324 
-12.51296 1.445123 10.6394 -0.4483499 -0.2860083 -0.8468658 
-11.58977 -1.714731 16.28102 0.3801645 -0.6205807 -0.685824 
-13.17651 2.422962 11.20014 -0.5311929 0.1946057 -0.8245985 
-13.73727 3.791039 11.77406 -0.5939257 0.1938519 -0.7808161 
-13.16778 3.23956 11.34397 -0.3317424 0.2380205 -0.912849 
-13.35718 2.817508 11.39936 -0.5268114 0.1521162 -0.8362598 
-12.81804 1.622963 10.78243 -0.5096513 0.08861008 -0.855806 
-13.33623 1.54289 11.09997 -0.5745391 0.06187369 -0.8161351 
-12.74513 0.9700444 11.08486 -0.287364 -0.5975445 -0.7485737 
-13.34717 0.8737948 11.38057 -0.2897618 -0.5338397 -0.7943886 
-14.33893 0.623475 11.8814 -0.3187687 -0.5641652 -0.7616457 
-13.02461 -0.6781886 13.6379 0.07402406 -0.8948042 -0.4402793 
-10.17584 -0.4380544 12.68944 0.2008088 -0.9562452 -0.2127698 
-9.222621 -0.2775688 13.01267 0.1713146 -0.984467 -0.03841869 
-11.99912 0.7659521 10.99734 -0.2269417 -0.6715294 -0.7053692 
-10.98588 0.3002856 11.21368 -0.1085625 -0.7249491 -0.6801934 
-9.803854 -0.4145045 13.66434 0.2384279 -0.9676117 0.08294382 
-12.46713 0.4873899 11.40227 -0.2164339 -0.6471963 -0.7309538 
-10.82558 -0.2526254 11.86776 0.03352168 -0.8542451 -0.5187886 
-8.837569 0.7448583 15.99189 0.9368258 0.04573948 0.346793 
-9.000376 0.2735819 16.2851 0.8742689 -0.278035 0.3979327 
-9.858482 -0.5905248 15.88224 0.4478839 -0.8017768 -0.3956691 
-10.7661 -1.037598 15.89126 0.2991682 -0.8274372 -0.4752328 
-14.20306 -2.187503 15.18891 0.4237991 -0.6591015 -0.6212726 
-14.6349 -2.6957 15.3432 0.4544485 -0.5960905 -0.6619311 
-13.56793 -2.532907 15.85337 0.5382079 -0.725872 -0.4283014 
-12.44717 -2.77414 16.8079 0.1413161 -0.9646503 -0.2224404 
-12.7281 -2.437567 16.89247 -0.4781468 -0.7772062 0.4090551 
-12.71377 -2.2086 16.05433 0.1464311 -0.9553301 -0.2567145 
-12.1508 -1.75043 16.00333 0.4350108 -0.656867 -0.6158664 
-11.45781 -1.145014 15.84313 0.3455315 -0.795785 -0.4973271 
-10.8093 -0.623449 14.98643 0.3461846 -0.9063491 -0.2422552 
-8.734946 0.1962047 15.8161 0.8331169 -0.5378541 0.1289543 
-8.522344 0.6605873 15.20377 0.9513815 -0.2150871 0.2204788 
-8.74032 1.237619 15.50137 0.9446208 0.1482106 0.2927887 
-8.983163 1.518514 16.23167 0.9574009 0.1214906 0.2619611 
-9.1448 2.249367 16.35373 0.8770837 0.3344634 0.3447586 
-9.209873 2.9821 16.01913 0.9714147 0.172062 0.1635485 
-9.518343 3.781103 16.39357 0.9302439 0.3286231 0.1632582 
-10.53521 -0.5107808 13.97283 0.1775909 -0.9806036 0.08293435 
-10.61689 -0.6382362 13.545 0.1563902 -0.9860764 0.05652816 
-10.79424 -0.6400619 13.0592 -0.08736935 -0.9939879 -0.06598997 
-11.11912 -0.5759531 12.50553 0.01141204 -0.9921639 -0.1244209 
-11.48087 -0.4524522 12.14913 -0.1279416 -0.893132 -0.4312149 
-12.24575 -0.1016337 11.88703 -0.2078635 -0.7915777 -0.5746281 
-13.00403 0.2470933 11.75807 -0.2516758 -0.7227824 -0.6436186 
-14.1178 0.125241 12.23157 -0.2845682 -0.6746133 -0.6811152 
-13.9577 1.027961 11.44883 -0.3514709 -0.3343564 -0.8744565 
-13.07977 1.34633 10.9348 -0.4866028 -0.2272059 -0.8435611 
-13.86207 1.43211 11.3743 -0.4909954 0.1399863 -0.8598415 
-13.06687 1.85023 10.9908 -0.532728 0.1524385 -0.8324443 
-13.7234 2.33368 11.53463 -0.5663154 0.1744125 -0.805523 
-13.60887 3.033867 11.58843 -0.5353181 0.1189922 -0.8362269 
-13.4016 3.419357 11.49817 -0.5349639 0.233143 -0.8120702 
-13.1552 3.599837 11.36847 -0.3189728 0.4299597 -0.8446248 
-12.73927 3.084977 11.075 -0.2105669 0.4421248 -0.8718871 
-8.28508 0.388288 14.2902 0.7743683 0.5216823 -0.358052 
-8.08567 0.220364 14.2741 0.9412932 -0.2822179 0.1852571 
-8.25946 -0.0944965 13.4752 0.930978 -0.3566507 -0.0779766 
-8.43068 0.0881314 13.2653 0.8890564 0.4193315 -0.1836841 
-8.33072 -0.162002 12.9906 0.7537048 -0.6363413 -0.1643134 
-8.52613 0.228959 12.9073 0.9060263 0.32288 -0.2736144 
-8.79151 -0.0999738 12.0178 0.7248309 -0.5012622 -0.4726059 
-8.44392 0.960647 14.679 0.9298027 0.3425453 -0.1346467 
-8.4722 0.700971 14.0487 0.9098327 0.3758959 -0.1758038 
-8.47896 0.876371 14.474 0.8508759 0.4750243 -0.2244154 
-8.98596 0.184243 11.9102 0.8169358 0.2990749 -0.4931229 
-8.87558 0.469554 12.1829 0.8316875 0.3159826 -0.4565644 
-8.71635 0.593792 12.7453 0.8545028 0.419786 -0.3059489 
-8.70068 0.919076 13.3468 0.8638919 0.4556882 -0.2145671 
-9.30534 0.0303244 11.3296 0.4550395 -0.5889884 -0.6678561 
-9.17742 1.29603 12.5746 0.7213665 0.5934744 -0.3569574 
-8.67757 1.20889 14.2791 0.8418489 0.5126299 -0.1688228 
-9.18498 1.06923 12.2761 0.7585307 0.5031358 -0.4141083 
-9.06334 1.37072 13.1271 0.7617919 0.6094587 -0.2196207 
-9.87676 0.270529 10.9486 0.3245752 -0.1100011 -0.9394417 
-9.4503 0.261741 11.3133 0.6765592 0.3743467 -0.634139 
-8.73836 1.44855 14.8766 0.7265194 0.5328566 -0.4338588 
-8.7396 1.95146 15.1669 0.9015698 0.4097549 -0.1388272 
-9.39491 0.819388 11.6866 0.6218897 0.538456 -0.568611 
-9.18718 1.71361 13.7149 0.7436471 0.619695 -0.2509326 
-9.24174 2.01304 14.1926 0.7666752 0.5957139 -0.2394456 
-10.1678 0.911069 11.1545 0.4483442 0.5620043 -0.6950819 
-9.46597 1.69861 12.8869 0.6865 0.6714185 -0.2791325 
-10.4391 0.616574 10.8718 0.2013857 0.007579324 -0.9794827 
-9.06927 2.05597 14.8763 0.7455245 0.5604643 -0.3606566 
-9.13135 2.47388 15.2759 0.7352625 0.4431659 -0.5128285 
-9.8564 0.979224 11.4741 0.485242 0.6456034 -0.5896919 
-9.65019 1.52479 12.2728 0.5549971 0.6652494 -0.4994212 
-11.6 1.08278 10.5433 0.05598329 -0.1802889 -0.9820192 
-11.5832 1.22499 10.729 0.3622338 0.5214754 -0.7725607 
-10.6676 1.1349 11.1032 0.4147008 0.5322796 -0.7380391 
-10.1472 1.36347 11.668 0.4400932 0.6706303 -0.5971374 
-9.83896 2.13469 12.96 0.6433319 0.6793072 -0.3530806 
-9.7115 2.39678 13.9446 0.7017593 0.6564174 -0.2768579 
-9.6921 2.69006 14.7879 0.7310155 0.6034014 -0.3186271 
-11.5042 1.71656 10.9732 0.4126988 0.4254327 -0.8054109 
-10.2137 1.78457 12.0821 0.4551291 0.6446456 -0.614239 
-10.3259 2.79886 13.4458 0.6616932 0.6632171 -0.3497215 
-10.2757 2.31478 12.6719 0.503698 0.7177493 -0.480754 
-9.67683 3.02354 15.2489 0.6282101 0.544576 -0.555688 
-9.46751 3.1594 15.5024 0.3163335 0.5014418 -0.8052884 
-9.37252 3.51398 15.6846 0.5432001 0.4744622 -0.69269 
-9.10303 2.77115 15.4007 0.923391 0.2407614 -0.29897 
-10.8259 1.78433 11.7102 0.4901958 0.6485165 -0.5823526 
-12.1516 1.31671 10.5617 0.05205144 -0.1876429 -0.9808572 
-11.2145 1.79998 11.2461 0.5795704 0.5708365 -0.5815874 
-10.6487 1.44397 11.4233 0.4622386 0.6655256 -0.586013 
-9.97524 2.88807 14.4288 0.7398343 0.5940858 -0.3157647 
-10.6286 2.21257 12.2034 0.4107412 0.7245103 -0.5535131 
-12.2192 1.85717 10.7687 0.505581 0.3482504 -0.7893729 
-10.9912 2.23825 12.0103 0.4495816 0.6663771 -0.594826 
-10.5165 3.07826 13.5733 0.6994228 0.6012195 -0.386449 
-10.4113 3.51103 14.4359 0.7780717 0.5212636 -0.350555 
-10.2555 3.7232 15.1507 0.7637458 0.4681159 -0.4444772 
-9.86888 3.61312 15.5559 0.5923857 0.4807617 -0.6464885 
-10.88 2.95844 12.9186 0.6025428 0.6068075 -0.5183887 
-10.6576 3.43247 13.8187 0.7349917 0.5378886 -0.4128716 
-9.56539 3.91178 15.9578 0.2892146 0.686099 -0.6675501 
-9.36767 4.00153 15.8661 0.1564753 0.9611197 -0.2275182 
-12.0103 2.4581 11.0848 0.4915194 0.4029717 -0.772025 
-12.3075 1.67233 10.4217 0.05457376 0.2288399 -0.9719331 
-11.7034 2.56951 11.4461 0.6923267 0.4779676 -0.5405838 
-10.997 3.38335 13.2735 0.675721 0.5629004 -0.4759666 
-11.3259 2.65291 12.1258 0.6473401 0.5476258 -0.5301478 
-10.2665 4.52004 15.7355 0.7232357 0.4506187 -0.5233287 
-10.9738 3.85882 13.7739 0.7514918 0.4720023 -0.4609489 
-10.6931 4.1514 14.6825 0.8265899 0.4008527 -0.3950524 
-10.5204 4.55189 15.3817 0.814059 0.4073833 -0.4139408 
-12.2916 2.27254 10.8583 0.6114308 0.4510932 -0.6501287 
-9.87262 4.20027 15.9536 0.5813422 0.5448747 -0.6042788 
-12.0943 3.07091 11.3535 0.6074191 0.4505517 -0.6542517 
-9.66501 4.34847 16.2902 0.8276935 0.4608743 -0.3201849 
-11.449 3.0964 12.3381 0.7372857 0.45938 -0.4953582 
-12.3946 2.30431 10.6705 0.08095486 0.4361523 -0.896224 
-12.5147 3.2008 11.187 0.3251141 0.5262471 -0.7857257 
-11.8469 3.14043 11.7809 0.7293559 0.4508434 -0.5145681 
-12.4075 2.73457 10.902 0.07798106 0.3402325 -0.9371024 
-11.4388 3.6234 12.8746 0.7808082 0.4370829 -0.4464271 
-11.0259 4.89244 14.5772 0.8676674 0.3067158 -0.3912528 
-10.9087 5.13621 15.1624 0.9145217 0.3360935 -0.2251472 
-12.3593 3.76145 11.6285 0.5126852 0.499455 -0.6983542 
-11.5096 4.13812 13.2505 0.7872267 0.419661 -0.4518394 
-11.1929 4.53963 14.0017 0.7873964 0.3606296 -0.4999533 
-9.87484 4.61461 16.423 0.6817767 0.5515898 -0.480551 
-9.83174 4.74752 16.7145 0.7425241 0.6695959 0.01729871 
-11.9106 3.8219 12.2159 0.7246253 0.3800471 -0.574876 
-11.7559 4.00703 12.5824 0.8171765 0.3651453 -0.4459724 
-11.7111 4.98493 13.6339 0.7192121 0.4011008 -0.5673202 
-10.9397 5.57925 15.7256 0.7462807 0.5269608 -0.4066662 
-11.9082 4.90014 13.2506 0.7560124 0.4934658 -0.4300429 
-11.0484 5.67483 15.5727 0.847851 0.5246481 -0.07676669 
-12.9392 3.77028 11.4808 0.05275024 0.5178632 -0.8538355 
-11.4283 5.20005 14.0343 0.7688486 0.2871321 -0.571338 
-10.9997 5.69257 15.1367 0.9252202 0.3154141 -0.2109065 
-10.6491 5.59752 16.1216 0.7177435 0.5975705 -0.3574267 
-12.5022 4.14561 11.7941 0.4031513 0.4220594 -0.8119944 
-11.9293 4.63146 12.8354 0.8363994 0.4282193 -0.3421465 
-12.0176 5.59485 13.7431 0.541973 0.4477696 -0.7111735 
-11.3536 5.90151 14.5314 0.7988131 0.4323666 -0.4182783 
-11.117 5.83626 15.8311 0.6361675 0.7020241 -0.3200831 
-9.76588 4.20132 17.0673 0.5099041 0.3108568 0.8021009 
-9.57387 4.54117 16.882 0.7196921 0.4953704 0.4864684 
-13.1839 4.13259 11.7066 0.2349651 0.4820454 -0.844052 
-12.2232 4.34412 12.0868 0.6892267 0.2942742 -0.6620946 
-12.1828 4.72919 12.314 0.7458516 0.437742 -0.5020829 
-10.3158 5.39188 16.638 0.6524472 0.7290222 0.2069765 
-9.98879 4.92448 16.8278 0.748326 0.5181952 0.4141038 
-12.4854 4.76753 12.0624 0.4151967 0.3999294 -0.8171096 
-11.5396 5.73171 14.0912 0.6517714 0.3769771 -0.6580899 
-10.8561 5.77051 16.1222 0.4120761 0.9098386 0.04885808 
-12.8783 4.5081 11.8586 0.08802521 0.3722653 -0.9239427 
-12.2483 5.07959 12.6724 0.772638 0.523656 -0.3589081 
-12.2819 5.79186 13.7266 0.3591647 0.7172344 -0.5971394 
-10.1735 4.79334 17.2091 0.5824485 0.4419284 0.6822411 
-13.3162 4.32612 11.8284 -0.1755207 0.6263389 -0.7595342 
-12.4958 5.4876 12.7913 0.6088243 0.7087574 -0.3563649 
-11.3172 6.23531 15.1878 0.7157559 0.6979364 -0.02405017 
-12.8544 5.08018 12.1811 -0.09104838 0.6218445 -0.7778301 
-11.2689 5.95718 15.8627 0.5331258 0.8284152 0.1717709 
-13.4157 4.21605 11.6525 -0.07876778 0.6472279 -0.7582161 
-11.7567 6.16882 14.2547 0.5188574 0.6513793 -0.5536172 
-10.5845 5.27674 17.081 0.2543193 0.725819 0.6391467 
-9.63054 3.4407 17.074 0.4940425 -0.02131637 0.8691764 
-9.60712 4.11883 17.0305 0.8296657 0.1179949 0.5456484 
-12.5961 5.4747 12.6095 0.3154482 0.7824085 -0.536963 
-10.0024 3.71835 17.3744 0.5737072 0.09846172 0.8131207 
-11.2647 5.66264 16.3703 -0.1375627 0.7828437 0.6068214 
-9.52235 2.99331 17.0244 0.7518225 0.04345257 0.6579322 
-12.5823 5.79215 13.5426 0.08697533 0.9267232 -0.3655401 
-11.9953 6.39132 14.4095 0.1520319 0.8626747 -0.4823678 
-11.4006 5.93152 16.0647 0.2169543 0.7761995 0.5919842 
-11.0036 5.51725 16.7517 -0.1569747 0.8192925 0.5514697 
-10.4993 4.48175 17.5089 0.239142 0.285081 0.9281918 
-11.5732 6.39398 15.1006 0.4393931 0.8976884 -0.03300466 
-11.6108 6.29541 15.4882 0.4069622 0.8536007 0.3251886 
-13.6253 4.24478 11.9644 -0.5585713 0.752309 -0.349327 
-12.5682 6.02019 13.9686 -0.1757182 0.8605964 -0.4780136 
-10.877 5.11859 17.2335 -0.1773089 0.5292928 0.8297052 
-10.2515 3.59646 17.5255 0.4158647 0.01383019 0.9093213 
-13.3612 4.87353 12.2104 -0.4831905 0.5924653 -0.6446021 
-12.8338 5.58424 12.9008 -0.3776416 0.881513 -0.2834108 
-12.0523 6.49713 15.4213 0.2307469 0.9105605 0.3429802 
-9.96561 2.59433 17.2716 0.5674898 -0.08168673 0.8193184 
-13.1633 5.25416 12.5209 -0.4394032 0.7739742 -0.4559483 
-12.1825 6.59192 15.0384 -0.01128353 0.9966976 -0.0804156 
-13.8966 3.9727 12.0611 -0.8286248 0.5104638 -0.2297993 
-13.6553 4.27915 11.7824 -0.5919996 0.7033891 -0.3934213 
-12.2857 6.38037 14.4561 -0.2760668 0.8886944 -0.3660731 
-12.2634 6.29984 15.8271 -0.1645012 0.6989594 0.695985 
-11.8215 5.42863 16.3758 -0.1945758 0.5046653 0.8411024 
-10.6938 3.61297 17.6456 0.0752368 0.03763108 0.9964554 
-10.3274 2.60653 17.4986 0.3950097 -0.09073482 0.9141852 
-12.8827 5.79103 13.7412 -0.4673941 0.8332182 -0.2954494 
-11.8115 6.02028 16.0599 0.002396593 0.565079 0.8250334 
-10.9648 4.36257 17.5045 -0.1896889 0.2086147 0.9594259 
-9.74981 1.74665 17.0001 0.619521 -0.1287073 0.7743566 
-13.5412 4.9244 12.524 -0.7201502 0.6119897 -0.3268829 
-13.1645 5.42353 13.4002 -0.7149261 0.6825586 -0.151639 
-11.4021 5.12261 16.9066 -0.4821264 0.563706 0.6706637 
-10.1737 1.78471 17.2926 0.5111653 -0.1372732 0.8484493 
-9.57702 1.52052 16.797 0.3546842 -0.1139185 0.9280204 
-13.8599 4.52648 12.6673 -0.8635427 0.468216 -0.1872637 
-11.8497 4.97288 16.6588 -0.4576825 0.4979769 0.736577 
-11.1287 4.60125 17.384 -0.3865072 0.3574351 0.8502072 
-10.8797 1.83317 17.5997 0.2089892 -0.08560957 0.9741635 
-13.279 5.26038 12.8414 -0.6749945 0.7277397 -0.1215621 
-12.2819 5.77801 16.1304 -0.3178516 0.4224922 0.8488055 
-12.5106 6.49128 15.144 -0.4985225 0.8471977 -0.183661 
-12.4587 6.51421 15.4702 -0.3398753 0.9067111 0.2497193 
-12.4065 4.74595 16.4972 -0.421585 0.3766125 0.8248813 
-11.6412 4.47549 17.1345 -0.5176229 0.3338733 0.7877786 
-11.2494 4.14777 17.464 -0.3799869 0.2119441 0.9003831 
-13.6717 4.83359 12.8086 -0.8044305 0.593335 -0.02907317 
-13.3816 5.15079 13.3447 -0.762409 0.647034 -0.008913771 
-13.253 5.63563 14.1709 -0.7484702 0.6395659 -0.1753508 
-11.7712 3.03222 17.4549 -0.3546379 0.1824526 0.9170294 
-11.3874 2.80565 17.6027 -0.2093004 0.1214335 0.9702821 
-10.9695 2.77245 17.637 0.0212593 0.002237819 0.9997715 
-10.1611 1.12989 17.1641 0.55782 -0.1998842 0.8055329 
-14.1549 3.67461 12.0416 -0.8947845 0.3577451 -0.2671689 
-14.1411 3.50243 12.2642 -0.9347008 0.354472 0.02615391 
-12.6796 5.90197 15.8271 -0.5320008 0.4374554 0.7249882 
-10.6495 0.814973 17.3758 0.4210328 -0.1739882 0.8902019 
-9.36347 1.77512 16.7601 0.1282266 0.08635949 0.9879777 
-14.3286 3.32188 12.6755 -0.9393983 0.2871554 -0.1872771 
-12.8666 6.18898 15.4804 -0.7206339 0.5496908 0.4225244 
-12.9834 6.10368 15.2095 -0.725272 0.6883614 0.01179376 
-12.0451 3.5574 17.1781 -0.468 0.2695126 0.8416288 
-14.2698 2.87661 12.2195 -0.9859672 0.1490465 -0.07519241 
-9.70203 1.08735 16.8095 0.4571204 -0.1899164 0.8688917 
-14.1653 3.81555 13.0707 -0.9315311 0.3627883 0.02518786 
-12.989 5.33305 15.8972 -0.5609388 0.3508572 0.7498313 
-10.3357 0.337545 17.0218 0.5615841 -0.2455955 0.7901306 
-9.50788 0.916785 16.7431 0.2487292 -0.1584389 0.9555265 
-13.6515 4.83169 13.7152 -0.8314848 0.5496274 -0.08088776 
-13.1052 5.58509 15.638 -0.742359 0.3866255 0.5471963 
-12.088 4.16886 16.9254 -0.5046022 0.3394024 0.7938405 
-11.8276 1.61411 17.6851 -0.05895765 0.008843363 0.9982213 
-11.4239 1.09774 17.6233 0.1212766 -0.08301662 0.9891412 
-10.8558 0.121431 17.3267 0.4755863 -0.2217595 0.8512582 
-9.20582 1.31052 16.7315 -0.05024672 -0.1661908 0.9848126 
-14.2771 3.12268 12.0532 -0.8338425 0.1358297 -0.5350301 
-11.3389 0.176089 17.4859 0.2436716 -0.1510468 0.9580235 
-9.95787 0.372365 16.7348 0.4047356 -0.2103053 0.8899218 
-9.03744 0.800751 16.6582 0.5961715 -0.1819218 0.7819744 
-9.17245 1.80333 16.8699 0.2422961 0.1702977 0.9551394 
-13.9954 4.16001 13.3477 -0.9015332 0.4322815 0.01925339 
-13.8816 4.64708 14.5468 -0.900372 0.4347873 0.0170392 
-13.3632 5.56993 14.8131 -0.8618411 0.4977655 0.09725951 
-12.2732 2.49967 17.3843 -0.3953411 0.2162233 0.8927222 
-14.7167 2.22163 13.5027 -0.9784274 0.1892994 -0.08273759 
-14.4147 3.11579 13.0831 -0.9390103 0.3431213 -0.02296683 
-12.5883 3.29437 16.9606 -0.4838599 0.2840677 0.8277591 
-9.32687 0.282028 16.509 0.1884333 -0.2691685 0.9444794 
-14.558 2.23864 12.7644 -0.9527197 0.1282596 -0.2754539 
-10.4136 -0.341542 16.8255 0.5536865 -0.1834222 0.8122731 
-13.0091 3.68503 16.562 -0.5232099 0.307055 0.7949646 
-12.1931 1.39698 17.626 -0.2947849 0.04574652 0.954468 
-9.85154 -0.0101139 16.6085 0.4687147 -0.2875231 0.8352467 
-14.3539 2.12104 12.0766 -0.9292277 0.1876734 -0.3182998 
-14.5421 2.89142 13.7818 -0.952164 0.3038971 -0.03209743 
-13.3538 3.96371 16.1927 -0.6460956 0.3016519 0.7011182 
-9.22874 -0.17621 16.381 0.4911138 -0.05661583 0.8692537 
-13.6049 4.92632 15.1824 -0.8730819 0.4102242 0.2635228 
-11.9261 -0.472285 17.4992 0.006842863 -0.1321069 0.9912119 
-10.8209 -0.667714 17.0641 0.4637542 -0.1773918 0.8680232 
-14.639 1.56685 12.8375 -0.9466618 0.08253013 -0.3114809 
-14.7481 1.47478 13.2011 -0.9731577 0.08299648 -0.2146526 
-14.6587 2.47757 14.4735 -0.9732572 0.2177672 0.0731296 
-13.7829 4.27885 15.4867 -0.8623116 0.3610514 0.3550502 
-13.862 3.76789 15.748 -0.8096607 0.310407 0.4980934 
-13.2466 2.14073 16.942 -0.5459324 0.2489718 0.7999818 
-12.6222 1.79419 17.379 -0.4522742 0.1528812 0.8786782 
-11.2083 -0.606152 17.3059 0.3706237 -0.2571077 0.8924874 
-12.3579 -0.0108215 17.4829 -0.2291317 -0.07184957 0.9707401 
-9.82835 -0.359838 16.4159 0.3201186 -0.08656925 0.943414 
-14.4507 3.18663 14.5492 -0.9413449 0.3149232 0.1212154 
-13.0032 0.98362 17.2602 -0.481855 0.03160851 0.8756807 
-14.7408 2.05458 14.2433 -0.9839944 0.1774952 0.01583244 
-14.8709 1.31086 14.2949 -0.9914231 0.1127566 0.06607807 
-14.1381 3.76091 15.0104 -0.9033877 0.3373176 0.2647782 
-11.6803 -0.984258 17.3649 0.2543307 -0.229244 0.9395548 
-14.4463 1.19165 12.1218 -0.9303424 0.3520385 0.1026257 
-14.5883 0.864896 12.4913 -0.8966194 0.4361497 0.07646585 
-12.7123 0.435277 17.387 -0.3739391 -0.03674748 0.926725 
-14.8692 0.780284 13.6613 -0.993311 0.1150445 0.009900484 
-13.4591 1.60095 16.9363 -0.6151065 0.1320763 0.7773029 
-10.8453 -1.57042 16.9127 0.3379625 -0.1491735 0.9292624 
-13.8537 2.84049 16.1729 -0.7298216 0.2359773 0.6416193 
-10.077 -0.960367 16.6525 0.3063707 0.223529 0.9252955 
-14.8745 0.00527515 13.331 -0.8789499 0.4081093 0.246767 
-13.3335 -0.393155 17.0688 -0.4952515 -0.03626013 0.8679926 
-12.6009 -1.25463 17.3335 -0.2620851 -0.1155836 0.9580981 
-10.3609 -1.29188 16.7984 0.1985293 0.09961437 0.9750196 
-9.56877 -0.732513 16.4856 0.6099882 -0.5252507 0.593318 
-9.08173 -0.432501 16.516 0.9545016 0.01013572 0.2980336 
-12.5629 -1.70912 17.2509 -0.1038908 -0.2772548 0.9551631 
-11.1395 -1.97311 16.9583 0.1475391 0.01032933 0.9890023 
-14.4985 1.57405 11.8802 -0.9079295 0.1656969 -0.3849787 
-14.9748 -0.623034 14.2733 -0.9782335 0.1343695 0.1581272 
-14.9269 0.138961 13.928 -0.9822134 0.1532752 0.1084596 
-14.6471 1.87799 15.1338 -0.9483324 0.1756698 0.264208 
-14.3497 2.72176 15.4324 -0.8912137 0.2532043 0.3763321 
-11.8982 -2.38191 17.0328 -0.02103432 -0.4059575 0.9136499 
-13.7968 -0.030036 16.752 -0.6522015 0.01107295 0.7579648 
-12.9123 -0.793015 17.2499 -0.4204218 -0.07982213 0.9038108 
-14.3679 1.60584 15.9235 -0.8401121 0.1586242 0.5187004 
-14.8847 0.304137 14.6612 -0.9843238 0.05213813 0.1684882 
-13.8234 1.10463 16.6524 -0.7135779 0.07333118 0.6967274 
-14.8019 0.56415 12.4136 -0.9941773 0.07916146 -0.07310902 
-14.0335 1.35343 16.3875 -0.7448282 0.1093577 0.6582338 
-14.9038 0.234042 12.9381 -0.6983833 0.6362139 0.3278609 
-14.8132 0.32322 13.0526 -0.5074456 0.6685097 0.5436854 
-14.7477 1.17302 15.047 -0.9715424 0.07181979 0.2257151 
-10.0312 -1.34433 16.8442 0.5143744 -0.2892799 0.8073018 
-15.0133 -0.636031 13.7316 -0.9403496 0.2737631 0.2019814 
-13.076 -1.84118 17.042 -0.4594754 -0.4415225 0.7706752 
-11.1607 -2.24875 16.9966 0.6150303 -0.7868119 0.05161975 
-14.9413 0.717223 11.9638 -0.9839017 -0.07537775 -0.162036 
-14.7802 1.04995 11.821 -0.657401 0.4020041 -0.6373513 
-14.8604 -0.660176 14.9768 -0.9616244 0.05786104 0.2681988 
-14.6172 0.822386 15.673 -0.9216479 0.06480659 0.3825771 
-13.7885 -2.04684 16.6415 -0.4046495 -0.2998162 0.8639266 
-15.0346 0.14201 12.9646 -0.9319103 -0.001458024 -0.3626861 
-15.1889 -0.922205 13.6849 -0.9414696 -0.1582376 -0.2976508 
-14.724 0.0285774 15.3185 -0.9499468 0.01295251 0.3121433 
-14.1323 0.107354 16.4119 -0.7675119 0.01397975 0.6408823 
-11.7201 -2.71884 16.9972 -0.3754056 -0.9189413 0.1209032 
-14.4296 0.455045 16.0058 -0.8123393 0.05246919 0.58082 
-14.0721 -1.43772 16.4311 -0.7260097 -0.02574904 0.6872022 
-15.1197 -1.33712 14.2531 -0.943689 0.2022418 0.2618194 
-14.5126 -0.0800717 15.8884 -0.8843449 -0.01048768 0.4667164 
-14.6928 -0.643555 15.4117 -0.9219808 0.01748688 0.3868406 
-14.8821 -2.24637 15.1019 -0.911119 0.06458481 0.4070515 
-14.4051 -1.16945 16.0111 -0.8372853 0.002157487 0.546762 
-14.3402 -2.06962 16.1243 -0.771339 -0.06797636 0.6327838 
-13.9341 -2.83225 16.3401 -0.599874 -0.1999848 0.7746982 
-13.7232 -3.22167 16.3937 -0.2017036 -0.6003813 0.7738591 
-14.1666 -2.92593 16.1286 -0.6583513 -0.2095184 0.7229631 
-14.6286 -1.88258 15.6899 -0.8814507 0.001365582 0.4722742 
-15.2605 -1.65821 14.1692 -0.8075178 -0.4160123 -0.4181492 
-14.438 -3.02655 15.8133 -0.365614 -0.9304801 -0.02309437 
-14.7046 -2.85781 15.4444 -0.8661049 0.0711582 0.4947716 
-15.148 -2.19062 14.5605 -0.9488669 -0.3106932 -0.05586923 
-14.921 -3.20722 15.4667 -0.8276001 0.4612145 0.3199364 
-15.0407 -2.74725 14.9586 0.4214565 -0.6661072 -0.6153663 
3 106 26 4 0 255 255 255 
3 28 20 48 0 255 255 255 
3 39 11 10 0 255 255 255 
3 425 428 86 0 255 255 255 
3 108 46 49 0 255 255 255 
3 5 19 2 0 255 255 255 
3 38 10 11 0 255 255 255 
3 6 102 101 0 255 255 255 
3 15 19 423 0 255 255 255 
3 0 39 73 0 255 255 255 
3 104 74 103 0 255 255 255 
3 20 85 5 0 255 255 255 
3 78 75 7 0 255 255 255 
3 75 36 37 0 255 255 255 
3 124 122 37 0 255 255 255 
3 103 74 102 0 255 255 255 
3 423 19 1 0 255 255 255 
3 52 42 104 0 255 255 255 
3 426 1 428 0 255 255 255 
3 71 41 110 0 255 255 255 
3 86 17 424 0 255 255 255 
3 39 0 11 0 255 255 255 
3 22 60 30 0 255 255 255 
3 38 6 13 0 255 255 255 
3 47 40 45 0 255 255 255 
3 25 10 48 0 255 255 255 
3 36 75 35 0 255 255 255 
3 52 11 0 0 255 255 255 
3 25 20 5 0 255 255 255 
3 87 405 420 0 255 255 255 
3 46 4 26 0 255 255 255 
3 423 407 15 0 255 255 255 
3 51 63 92 0 255 255 255 
3 28 90 87 0 255 255 255 
3 90 89 399 0 255 255 255 
3 85 428 1 0 255 255 255 
3 86 85 17 0 255 255 255 
3 14 92 91 0 255 255 255 
3 13 101 34 0 255 255 255 
3 8 2 33 0 255 255 255 
3 91 28 14 0 255 255 255 
3 5 85 1 0 255 255 255 
3 30 119 22 0 255 255 255 
3 97 328 327 0 255 255 255 
3 82 327 345 0 255 255 255 
3 30 7 21 0 255 255 255 
3 81 94 95 0 255 255 255 
3 40 47 34 0 255 255 255 
3 27 64 43 0 255 255 255 
3 112 43 68 0 255 255 255 
3 6 11 52 0 255 255 255 
3 42 26 105 0 255 255 255 
3 102 35 78 0 255 255 255 
3 61 107 9 0 255 255 255 
3 115 66 114 0 255 255 255 
3 43 112 27 0 255 255 255 
3 86 428 85 0 255 255 255 
3 20 17 85 0 255 255 255 
3 101 102 78 0 255 255 255 
3 75 78 35 0 255 255 255 
3 119 125 22 0 255 255 255 
3 125 96 95 0 255 255 255 
3 93 47 83 0 255 255 255 
3 83 31 23 0 255 255 255 
3 44 15 407 0 255 255 255 
3 400 50 63 0 255 255 255 
3 8 49 46 0 255 255 255 
3 113 67 64 0 255 255 255 
3 10 2 39 0 255 255 255 
3 84 83 18 0 255 255 255 
3 137 29 146 0 255 255 255 
3 38 3 16 0 255 255 255 
3 60 40 7 0 255 255 255 
3 172 183 55 0 255 255 255 
3 36 74 53 0 255 255 255 
3 82 94 81 0 255 255 255 
3 53 74 80 0 255 255 255 
3 16 10 38 0 255 255 255 
3 42 52 0 0 255 255 255 
3 27 57 113 0 255 255 255 
3 83 377 18 0 255 255 255 
3 47 31 83 0 255 255 255 
3 196 172 55 0 255 255 255 
3 73 39 2 0 255 255 255 
3 15 44 33 0 255 255 255 
3 35 74 36 0 255 255 255 
3 110 62 70 0 255 255 255 
3 68 55 62 0 255 255 255 
3 402 72 401 0 255 255 255 
3 79 71 70 0 255 255 255 
3 83 84 93 0 255 255 255 
3 377 23 378 0 255 255 255 
3 16 48 10 0 255 255 255 
3 41 109 111 0 255 255 255 
3 76 167 151 0 255 255 255 
3 77 76 151 0 255 255 255 
3 109 71 61 0 255 255 255 
3 51 92 84 0 255 255 255 
3 365 56 402 0 255 255 255 
3 406 44 407 0 255 255 255 
3 93 3 13 0 255 255 255 
3 25 48 20 0 255 255 255 
3 78 7 40 0 255 255 255 
3 92 63 91 0 255 255 255 
3 71 109 41 0 255 255 255 
3 93 13 34 0 255 255 255 
3 58 191 196 0 255 255 255 
3 36 132 124 0 255 255 255 
3 43 196 55 0 255 255 255 
3 4 9 107 0 255 255 255 
3 36 124 37 0 255 255 255 
3 199 191 58 0 255 255 255 
3 106 54 105 0 255 255 255 
3 111 56 381 0 255 255 255 
3 107 71 79 0 255 255 255 
3 214 116 115 0 255 255 255 
3 242 115 65 0 255 255 255 
3 58 64 24 0 255 255 255 
3 66 67 114 0 255 255 255 
3 269 258 242 0 255 255 255 
3 122 21 75 0 255 255 255 
3 0 26 42 0 255 255 255 
3 33 44 49 0 255 255 255 
3 19 15 33 0 255 255 255 
3 79 106 107 0 255 255 255 
3 69 41 57 0 255 255 255 
3 386 379 89 0 255 255 255 
3 3 38 13 0 255 255 255 
3 242 214 115 0 255 255 255 
3 342 113 111 0 255 255 255 
3 324 113 342 0 255 255 255 
3 269 242 65 0 255 255 255 
3 27 69 57 0 255 255 255 
3 112 69 27 0 255 255 255 
3 114 324 59 0 255 255 255 
3 111 113 57 0 255 255 255 
3 62 183 167 0 255 255 255 
3 111 57 41 0 255 255 255 
3 122 75 37 0 255 255 255 
3 65 59 302 0 255 255 255 
3 122 120 21 0 255 255 255 
3 0 73 26 0 255 255 255 
3 406 392 108 0 255 255 255 
3 214 197 66 0 255 255 255 
3 61 108 72 0 255 255 255 
3 70 76 79 0 255 255 255 
3 2 25 5 0 255 255 255 
3 420 424 87 0 255 255 255 
3 79 54 106 0 255 255 255 
3 80 74 104 0 255 255 255 
3 30 21 120 0 255 255 255 
3 53 132 36 0 255 255 255 
3 77 80 54 0 255 255 255 
3 69 112 110 0 255 255 255 
3 55 68 43 0 255 255 255 
3 106 105 26 0 255 255 255 
3 104 103 52 0 255 255 255 
3 32 92 14 0 255 255 255 
3 111 381 342 0 255 255 255 
3 18 397 51 0 255 255 255 
3 105 54 80 0 255 255 255 
3 30 120 119 0 255 255 255 
3 12 92 32 0 255 255 255 
3 97 98 328 0 255 255 255 
3 32 16 3 0 255 255 255 
3 6 38 11 0 255 255 255 
3 96 97 81 0 255 255 255 
3 63 51 400 0 255 255 255 
3 405 90 399 0 255 255 255 
3 90 405 87 0 255 255 255 
3 425 86 427 0 255 255 255 
3 386 89 88 0 255 255 255 
3 8 33 49 0 255 255 255 
3 26 73 46 0 255 255 255 
3 146 29 77 0 255 255 255 
3 91 90 28 0 255 255 255 
3 97 140 98 0 255 255 255 
3 51 397 400 0 255 255 255 
3 89 90 50 0 255 255 255 
3 410 386 50 0 255 255 255 
3 92 12 84 0 255 255 255 
3 1 426 423 0 255 255 255 
3 63 50 91 0 255 255 255 
3 50 88 89 0 255 255 255 
3 379 399 89 0 255 255 255 
3 148 98 140 0 255 255 255 
3 345 23 82 0 255 255 255 
3 31 47 45 0 255 255 255 
3 94 45 95 0 255 255 255 
3 47 93 34 0 255 255 255 
3 100 250 99 0 255 255 255 
3 7 75 21 0 255 255 255 
3 99 98 148 0 255 255 255 
3 100 164 181 0 255 255 255 
3 165 164 99 0 255 255 255 
3 95 45 22 0 255 255 255 
3 94 23 31 0 255 255 255 
3 327 81 97 0 255 255 255 
3 194 100 180 0 255 255 255 
3 81 95 96 0 255 255 255 
3 82 81 327 0 255 255 255 
3 194 246 100 0 255 255 255 
3 148 165 99 0 255 255 255 
3 56 111 109 0 255 255 255 
3 105 104 42 0 255 255 255 
3 378 23 345 0 255 255 255 
3 88 50 386 0 255 255 255 
3 77 54 76 0 255 255 255 
3 80 29 53 0 255 255 255 
3 74 35 102 0 255 255 255 
3 98 99 250 0 255 255 255 
3 45 40 60 0 255 255 255 
3 95 22 125 0 255 255 255 
3 406 108 49 0 255 255 255 
3 24 199 58 0 255 255 255 
3 17 87 424 0 255 255 255 
3 107 61 71 0 255 255 255 
3 87 17 20 0 255 255 255 
3 68 110 112 0 255 255 255 
3 108 392 72 0 255 255 255 
3 103 6 52 0 255 255 255 
3 109 72 56 0 255 255 255 
3 66 117 24 0 255 255 255 
3 66 24 67 0 255 255 255 
3 76 70 167 0 255 255 255 
3 29 132 53 0 255 255 255 
3 59 65 115 0 255 255 255 
3 66 116 214 0 255 255 255 
3 324 302 59 0 255 255 255 
3 113 114 67 0 255 255 255 
3 199 117 197 0 255 255 255 
3 72 402 56 0 255 255 255 
3 64 67 24 0 255 255 255 
3 365 381 56 0 255 255 255 
3 110 68 62 0 255 255 255 
3 324 114 113 0 255 255 255 
3 2 10 25 0 255 255 255 
3 2 19 33 0 255 255 255 
3 14 16 32 0 255 255 255 
3 14 28 48 0 255 255 255 
3 73 8 46 0 255 255 255 
3 103 102 6 0 255 255 255 
3 51 84 18 0 255 255 255 
3 108 61 9 0 255 255 255 
3 84 12 93 0 255 255 255 
3 151 146 77 0 255 255 255 
3 4 46 9 0 255 255 255 
3 46 108 9 0 255 255 255 
3 377 83 23 0 255 255 255 
3 406 49 44 0 255 255 255 
3 137 132 29 0 255 255 255 
3 16 14 48 0 255 255 255 
3 199 24 117 0 255 255 255 
3 105 80 104 0 255 255 255 
3 302 268 65 0 255 255 255 
3 401 72 392 0 255 255 255 
3 76 54 79 0 255 255 255 
3 66 115 116 0 255 255 255 
3 66 197 117 0 255 255 255 
3 87 20 28 0 255 255 255 
3 70 71 110 0 255 255 255 
3 140 96 125 0 255 255 255 
3 13 6 101 0 255 255 255 
3 3 93 12 0 255 255 255 
3 78 40 101 0 255 255 255 
3 29 80 77 0 255 255 255 
3 246 250 100 0 255 255 255 
3 224 194 207 0 255 255 255 
3 62 55 183 0 255 255 255 
3 60 22 45 0 255 255 255 
3 82 23 94 0 255 255 255 
3 140 97 96 0 255 255 255 
3 90 91 50 0 255 255 255 
3 50 400 410 0 255 255 255 
3 31 45 94 0 255 255 255 
3 3 12 32 0 255 255 255 
3 224 246 194 0 255 255 255 
3 223 246 224 0 255 255 255 
3 110 41 69 0 255 255 255 
3 268 269 65 0 255 255 255 
3 106 4 107 0 255 255 255 
3 58 196 43 0 255 255 255 
3 328 306 323 0 255 255 255 
3 100 181 180 0 255 255 255 
3 70 62 167 0 255 255 255 
3 99 164 100 0 255 255 255 
3 115 114 59 0 255 255 255 
3 40 34 101 0 255 255 255 
3 2 8 73 0 255 255 255 
3 397 18 377 0 255 255 255 
3 60 7 30 0 255 255 255 
3 250 306 98 0 255 255 255 
3 424 427 86 0 255 255 255 
3 109 61 72 0 255 255 255 
3 64 58 43 0 255 255 255 
3 27 113 64 0 255 255 255 
3 1 19 5 0 255 255 255 
3 306 328 98 0 255 255 255 
3 373 366 395 0 255 255 255 
3 425 426 428 0 255 255 255 
3 427 424 425 0 255 255 255 
3 425 416 426 0 255 255 255 
3 424 418 425 0 255 255 255 
3 425 422 416 0 255 255 255 
3 426 416 423 0 255 255 255 
3 418 422 425 0 255 255 255 
3 420 421 424 0 255 255 255 
3 423 416 413 0 255 255 255 
3 420 419 421 0 255 255 255 
3 421 418 424 0 255 255 255 
3 418 417 422 0 255 255 255 
3 417 409 414 0 255 255 255 
3 415 416 422 0 255 255 255 
3 413 398 423 0 255 255 255 
3 398 407 423 0 255 255 255 
3 417 415 422 0 255 255 255 
3 419 405 421 0 255 255 255 
3 405 418 421 0 255 255 255 
3 418 412 417 0 255 255 255 
3 404 408 414 0 255 255 255 
3 417 414 415 0 255 255 255 
3 420 405 419 0 255 255 255 
3 418 405 412 0 255 255 255 
3 412 409 417 0 255 255 255 
3 408 415 414 0 255 255 255 
3 416 415 403 0 255 255 255 
3 403 413 416 0 255 255 255 
3 411 404 414 0 255 255 255 
3 408 403 415 0 255 255 255 
3 409 411 414 0 255 255 255 
3 413 403 382 0 255 255 255 
3 409 412 387 0 255 255 255 
3 411 389 404 0 255 255 255 
3 382 398 413 0 255 255 255 
3 405 387 412 0 255 255 255 
3 409 393 411 0 255 255 255 
3 393 389 411 0 255 255 255 
3 396 403 408 0 255 255 255 
3 406 407 373 0 255 255 255 
3 394 392 406 0 255 255 255 
3 400 386 410 0 255 255 255 
3 388 374 405 0 255 255 255 
3 374 387 405 0 255 255 255 
3 409 387 393 0 255 255 255 
3 404 384 396 0 255 255 255 
3 396 408 404 0 255 255 255 
3 403 396 390 0 255 255 255 
3 398 373 407 0 255 255 255 
3 373 394 406 0 255 255 255 
3 397 380 400 0 255 255 255 
3 399 388 405 0 255 255 255 
3 385 384 389 0 255 255 255 
3 384 404 389 0 255 255 255 
3 382 383 398 0 255 255 255 
3 395 394 373 0 255 255 255 
3 376 380 397 0 255 255 255 
3 379 375 399 0 255 255 255 
3 393 387 391 0 255 255 255 
3 403 390 382 0 255 255 255 
3 401 392 365 0 255 255 255 
3 365 402 401 0 255 255 255 
3 380 386 400 0 255 255 255 
3 375 388 399 0 255 255 255 
3 383 373 398 0 255 255 255 
3 372 397 377 0 255 255 255 
3 397 372 376 0 255 255 255 
3 393 371 389 0 255 255 255 
3 396 384 362 0 255 255 255 
3 390 396 362 0 255 255 255 
3 394 395 366 0 255 255 255 
3 366 392 394 0 255 255 255 
3 391 369 393 0 255 255 255 
3 369 371 393 0 255 255 255 
3 384 351 362 0 255 255 255 
3 392 366 365 0 255 255 255 
3 369 391 387 0 255 255 255 
3 362 382 390 0 255 255 255 
3 368 373 383 0 255 255 255 
3 376 370 380 0 255 255 255 
3 374 388 367 0 255 255 255 
3 371 385 389 0 255 255 255 
3 376 372 348 0 255 255 255 
3 388 375 367 0 255 255 255 
3 374 360 387 0 255 255 255 
3 360 369 387 0 255 255 255 
3 385 371 353 0 255 255 255 
3 385 363 359 0 255 255 255 
3 359 384 385 0 255 255 255 
3 361 362 351 0 255 255 255 
3 377 358 372 0 255 255 255 
3 380 364 386 0 255 255 255 
3 364 379 386 0 255 255 255 
3 357 367 375 0 255 255 255 
3 353 363 385 0 255 255 255 
3 384 359 351 0 255 255 255 
3 382 362 368 0 255 255 255 
3 368 383 382 0 255 255 255 
3 365 342 381 0 255 255 255 
3 345 358 377 0 255 255 255 
3 370 364 380 0 255 255 255 
3 364 347 379 0 255 255 255 
3 347 375 379 0 255 255 255 
3 368 350 373 0 255 255 255 
3 378 345 377 0 255 255 255 
3 376 348 370 0 255 255 255 
3 347 357 375 0 255 255 255 
3 367 360 374 0 255 255 255 
3 369 354 371 0 255 255 255 
3 344 353 371 0 255 255 255 
3 350 366 373 0 255 255 255 
3 358 338 372 0 255 255 255 
3 372 338 348 0 255 255 255 
3 360 355 369 0 255 255 255 
3 354 344 371 0 255 255 255 
3 362 333 368 0 255 255 255 
3 348 364 370 0 255 255 255 
3 367 357 340 0 255 255 255 
3 369 355 354 0 255 255 255 
3 353 352 363 0 255 255 255 
3 346 363 352 0 255 255 255 
3 333 350 368 0 255 255 255 
3 366 350 349 0 255 255 255 
3 348 356 364 0 255 255 255 
3 356 325 364 0 255 255 255 
3 340 360 367 0 255 255 255 
3 339 344 354 0 255 255 255 
3 363 330 359 0 255 255 255 
3 349 365 366 0 255 255 255 
3 349 311 365 0 255 255 255 
3 365 311 342 0 255 255 255 
3 356 322 325 0 255 255 255 
3 364 325 347 0 255 255 255 
3 346 330 363 0 255 255 255 
3 334 359 330 0 255 255 255 
3 359 343 351 0 255 255 255 
3 351 333 361 0 255 255 255 
3 333 362 361 0 255 255 255 
3 336 358 345 0 255 255 255 
3 341 338 358 0 255 255 255 
3 340 355 360 0 255 255 255 
3 346 352 318 0 255 255 255 
3 346 331 330 0 255 255 255 
3 334 343 359 0 255 255 255 
3 336 341 358 0 255 255 255 
3 347 340 357 0 255 255 255 
3 355 332 354 0 255 255 255 
3 354 335 339 0 255 255 255 
3 353 344 318 0 255 255 255 
3 330 329 334 0 255 255 255 
3 322 356 348 0 255 255 255 
3 325 321 347 0 255 255 255 
3 340 347 320 0 255 255 255 
3 355 340 332 0 255 255 255 
3 332 335 354 0 255 255 255 
3 344 339 314 0 255 255 255 
3 353 318 352 0 255 255 255 
3 346 308 331 0 255 255 255 
3 343 333 351 0 255 255 255 
3 333 337 350 0 255 255 255 
3 350 337 349 0 255 255 255 
3 337 311 349 0 255 255 255 
3 336 326 341 0 255 255 255 
3 338 322 348 0 255 255 255 
3 321 320 347 0 255 255 255 
3 318 308 346 0 255 255 255 
3 330 317 329 0 255 255 255 
3 327 336 345 0 255 255 255 
3 341 315 338 0 255 255 255 
3 318 344 314 0 255 255 255 
3 329 313 334 0 255 255 255 
3 334 333 343 0 255 255 255 
3 333 307 337 0 255 255 255 
3 311 324 342 0 255 255 255 
3 323 336 327 0 255 255 255 
3 336 316 326 0 255 255 255 
3 341 326 315 0 255 255 255 
3 299 340 320 0 255 255 255 
3 340 299 332 0 255 255 255 
3 339 335 319 0 255 255 255 
3 319 292 339 0 255 255 255 
3 339 292 314 0 255 255 255 
3 315 322 338 0 255 255 255 
3 299 298 332 0 255 255 255 
3 335 310 319 0 255 255 255 
3 331 308 309 0 255 255 255 
3 307 311 337 0 255 255 255 
3 336 323 316 0 255 255 255 
3 305 325 322 0 255 255 255 
3 332 310 335 0 255 255 255 
3 330 297 317 0 255 255 255 
3 295 329 317 0 255 255 255 
3 284 313 329 0 255 255 255 
3 307 334 313 0 255 255 255 
3 334 307 333 0 255 255 255 
3 325 287 321 0 255 255 255 
3 332 298 310 0 255 255 255 
3 292 319 285 0 255 255 255 
3 309 297 331 0 255 255 255 
3 331 297 330 0 255 255 255 
3 280 296 317 0 255 255 255 
3 295 284 329 0 255 255 255 
3 328 323 327 0 255 255 255 
3 326 316 312 0 255 255 255 
3 312 315 326 0 255 255 255 
3 305 287 325 0 255 255 255 
3 321 300 320 0 255 255 255 
3 310 293 319 0 255 255 255 
3 292 289 314 0 255 255 255 
3 296 295 317 0 255 255 255 
3 324 311 302 0 255 255 255 
3 323 306 283 0 255 255 255 
3 283 316 323 0 255 255 255 
3 315 305 322 0 255 255 255 
3 287 300 321 0 255 255 255 
3 320 300 299 0 255 255 255 
3 293 285 319 0 255 255 255 
3 314 304 318 0 255 255 255 
3 304 308 318 0 255 255 255 
3 291 309 308 0 255 255 255 
3 297 280 317 0 255 255 255 
3 307 303 311 0 255 255 255 
3 283 312 316 0 255 255 255 
3 315 312 301 0 255 255 255 
3 301 305 315 0 255 255 255 
3 289 304 314 0 255 255 255 
3 290 297 309 0 255 255 255 
3 284 307 313 0 255 255 255 
3 283 301 312 0 255 255 255 
3 271 291 308 0 255 255 255 
3 295 296 288 0 255 255 255 
3 311 303 302 0 255 255 255 
3 305 274 287 0 255 255 255 
3 298 293 310 0 255 255 255 
3 272 289 292 0 255 255 255 
3 291 290 309 0 255 255 255 
3 284 268 307 0 255 255 255 
3 294 293 298 0 255 255 255 
3 285 293 281 0 255 255 255 
3 304 271 308 0 255 255 255 
3 268 303 307 0 255 255 255 
3 250 283 306 0 255 255 255 
3 278 301 283 0 255 255 255 
3 282 305 301 0 255 255 255 
3 305 282 274 0 255 255 255 
3 273 299 300 0 255 255 255 
3 299 277 298 0 255 255 255 
3 294 286 293 0 255 255 255 
3 289 271 304 0 255 255 255 
3 297 290 275 0 255 255 255 
3 279 295 288 0 255 255 255 
3 302 303 268 0 255 255 255 
3 278 282 301 0 255 255 255 
3 300 287 273 0 255 255 255 
3 273 277 299 0 255 255 255 
3 277 294 298 0 255 255 255 
3 275 280 297 0 255 255 255 
3 296 280 288 0 255 255 255 
3 288 266 279 0 255 255 255 
3 279 284 295 0 255 255 255 
3 284 258 268 0 255 255 255 
3 282 278 265 0 255 255 255 
3 294 277 286 0 255 255 255 
3 286 281 293 0 255 255 255 
3 285 272 292 0 255 255 255 
3 289 272 276 0 255 255 255 
3 290 291 267 0 255 255 255 
3 290 267 270 0 255 255 255 
3 270 259 290 0 255 255 255 
3 271 264 291 0 255 255 255 
3 264 267 291 0 255 255 255 
3 267 252 270 0 255 255 255 
3 259 275 290 0 255 255 255 
3 286 260 281 0 255 255 255 
3 285 281 249 0 255 255 255 
3 276 271 289 0 255 255 255 
3 280 263 288 0 255 255 255 
3 263 266 288 0 255 255 255 
3 262 279 266 0 255 255 255 
3 245 278 283 0 255 255 255 
3 274 273 287 0 255 255 255 
3 277 273 255 0 255 255 255 
3 286 277 260 0 255 255 255 
3 249 272 285 0 255 255 255 
3 279 258 284 0 255 255 255 
3 250 245 283 0 255 255 255 
3 265 274 282 0 255 255 255 
3 274 261 273 0 255 255 255 
3 260 254 281 0 255 255 255 
3 254 249 281 0 255 255 255 
3 275 251 263 0 255 255 255 
3 275 263 280 0 255 255 255 
3 262 258 279 0 255 255 255 
3 245 265 278 0 255 255 255 
3 255 260 277 0 255 255 255 
3 272 253 276 0 255 255 255 
3 253 271 276 0 255 255 255 
3 259 251 275 0 255 255 255 
3 266 263 247 0 255 255 255 
3 274 265 261 0 255 255 255 
3 261 255 273 0 255 255 255 
3 249 253 272 0 255 255 255 
3 253 264 271 0 255 255 255 
3 264 257 256 0 255 255 255 
3 256 267 264 0 255 255 255 
3 252 259 270 0 255 255 255 
3 262 237 258 0 255 255 255 
3 258 269 268 0 255 255 255 
3 248 261 265 0 255 255 255 
3 260 244 254 0 255 255 255 
3 256 252 267 0 255 255 255 
3 266 247 240 0 255 255 255 
3 266 240 262 0 255 255 255 
3 245 248 265 0 255 255 255 
3 253 257 264 0 255 255 255 
3 256 243 252 0 255 255 255 
3 259 235 251 0 255 255 255 
3 251 247 263 0 255 255 255 
3 240 237 262 0 255 255 255 
3 248 255 261 0 255 255 255 
3 255 244 260 0 255 255 255 
3 259 252 235 0 255 255 255 
3 237 242 258 0 255 255 255 
3 236 244 255 0 255 255 255 
3 244 232 254 0 255 255 255 
3 257 253 241 0 255 255 255 
3 257 241 239 0 255 255 255 
3 257 239 256 0 255 255 255 
3 256 239 243 0 255 255 255 
3 238 247 251 0 255 255 255 
3 247 230 240 0 255 255 255 
3 248 236 255 0 255 255 255 
3 232 244 228 0 255 255 255 
3 232 249 254 0 255 255 255 
3 249 241 253 0 255 255 255 
3 243 235 252 0 255 255 255 
3 235 238 251 0 255 255 255 
3 237 225 242 0 255 255 255 
3 245 250 246 0 255 255 255 
3 248 245 223 0 255 255 255 
3 232 241 249 0 255 255 255 
3 221 243 239 0 255 255 255 
3 247 238 234 0 255 255 255 
3 247 227 230 0 255 255 255 
3 223 236 248 0 255 255 255 
3 232 222 241 0 255 255 255 
3 241 213 239 0 255 255 255 
3 243 220 235 0 255 255 255 
3 234 227 247 0 255 255 255 
3 246 223 245 0 255 255 255 
3 236 228 244 0 255 255 255 
3 243 221 231 0 255 255 255 
3 231 220 243 0 255 255 255 
3 233 237 240 0 255 255 255 
3 225 214 242 0 255 255 255 
3 228 236 229 0 255 255 255 
3 222 213 241 0 255 255 255 
3 213 216 239 0 255 255 255 
3 238 212 234 0 255 255 255 
3 240 230 233 0 255 255 255 
3 216 221 239 0 255 255 255 
3 238 235 212 0 255 255 255 
3 230 227 226 0 255 255 255 
3 237 233 225 0 255 255 255 
3 223 229 236 0 255 255 255 
3 228 217 232 0 255 255 255 
3 232 211 222 0 255 255 255 
3 234 219 227 0 255 255 255 
3 220 231 215 0 255 255 255 
3 235 220 212 0 255 255 255 
3 234 212 219 0 255 255 255 
3 230 225 233 0 255 255 255 
3 223 207 229 0 255 255 255 
3 207 217 228 0 255 255 255 
3 217 211 232 0 255 255 255 
3 221 215 231 0 255 255 255 
3 215 210 220 0 255 255 255 
3 209 226 227 0 255 255 255 
3 226 218 230 0 255 255 255 
3 225 230 218 0 255 255 255 
3 229 207 228 0 255 255 255 
3 219 209 227 0 255 255 255 
3 226 209 208 0 255 255 255 
3 208 218 226 0 255 255 255 
3 218 214 225 0 255 255 255 
3 224 207 223 0 255 255 255 
3 211 213 222 0 255 255 255 
3 216 215 221 0 255 255 255 
3 210 212 220 0 255 255 255 
3 216 213 202 0 255 255 255 
3 216 201 215 0 255 255 255 
3 204 209 219 0 255 255 255 
3 207 206 217 0 255 255 255 
3 219 212 204 0 255 255 255 
3 203 218 208 0 255 255 255 
3 203 214 218 0 255 255 255 
3 217 206 211 0 255 255 255 
3 202 201 216 0 255 255 255 
3 215 201 205 0 255 255 255 
3 208 209 195 0 255 255 255 
3 206 187 211 0 255 255 255 
3 205 210 215 0 255 255 255 
3 209 204 200 0 255 255 255 
3 203 197 214 0 255 255 255 
3 211 187 190 0 255 255 255 
3 211 202 213 0 255 255 255 
3 210 204 212 0 255 255 255 
3 198 203 208 0 255 255 255 
3 190 202 211 0 255 255 255 
3 210 205 204 0 255 255 255 
3 195 209 200 0 255 255 255 
3 208 195 198 0 255 255 255 
3 207 194 206 0 255 255 255 
3 206 192 187 0 255 255 255 
3 198 193 203 0 255 255 255 
3 206 194 192 0 255 255 255 
3 201 189 205 0 255 255 255 
3 205 189 188 0 255 255 255 
3 204 205 188 0 255 255 255 
3 188 200 204 0 255 255 255 
3 193 197 203 0 255 255 255 
3 202 190 201 0 255 255 255 
3 190 189 201 0 255 255 255 
3 188 195 200 0 255 255 255 
3 197 191 199 0 255 255 255 
3 195 188 185 0 255 255 255 
3 198 195 184 0 255 255 255 
3 184 193 198 0 255 255 255 
3 197 193 182 0 255 255 255 
3 182 191 197 0 255 255 255 
3 196 191 172 0 255 255 255 
3 187 176 190 0 255 255 255 
3 189 175 188 0 255 255 255 
3 195 185 178 0 255 255 255 
3 178 186 195 0 255 255 255 
3 186 184 195 0 255 255 255 
3 180 192 194 0 255 255 255 
3 177 187 192 0 255 255 255 
3 184 182 193 0 255 255 255 
3 192 180 177 0 255 255 255 
3 175 179 188 0 255 255 255 
3 186 173 166 0 255 255 255 
3 186 166 168 0 255 255 255 
3 168 184 186 0 255 255 255 
3 182 172 191 0 255 255 255 
3 176 189 190 0 255 255 255 
3 176 175 189 0 255 255 255 
3 179 185 188 0 255 255 255 
3 172 182 158 0 255 255 255 
3 176 187 177 0 255 255 255 
3 185 160 178 0 255 255 255 
3 178 173 186 0 255 255 255 
3 179 174 185 0 255 255 255 
3 174 160 185 0 255 255 255 
3 168 182 184 0 255 255 255 
3 183 172 167 0 255 255 255 
3 180 164 163 0 255 255 255 
3 180 163 177 0 255 255 255 
3 162 176 177 0 255 255 255 
3 171 159 173 0 255 255 255 
3 166 173 159 0 255 255 255 
3 168 158 182 0 255 255 255 
3 175 170 179 0 255 255 255 
3 178 160 161 0 255 255 255 
3 169 168 166 0 255 255 255 
3 181 164 180 0 255 255 255 
3 162 157 176 0 255 255 255 
3 170 174 179 0 255 255 255 
3 161 173 178 0 255 255 255 
3 172 152 167 0 255 255 255 
3 163 162 177 0 255 255 255 
3 157 175 176 0 255 255 255 
3 175 157 170 0 255 255 255 
3 160 174 170 0 255 255 255 
3 161 171 173 0 255 255 255 
3 166 154 169 0 255 255 255 
3 158 152 172 0 255 255 255 
3 156 160 170 0 255 255 255 
3 161 159 171 0 255 255 255 
3 169 154 144 0 255 255 255 
3 168 153 158 0 255 255 255 
3 157 156 170 0 255 255 255 
3 161 150 159 0 255 255 255 
3 149 144 154 0 255 255 255 
3 169 144 153 0 255 255 255 
3 168 169 153 0 255 255 255 
3 152 151 167 0 255 255 255 
3 163 164 148 0 255 255 255 
3 157 162 147 0 255 255 255 
3 155 161 160 0 255 255 255 
3 159 154 166 0 255 255 255 
3 164 165 148 0 255 255 255 
3 163 148 162 0 255 255 255 
3 148 147 162 0 255 255 255 
3 160 145 155 0 255 255 255 
3 155 150 161 0 255 255 255 
3 143 142 156 0 255 255 255 
3 156 145 160 0 255 255 255 
3 159 150 154 0 255 255 255 
3 158 153 152 0 255 255 255 
3 148 139 147 0 255 255 255 
3 157 147 143 0 255 255 255 
3 143 156 157 0 255 255 255 
3 142 145 156 0 255 255 255 
3 150 155 145 0 255 255 255 
3 150 149 154 0 255 255 255 
3 153 144 146 0 255 255 255 
3 146 152 153 0 255 255 255 
3 152 146 151 0 255 255 255 
3 150 145 133 0 255 255 255 
3 133 141 150 0 255 255 255 
3 149 150 141 0 255 255 255 
3 141 144 149 0 255 255 255 
3 148 140 139 0 255 255 255 
3 136 145 142 0 255 255 255 
3 141 133 135 0 255 255 255 
3 139 143 147 0 255 255 255 
3 141 138 144 0 255 255 255 
3 144 137 146 0 255 255 255 
3 134 142 143 0 255 255 255 
3 136 133 145 0 255 255 255 
3 141 129 138 0 255 255 255 
3 138 137 144 0 255 255 255 
3 134 143 139 0 255 255 255 
3 134 136 142 0 255 255 255 
3 127 139 125 0 255 255 255 
3 136 134 131 0 255 255 255 
3 141 135 129 0 255 255 255 
3 140 125 139 0 255 255 255 
3 138 128 132 0 255 255 255 
3 127 134 139 0 255 255 255 
3 138 129 128 0 255 255 255 
3 138 132 137 0 255 255 255 
3 131 133 136 0 255 255 255 
3 135 133 130 0 255 255 255 
3 130 129 135 0 255 255 255 
3 127 126 134 0 255 255 255 
3 134 126 131 0 255 255 255 
3 126 123 131 0 255 255 255 
3 131 130 133 0 255 255 255 
3 128 124 132 0 255 255 255 
3 123 130 131 0 255 255 255 
3 129 130 123 0 255 255 255 
3 123 128 129 0 255 255 255 
3 118 126 127 0 255 255 255 
3 123 124 128 0 255 255 255 
3 127 125 118 0 255 255 255 
3 126 118 121 0 255 255 255 
3 121 123 126 0 255 255 255 
3 119 118 125 0 255 255 255 
3 122 124 123 0 255 255 255 
3 121 118 120 0 255 255 255 
3 123 121 122 0 255 255 255 
3 120 122 121 0 255 255 255 
3 119 120 118 0 255 255 255 
