ply
format ascii 1.0
comment VCGLIB generated
element vertex 392
property float x
property float y
property float z
property float nx
property float ny
property float nz
element face 780
property list uchar int vertex_indices
property uchar red
property uchar green
property uchar blue
property uchar alpha
end_header
-0.5849797 -2.389994 18.97482 0.1822729 -0.860674 -0.4754125 
-0.3662837 -1.843265 17.97725 0.4591278 -0.8391861 -0.2914934 
1.882347 3.989785 19.13422 0.993705 -0.01458434 0.1110749 
-1.110459 -1.028559 13.7801 -0.3336842 -0.914632 -0.2282615 
-0.2567346 -1.414225 16.22514 0.319527 -0.9449908 -0.06996468 
1.45541 -0.07234044 16.70683 0.8209225 -0.5665156 -0.07173792 
-0.8558267 -2.168931 18.25763 0.1803689 -0.9284065 -0.3248515 
0.05650629 -2.334822 19.14483 0.2599874 -0.7662278 -0.5876237 
0.9018044 -0.5569281 15.75356 0.7660449 -0.6390052 -0.06962448 
1.52655 0.5458267 15.82923 0.9810836 -0.1109337 -0.1586466 
-1.300119 -1.680499 16.62216 -0.1869655 -0.9256222 -0.3290401 
0.9182361 -0.4407096 14.47438 0.7067512 -0.6888919 -0.1610302 
-0.2850745 -1.636778 17.40888 0.4419517 -0.871959 -0.2106331 
1.730541 0.4332615 17.25402 0.9527988 -0.2181156 -0.2111872 
0.5527769 -1.047145 16.89363 0.6254646 -0.7697198 -0.1277709 
0.2819099 -1.177502 16.22613 0.5240374 -0.850333 -0.04815214 
-0.6866421 -1.675606 16.81671 0.2743365 -0.9266802 -0.256911 
-1.687567 -1.847239 17.5643 -0.4353155 -0.8532603 -0.2871364 
1.207176 -0.4667065 17.16775 0.7466052 -0.6410757 -0.1777716 
1.660181 0.3629718 16.75412 0.9591601 -0.2828616 0.001108163 
0.3592974 -1.602224 18.45999 0.4559488 -0.7569909 -0.468055 
-1.179694 -2.409627 18.79434 -0.06249733 -0.92436 -0.3763677 
-0.2503661 -2.031755 18.584 0.3785495 -0.8079925 -0.4514959 
0.2889352 -1.432631 17.95321 0.5035661 -0.8281892 -0.246016 
1.531732 -0.03117544 17.20039 0.8723275 -0.4530008 -0.1839431 
1.775766 1.372429 16.82377 0.9831764 -0.05117844 -0.1753426 
1.917843 3.517066 19.14663 0.9972854 0.05464266 0.0493563 
2.001193 1.82248 18.6474 0.9925691 0.1157468 -0.03753947 
-0.9157673 -1.549114 16.17669 -0.006487786 -0.9816132 -0.1907705 
1.62085 -0.2756924 17.90773 0.7666902 -0.4553026 -0.4526432 
-2.823866 -0.9679421 17.07723 -0.6599032 -0.7224033 -0.2065459 
-2.791445 -1.169313 18.60916 -0.8460705 -0.5315537 -0.04019188 
-1.847169 -1.426972 16.29524 -0.3723961 -0.9005617 -0.2242985 
-1.813766 -1.998329 18.23223 -0.3811765 -0.8838395 -0.2711683 
-3.262927 -0.2183718 15.55051 -0.8558316 -0.5068164 -0.1033895 
-2.111513 -1.477976 17.06613 -0.4634444 -0.8481309 -0.2566969 
-3.137832 -0.4383765 16.50162 -0.8389177 -0.5401562 -0.06669561 
-3.364287 0.1790232 16.83191 -0.9919766 -0.09857319 0.07915642 
-3.423026 0.6373728 15.76251 -0.9886181 -0.1309223 -0.07411812 
-3.555309 3.417352 17.98141 -0.9301853 -0.02697878 -0.3660976 
-3.571442 4.227867 17.84933 -0.8811742 -0.1823011 -0.4362321 
-3.349192 -0.03103955 17.89716 -0.9869733 -0.126466 -0.099449 
-2.359942 -1.787573 18.85199 -0.6820813 -0.7105088 -0.1730385 
-3.189948 -0.6462953 17.87936 -0.8863674 -0.4598868 0.05345038 
-3.323708 0.3805756 17.40088 -0.9991999 -0.03210292 -0.02385421 
-2.310459 -0.8696126 15.12313 -0.5020091 -0.8346683 -0.2265297 
-0.0067385 -1.412292 16.8789 0.4472328 -0.8832429 -0.1409428 
-2.939651 -0.3944889 14.8094 -0.5843078 -0.703161 -0.4051529 
-0.1664522 -1.226836 14.75712 0.3437694 -0.9076753 -0.2407245 
-1.766691 -0.9089187 14.19633 -0.397949 -0.8563163 -0.3291791 
0.6784061 -0.8023681 15.2777 0.6720969 -0.7329779 -0.1050198 
-0.5540861 -1.143999 13.94888 0.1249242 -0.9738232 -0.1899009 
1.124892 -0.4787469 16.68052 0.7376118 -0.6658887 -0.1118972 
0.4207361 -0.812502 14.32154 0.5861816 -0.754478 -0.295219 
1.961838 3.30809 18.43702 0.997656 0.03552932 -0.05848325 
1.151222 -0.2227358 15.06799 0.8150171 -0.5706388 -0.1005914 
1.6717 0.805227 16.31799 0.979314 0.01075409 -0.2020609 
1.578624 -0.7431608 18.21198 0.5907724 -0.6085815 -0.5297325 
-1.117199 -1.287772 14.68371 -0.1904584 -0.9461314 -0.2618414 
1.326841 -0.02947178 15.80331 0.8318993 -0.5377003 -0.1371932 
2.002795 0.1294833 18.24782 0.9444835 0.002789454 -0.3285469 
1.266079 -1.043706 18.37237 0.4662267 -0.8088309 -0.3583649 
0.7905163 -1.741595 19.10767 0.3872075 -0.5362969 -0.7499707 
1.039323 -1.342285 18.84277 0.5245783 -0.6984761 -0.4867739 
0.964903 -0.8901973 17.62233 0.6259103 -0.7056856 -0.3320306 
1.709607 0.292901 16.23957 0.9619793 -0.230009 -0.1472809 
1.70812 0.5722217 16.54 0.9989402 -0.04440516 -0.01211674 
1.739203 0.82719 16.8224 0.9863587 -0.09986193 -0.1308594 
1.920687 0.50377 17.73927 0.9183568 -0.2396901 -0.3149117 
1.995897 1.020627 17.96667 0.9883925 -0.05110813 -0.143067 
1.913733 1.663467 17.4353 0.9836879 0.08788622 -0.1569527 
1.9516 1.92471 17.7758 0.8968405 0.2641621 -0.3548177 
1.935017 2.152377 17.9692 0.8479539 0.3045673 -0.4338351 
1.98443 2.48186 18.1901 0.978718 0.07699689 -0.1902171 
2.023223 2.751513 18.83997 0.9885831 -0.14576 -0.03817772 
1.92609 3.773947 18.5733 0.9997254 0.01829866 0.01463899 
1.948847 4.1006 18.69833 0.9864798 -0.1634446 0.011982 
1.978747 4.430837 18.85013 0.9923962 -0.07846939 -0.09482894 
1.916643 4.67512 19.31677 0.9709316 -0.03123833 0.2373097 
0.7001663 -0.8389443 16.17967 0.6846225 -0.7262144 -0.06248749 
0.1523018 -1.281269 15.61983 0.4995548 -0.863302 -0.07179552 
-0.5788148 -1.529892 15.34033 0.09918264 -0.9846544 -0.1435917 
-1.13742 -2.06541 17.39453 0.06734953 -0.954639 -0.290049 
-1.762183 -1.300664 15.5157 -0.3303111 -0.9209306 -0.2068365 
-2.641903 -0.9148417 15.9755 -0.6055888 -0.7756887 -0.1776777 
-2.555217 -1.453678 17.82837 -0.6125914 -0.770581 -0.1758884 
-2.897647 -1.106091 17.75503 -0.7737275 -0.6305767 -0.0609815 
-3.274477 -0.535307 17.42783 -0.9308553 -0.3599918 -0.06256399 
-3.497117 0.1350193 16.10153 -0.9859267 -0.1661948 0.0181087 
-3.389893 0.4932037 16.54707 -0.9885883 0.1154316 0.09679175 
-3.321267 0.9373573 16.96637 -0.9993743 0.0345915 -0.007380265 
-3.37538 0.7396764 17.80843 -0.9911171 -0.04466308 -0.1252683 
-3.36161 1.818782 17.31717 -0.9855558 -0.0393438 -0.1647179 
-3.497873 1.756889 17.99587 -0.9686356 -0.1092504 -0.2231803 
-3.491877 2.885017 17.66123 -0.9718444 0.008113064 -0.2354841 
-3.625013 2.76682 18.21437 -0.9557756 -0.03633117 -0.2918444 
-3.782457 4.06234 18.269 -0.9253041 -0.09840292 -0.3662367 
-3.73509 4.628284 18.0408 -0.8559208 0.04368181 -0.5152588 
1.18275 -0.286891 14.0336 0.8055793 -0.4504729 -0.3848585 
0.387326 -0.378109 13.8828 0.4580067 0.2461465 -0.8541907 
1.15638 0.0481044 14.4696 0.7324004 0.2695413 -0.6252497 
1.30155 0.59345 14.9754 0.3147516 0.6206186 -0.7181671 
1.57075 0.457628 14.9907 0.9376433 -0.05467181 -0.3432725 
0.767447 0.486239 14.7025 0.2764834 0.5950138 -0.7546626 
1.58111 0.861725 15.3664 0.7717876 0.4541586 -0.4450661 
-1.0106 -1.03276 13.1951 -0.2542117 -0.337951 -0.9061819 
-0.793881 -0.420526 13.6015 -0.0241368 0.6015819 -0.7984464 
-0.0728435 -0.869346 13.3112 0.4772329 -0.1099932 -0.871866 
-0.243603 -0.434461 13.6392 0.1641088 0.6153499 -0.7709817 
0.28053 -0.113574 14.0546 0.2716146 0.5846248 -0.7644864 
0.420024 1.15137 15.084 0.2773244 0.611348 -0.741178 
0.959939 1.46828 15.6359 0.3864071 0.6468278 -0.6574978 
-1.21844 -0.642701 13.5065 -0.1416352 0.58504 -0.798541 
0.303191 0.468461 14.4966 0.2492204 0.5962095 -0.7631667 
1.56629 1.29559 15.892 0.7631667 0.4117464 -0.4980377 
-0.599238 0.123363 14.0455 0.05987799 0.6102321 -0.7899566 
-1.77189 -0.57765 13.6414 -0.4385337 -0.1098009 -0.8919821 
0.0414685 1.67748 15.3941 0.2646991 0.6625826 -0.7006559 
-0.219322 0.651283 14.5224 0.1875213 0.5989367 -0.7785311 
0.781204 1.90908 15.9667 0.3794307 0.6175476 -0.688961 
-1.08434 -0.0314028 13.9393 -0.08368121 0.6137763 -0.7850326 
1.60562 1.84788 16.4785 0.2585443 0.7148307 -0.6497476 
-1.54038 -0.193771 13.8585 -0.1924378 0.5794866 -0.7919363 
-0.32297 1.35258 14.9866 0.1134319 0.6476368 -0.7534585 
0.681255 2.71041 16.6311 0.300688 0.6107311 -0.7325259 
1.67436 1.62663 16.2136 0.7677708 0.3743063 -0.520022 
-1.98169 -0.27341 13.9785 -0.1917754 0.6436043 -0.7409425 
1.27003 2.19975 16.5423 0.510682 0.573118 -0.6408898 
-1.42071 0.274156 14.2464 -0.1533763 0.6296078 -0.7616231 
-0.868951 0.952555 14.6699 -0.09388497 0.6243088 -0.7755154 
-0.288287 2.33594 15.9992 0.09360979 0.7198287 -0.687811 
-0.73674 1.44958 15.0813 -0.07435931 0.6822225 -0.7273536 
1.30216 2.99231 17.1781 0.5294377 0.4674165 -0.7079672 
1.78796 2.41036 17.2351 0.7886541 0.4480596 -0.4210312 
1.86425 2.25385 17.0485 0.822781 0.436556 -0.3639373 
-2.52729 -0.393332 13.8782 -0.6273904 -0.3177226 -0.7109386 
-2.05605 0.23656 14.3605 -0.262739 0.5960929 -0.7587104 
-3.00032 0.155776 14.6442 -0.2683229 0.5528914 -0.7888687 
-2.77979 0.272262 14.7002 -0.3675415 0.616198 -0.6965725 
-1.6961 0.751011 14.6894 -0.2101244 0.6224518 -0.7539241 
-0.729786 2.18232 15.8333 -0.03603731 0.7304906 -0.6819713 
0.219343 3.01703 16.7939 0.1380514 0.6578937 -0.7403497 
0.990407 3.36355 17.2425 0.2490912 0.5098631 -0.8234035 
1.15702 3.09729 17.1477 0.4185045 0.466469 -0.7792693 
-1.39752 1.4413 15.1967 -0.2075542 0.6677978 -0.7148198 
-0.29766 2.90476 16.6347 -0.008868876 0.7192396 -0.6947055 
-2.74192 0.739775 15.0475 -0.3929823 0.6258496 -0.6737042 
-1.25082 1.84834 15.5508 -0.15797 0.7107317 -0.6854969 
-2.14133 0.986102 15.0275 -0.2838616 0.6539159 -0.7012964 
0.358608 3.41867 17.1345 0.04079251 0.6079383 -0.7929357 
1.8145 2.93685 17.6287 0.8483295 0.2055332 -0.4879479 
-2.97521 0.674178 15.1851 -0.5241249 0.6044604 -0.599934 
-1.03446 2.59672 16.3297 -0.1285688 0.7406563 -0.6594683 
-2.05172 2.04148 16.0465 -0.2819332 0.6762323 -0.6806052 
-1.50943 2.18863 16.0069 -0.2272412 0.7114615 -0.6649691 
-0.666485 3.33139 17.0634 -0.0502965 0.655972 -0.7531076 
1.46885 3.69736 17.6461 0.5576811 0.3092728 -0.7702872 
-2.45283 1.86523 16.0881 -0.4066267 0.6347814 -0.6570444 
-1.44322 2.94955 16.8044 -0.1079821 0.6865128 -0.7190549 
-3.25718 0.553314 15.313 -0.6317595 0.5260599 -0.5693337 
-0.617536 3.69772 17.3624 -0.03966786 0.5630102 -0.8254975 
-1.79988 2.43813 16.3725 -0.206417 0.6984028 -0.6852923 
0.654685 4.15624 17.623 -0.0001436934 0.4737033 -0.8806845 
1.75609 3.79187 18.018 0.586151 0.294257 -0.7548774 
1.9362 3.39881 17.8978 0.8753604 0.1754799 -0.4505009 
-3.64976 0.124707 14.5745 -0.7705203 -0.05452722 -0.635079 
-3.20162 1.05675 15.8368 -0.1053914 0.6937754 -0.7124383 
0.429271 3.85426 17.4441 -0.06492151 0.5638099 -0.823349 
1.1001 4.33216 17.7086 0.2158362 0.3538028 -0.910076 
1.39757 4.93633 18.0045 0.3707918 0.2939959 -0.880954 
1.63627 3.95775 17.8832 0.7817847 0.1606357 -0.6025022 
1.91119 4.17722 18.2438 0.7674729 0.10489 -0.6324424 
-2.82601 1.29897 15.7788 -0.5029602 0.6437522 -0.5767271 
-1.83701 3.37549 17.2051 -0.07776394 0.5974581 -0.7981207 
-1.23453 3.72658 17.4439 -0.05029595 0.5843981 -0.8099069 
-1.9885 2.90998 16.8604 -0.1725742 0.628709 -0.7582501 
-2.68212 2.28145 16.5383 -0.3042464 0.5891697 -0.7485407 
-1.24909 4.0615 17.6528 -0.02568825 0.4776904 -0.8781526 
-0.169358 4.47891 17.8174 -0.04501896 0.4465057 -0.8936476 
1.78817 4.54758 18.3182 0.6472548 0.2640715 -0.7150717 
-3.44387 0.577839 15.2749 -0.403185 0.3548742 -0.8435083 
-3.11115 1.43519 16.1501 -0.3497078 0.6087355 -0.7121415 
1.13066 4.88104 17.9156 0.05961145 0.3344601 -0.9405227 
1.5697 5.37791 18.2625 0.6772741 0.2499282 -0.6919796 
-3.2367 2.39019 16.7865 0.07515023 0.5388501 -0.839043 
-3.32809 1.19926 15.9111 -0.8380821 0.4444167 -0.3164052 
-2.40969 3.32301 17.2584 -0.1223272 0.5467418 -0.8283172 
-2.15187 3.83481 17.5517 -0.05550512 0.4902292 -0.8698244 
-0.967891 4.5717 17.8939 -0.02281592 0.3988318 -0.9167402 
-3.23799 1.9103 16.5328 -0.4853472 0.4748864 -0.7341124 
-0.128489 5.37814 18.1992 -0.04898359 0.4023022 -0.9141956 
-3.20714 2.89898 17.1167 0.2151509 0.5037308 -0.8366394 
-2.6603 3.87545 17.5983 -0.0585834 0.4509203 -0.8906396 
0.811483 5.40341 18.1076 -0.1315624 0.3624705 -0.9226627 
1.32783 5.74691 18.2453 0.3802041 0.3609135 -0.8515787 
1.69376 5.71536 18.5729 0.9073694 0.2544145 -0.3345954 
1.84521 5.23842 18.6908 0.6094172 0.4702487 -0.6383391 
2.00447 4.37877 18.2729 0.8392395 0.08021078 -0.5378134 
-1.03036 5.17738 18.1345 -0.008698234 0.3735192 -0.9275817 
1.09379 5.81956 18.2021 0.04845523 0.4641314 -0.88444 
-2.51972 4.28863 17.765 0.02253043 0.3747205 -0.926864 
-1.88183 5.05564 18.1132 -0.02211099 0.4054127 -0.9138663 
0.43198 5.64823 18.2964 -0.1596031 0.448707 -0.8793116 
1.7628 5.30275 18.6343 0.87265 0.3196149 -0.3692268 
-2.19569 4.63166 17.9159 0.05512962 0.4036869 -0.9132347 
-3.23051 3.3305 17.3674 0.2544164 0.4079171 -0.8768557 
1.54987 5.93337 18.4822 0.5512562 0.6245328 -0.553241 
-2.97054 4.56039 17.8184 0.04459909 0.3540542 -0.9341609 
-0.577571 6.00184 18.4851 0.01926073 0.3605866 -0.9325269 
0.371828 6.22126 18.5834 -0.01200711 0.6385335 -0.7695004 
1.88892 5.38516 19.1686 0.927305 0.3727882 -0.03367999 
2.00089 5.16793 18.6992 0.8888449 0.2811757 -0.3617941 
-3.35641 2.93983 16.9814 -0.08330833 0.4346285 -0.8967485 
-3.35719 3.99404 17.6031 -0.5121983 0.09790339 -0.8532689 
-2.35459 5.26099 18.2071 0.1041384 0.3907947 -0.9145681 
-1.05453 6.06705 18.4833 -0.02600235 0.4287226 -0.9030619 
-2.70303 5.2059 18.1133 0.190219 0.372716 -0.9082398 
0.956528 6.11289 18.4191 0.09286401 0.7510837 -0.6536434 
1.22464 6.14483 18.709 0.4217351 0.9066656 0.009853366 
1.6528 5.92187 18.8209 0.7081437 0.6975557 0.1093103 
-1.85583 5.95781 18.5299 -0.09077295 0.6100656 -0.7871343 
-0.398399 6.14869 18.5216 0.008250725 0.3585463 -0.9334755 
-3.45943 4.63066 17.8456 -0.1552242 0.3618953 -0.9192047 
-2.1635 5.77209 18.4247 0.07362494 0.53819 -0.8396016 
-3.04404 5.31015 18.0554 0.03765909 0.3545744 -0.9342691 
-2.74182 5.76781 18.3232 0.1487188 0.5281158 -0.8360481 
0.902806 6.28244 18.7451 0.1946611 0.9693621 -0.1498138 
1.82513 5.45907 19.4018 0.7871887 0.4547723 0.4165526 
-3.47244 3.9906 17.4334 -0.7151057 -0.2701228 -0.6447151 
-3.49159 5.04873 18.0719 -0.1072945 0.4899915 -0.865099 
-1.07569 6.24705 18.5861 -0.0908391 0.7493169 -0.6559515 
1.62001 5.63072 19.493 0.566582 0.605419 0.5589746 
-0.339988 6.35892 18.8696 -0.05023954 0.9948865 -0.08761831 
1.34652 5.76094 19.4571 0.5178266 0.8173766 0.2524901 
1.73066 5.41718 19.5133 0.4246002 0.4347579 0.7941664 
-2.50735 5.90191 18.5488 -0.05829241 0.8863592 -0.459314 
0.335526 6.34437 19.1246 0.1631733 0.9865072 0.0133445 
-3.67476 5.07083 17.9953 -0.4971381 0.4111315 -0.7640842 
0.864998 6.15166 19.2834 0.4567493 0.8815023 0.1197244 
-3.22003 5.70309 18.2391 -0.3204525 0.5556157 -0.7672037 
1.81816 5.11162 19.6728 0.7016908 0.193829 0.6856095 
-1.58112 6.13429 18.7878 -0.2083498 0.9776852 0.02687498 
1.2809 5.71056 19.7736 0.5920507 0.4354361 0.6781381 
1.65991 5.11223 19.6702 0.4074105 0.1057623 0.9071004 
-3.4141 5.50277 18.2818 -0.4662231 0.3464814 -0.8139943 
-3.05796 5.80918 18.3143 -0.1715739 0.9150251 -0.3650912 
-3.73968 5.39465 18.3941 -0.6193115 0.6208769 -0.4805884 
-0.134448 6.34262 19.1167 -0.1296044 0.9804322 0.1481737 
0.527077 6.32563 19.8258 -0.01553764 0.8228794 0.5680035 
0.845659 6.23198 19.7906 0.5399347 0.812556 0.2195979 
-2.94999 5.82339 18.7006 -0.3186989 0.9311382 0.1772366 
-3.42614 5.66328 18.5084 -0.5040413 0.8635285 -0.01615564 
-2.40215 5.87959 19.108 -0.2608248 0.9325301 0.249716 
1.3346 5.03538 19.9016 0.4382916 0.01824862 0.8986475 
0.828525 5.30909 20.0474 0.2682483 0.0831661 0.9597532 
-1.86521 5.89232 19.5732 -0.2551338 0.8644716 0.433123 
-0.643434 6.10708 19.7433 -0.1904124 0.9042091 0.3822945 
-0.10863 6.23941 19.7037 -0.1255507 0.8244563 0.5518233 
-3.70161 5.39138 18.852 -0.6199853 0.7333733 0.2788942 
-2.54546 5.76146 19.3195 -0.3553576 0.854471 0.3789463 
0.814349 6.05894 19.9847 0.3026624 0.3862059 0.8713441 
1.78035 4.35169 19.5577 0.5156832 -0.1166724 0.8487982 
1.45757 3.44902 19.6066 0.6286141 -0.09195543 0.7722619 
1.62713 4.12871 19.5558 0.454208 -0.1422955 0.8794584 
-3.24333 5.57302 18.9956 -0.4192695 0.8314264 0.3646137 
0.564794 5.84741 20.0398 -0.01761544 0.1889261 0.9818333 
0.513416 4.21382 20.1261 0.1659302 -0.01406582 0.9860372 
1.01237 4.07112 19.9501 0.4167499 -0.04624134 0.9078443 
-3.85855 5.1351 18.6696 -0.9455552 0.3060892 0.1106107 
-3.14639 5.37535 19.4847 -0.404519 0.8141214 0.4166182 
-2.56083 5.45931 19.8468 -0.3002662 0.7485274 0.591225 
-0.386323 6.03806 19.9023 -0.01734967 0.5212799 0.8532094 
1.72362 3.74723 19.4287 0.08108019 -0.215181 0.9732025 
-1.14422 5.86978 19.9463 -0.1634253 0.5640386 0.809415 
1.93088 3.74581 19.5783 0.763721 -0.05696429 0.6430282 
0.241896 4.92262 20.1128 -0.05902249 0.05945595 0.9964845 
-3.552 5.14174 19.5622 -0.7692497 0.4453451 0.4581732 
-0.128684 5.92353 19.9194 -0.05690742 0.2998582 0.9522849 
-1.85776 5.61166 19.8885 -0.1446303 0.4188208 0.8964772 
0.620743 3.86874 20.078 0.2106902 -0.02031726 0.9773418 
0.782132 2.83208 20.0166 0.3293548 -0.02246901 0.9439389 
1.06831 2.61805 19.8676 0.576048 -0.05031369 0.815866 
-3.85806 4.78163 18.7852 -0.8215753 0.001522369 0.570098 
-4.05807 4.82342 18.6937 -0.9250779 0.1211469 0.3599367 
-3.29476 5.11245 19.8556 -0.4496441 0.3851789 0.8058892 
1.3954 2.97046 19.6285 0.696909 -0.07819645 0.7128838 
-3.74065 4.91638 19.2158 -0.9420854 0.03916644 0.3330783 
0.265342 3.49798 20.1001 0.02642973 0.002717505 0.999647 
1.7104 2.99588 19.2701 0.5070881 -0.1684699 0.845269 
1.89656 3.03144 19.2883 0.3903046 -0.1814131 0.9026359 
-3.84482 4.17573 18.7175 -0.9480183 -0.1088506 0.2990201 
-2.68326 5.25881 19.9747 -0.134308 0.3047935 0.942901 
-0.405183 4.70466 20.0653 -0.03832544 0.08514646 0.9956311 
-3.53466 4.67823 19.666 -0.7596526 -0.01070469 0.650241 
-0.749089 5.23819 20.0223 -0.02674618 0.1028273 0.9943396 
-0.326551 3.95392 20.108 -0.01093872 0.03232698 0.9994175 
-3.69113 4.03258 19.15 -0.9595709 -0.07795156 0.2704576 
0.226606 2.51286 20.1468 0.1214419 0.007794549 0.992568 
1.32096 2.03287 19.5699 0.6996851 -0.08802724 0.7090078 
-3.57739 3.95816 19.4874 -0.8927389 -0.07819259 0.4437379 
-2.79893 4.77984 19.9792 -0.1286005 0.04558876 0.9906481 
-0.460241 2.77999 20.1495 0.01267213 0.04356578 0.9989702 
1.84939 2.43281 19.1226 0.3067583 -0.3727838 0.8757463 
1.74868 2.22535 19.0756 0.4908421 -0.1858868 0.8511875 
-3.68498 3.03299 18.7882 -0.8791401 -0.1080128 0.4641615 
-1.80465 4.85825 19.9874 -0.01927964 0.09928516 0.9948723 
-1.07094 3.87481 20.1081 -0.01441685 0.06971513 0.9974627 
0.850504 1.65059 19.9594 0.5015247 -0.06975851 0.8623264 
1.57017 1.51356 19.2285 0.7827746 -0.09062429 0.6156715 
0.587906 1.3523 20.0264 0.2975003 -0.05482792 0.9531461 
2.01214 2.37761 19.2261 0.6012119 -0.739026 0.303949 
-3.03148 3.72447 19.9278 -0.4018328 -0.002682768 0.9157091 
-1.80474 4.22499 20.0667 -0.03135607 0.1029448 0.9941927 
-3.81686 3.373 18.6799 -0.9961579 -0.08047775 0.03453531 
-0.551343 1.72825 20.2052 0.0331578 0.006474746 0.9994292 
-0.0118477 1.04782 20.1508 0.1439218 -0.03982757 0.9887874 
1.07924 0.460022 19.6262 0.6752334 -0.1117379 0.7290916 
-3.56448 3.01721 19.3385 -0.907113 -0.1270653 0.4012485 
0.304777 0.835325 20.0773 0.2201085 -0.06478254 0.9733219 
0.897116 0.989538 19.8441 0.5552856 -0.09931082 0.825709 
1.80601 1.45561 18.8787 0.43388 -0.1910356 0.8804848 
-1.99948 3.6496 20.1159 -0.04569124 0.04803467 0.9978001 
-3.20756 2.70293 19.7677 -0.736456 -0.1240183 0.6650202 
-2.51943 3.81494 20.0568 -0.1570761 0.03380219 0.9870079 
-0.996596 1.6926 20.2085 -0.01491568 0.02359713 0.9996103 
1.94984 1.23141 18.8447 -0.4103664 -0.2056427 0.8884315 
2.20259 1.10992 19.0438 0.7894885 -0.188297 0.5841679 
-0.721276 0.61975 20.1911 0.03200914 -0.05829905 0.9977859 
0.502182 -0.156491 19.9457 0.3880651 -0.1327592 0.91202 
-3.75582 2.58524 18.6408 -0.9669698 -0.1124193 0.2287603 
-3.17142 3.33479 19.8526 -0.61966 -0.01220702 0.7847754 
-1.15586 1.09174 20.2002 -0.04358773 -0.01474323 0.9989409 
-0.216857 -0.360698 20.072 0.1294561 -0.1362642 0.9821778 
1.45814 0.269485 19.1816 0.8146929 -0.1096748 0.569427 
-2.67631 2.41025 20.0162 -0.3786891 -0.08389153 0.9217141 
1.74788 0.37908 18.7002 0.6957179 -0.1381424 0.7049066 
-2.17544 2.43196 20.1265 -0.146685 -0.01784778 0.9890223 
-0.646984 -0.354302 20.0956 0.01665189 -0.148281 0.9888051 
1.87361 0.570113 18.6835 0.5065095 -0.1510842 0.8488944 
-3.34506 1.61434 19.2171 -0.9219096 -0.1874111 0.3390572 
-3.2535 1.89045 19.4735 -0.7953118 -0.1691199 0.582132 
1.5572 -0.283166 18.8844 0.8506461 -0.1154204 0.5129127 
-1.39558 0.161317 20.1444 -0.1331925 -0.111549 0.9847927 
0.034308 -1.11834 19.8695 0.2228235 -0.2199035 0.9497327 
-3.57786 2.07845 18.7132 -0.8134163 -0.1655074 0.557639 
-3.64678 1.72462 18.5689 -0.9391494 -0.2114456 0.2707199 
-3.0949 2.02574 19.6931 -0.6370841 -0.1633605 0.7532843 
1.37451 -0.345471 19.1743 0.7691891 -0.1392928 0.6236551 
1.72794 -0.415217 18.5824 0.690014 -0.02570446 0.7233394 
-1.0208 -0.476329 20.0712 -0.08573195 -0.1921196 0.9776196 
0.711714 -0.73164 19.7049 0.5413217 -0.1947198 0.8179579 
1.16931 -1.36158 19.1595 0.5637999 -0.03748133 0.8250605 
1.97696 -0.44065 18.3616 0.9283553 -0.3615661 0.0861764 
-2.06668 1.10723 20.0727 -0.2575479 -0.08875595 0.9621806 
-1.79986 0.465716 20.0783 -0.2842098 -0.1219951 0.950969 
-3.33851 1.07166 18.7755 -0.9053445 -0.1924132 0.3785876 
-0.630425 -2.09722 19.7192 0.05557102 -0.2571543 0.9647713 
0.324999 -1.84566 19.599 0.3644775 -0.3261904 0.8722133 
-0.29363 -1.91455 19.7323 0.1996224 -0.2959783 0.9341027 
-1.5806 -1.30479 19.7959 -0.2140211 -0.203225 0.9554552 
1.46877 -0.784674 18.9099 0.729046 0.0251785 0.6840014 
-3.48695 1.22063 18.5861 -0.938705 -0.1642399 0.3030812 
-2.93705 0.424276 19.4943 -0.8012475 -0.2052992 0.5620096 
-2.90845 0.987499 19.6619 -0.6151685 -0.1573926 0.7725253 
-1.80776 -0.319921 19.9612 -0.3011933 -0.177689 0.9368614 
-3.12969 0.36544 18.9658 -0.9190072 -0.2076781 0.3351055 
-2.38293 0.435548 19.871 -0.4085587 -0.152683 0.8998709 
0.89152 -1.78814 19.2669 0.426374 -0.1928287 0.8837547 
1.79401 -0.898635 18.652 0.8873359 -0.4047492 0.220937 
-3.2091 0.174548 18.66 -0.8207973 -0.1420392 0.5532781 
1.54737 -1.12332 18.9344 0.7759317 -0.6233761 0.09660485 
2.11074 0.32533 18.6426 0.9719231 0.1719701 0.1605979 
-3.49043 0.606217 18.4373 -0.9772591 -0.07137322 0.1996761 
-1.40139 -2.21056 19.656 -0.1782364 -0.2677049 0.9468716 
-2.77476 -0.616077 19.291 -0.8263759 -0.2005676 0.5261896 
-2.26302 -0.600866 19.7104 -0.4290106 -0.1877524 0.8835717 
1.23054 -1.63858 19.1563 0.602753 -0.1051858 0.7909644 
0.19062 -2.13618 19.4986 0.3766911 -0.3959596 0.8374485 
-2.5204 -0.422111 19.6094 -0.5688081 -0.2028704 0.7970577 
-2.04159 -1.51838 19.622 -0.3902406 -0.1858405 0.9017625 
-3.39772 -0.297488 18.4552 -0.9187415 -0.2589017 0.2981341 
-0.132487 -2.50282 19.4998 0.2121202 -0.1568839 0.9645686 
0.744764 -2.24411 19.3044 0.6537619 -0.7516654 0.08714678 
-0.324879 -2.7286 19.5461 0.2377726 -0.9606004 0.1439138 
-2.26723 -2.00984 19.4368 -0.5916592 -0.4094671 0.694461 
-1.74866 -2.4759 19.4738 -0.4563515 -0.8730799 0.1716824 
-0.653001 -2.68757 19.5147 -0.03128736 -0.8128787 0.5815921 
-3.04317 -0.621121 18.7453 -0.8821757 -0.2401585 0.40508 
-2.3847 -1.61094 19.3936 -0.5248796 -0.08232301 0.8471861 
-2.77595 -1.43314 19.2538 -0.8177922 -0.2897361 0.4972614 
-2.75255 -1.05207 19.1721 -0.6412086 0.08541047 0.7625986 
-2.90626 -1.05459 19.0571 -0.9194221 -0.0643735 0.3879678 
3 1 22 6 125 125 125 255 
3 10 28 16 125 125 125 255 
3 22 20 7 125 125 125 255 
3 352 368 57 125 125 125 255 
3 2 77 78 125 125 125 255 
3 76 77 2 125 125 125 255 
3 80 48 50 125 125 125 255 
3 49 116 3 125 125 125 255 
3 28 10 32 125 125 125 255 
3 20 1 23 125 125 125 255 
3 14 52 18 125 125 125 255 
3 368 61 57 125 125 125 255 
3 6 22 0 125 125 125 255 
3 1 82 12 125 125 125 255 
3 0 7 383 125 125 125 255 
3 386 0 383 125 125 125 255 
3 51 107 53 125 125 125 255 
3 80 50 79 125 125 125 255 
3 70 67 25 125 125 125 255 
3 104 114 9 125 125 125 255 
3 1 6 82 125 125 125 255 
3 16 28 4 125 125 125 255 
3 59 52 8 125 125 125 255 
3 55 50 11 125 125 125 255 
3 16 4 46 125 125 125 255 
3 10 17 35 125 125 125 255 
3 25 56 125 125 125 125 255 
3 24 29 18 125 125 125 255 
3 12 46 23 125 125 125 255 
3 5 19 24 125 125 125 255 
3 15 14 46 125 125 125 255 
3 48 80 81 125 125 125 255 
3 14 23 46 125 125 125 255 
3 84 83 32 125 125 125 255 
3 16 12 82 125 125 125 255 
3 0 386 21 125 125 125 255 
3 14 64 23 125 125 125 255 
3 13 68 24 125 125 125 255 
3 14 15 79 125 125 125 255 
3 24 68 29 125 125 125 255 
3 376 63 62 125 125 125 255 
3 63 382 20 125 125 125 255 
3 86 85 31 125 125 125 255 
3 16 46 12 125 125 125 255 
3 382 383 7 125 125 125 255 
3 61 63 20 125 125 125 255 
3 370 63 61 125 125 125 255 
3 13 67 69 125 125 125 255 
3 8 50 55 125 125 125 255 
3 79 15 80 125 125 125 255 
3 102 9 59 125 125 125 255 
3 60 69 338 125 125 125 255 
3 164 75 54 125 125 125 255 
3 76 2 75 125 125 125 255 
3 325 338 326 125 125 125 255 
3 72 150 73 125 125 125 255 
3 33 17 82 125 125 125 255 
3 5 65 19 125 125 125 255 
3 370 61 368 125 125 125 255 
3 63 370 62 125 125 125 255 
3 55 11 100 125 125 125 255 
3 91 90 44 125 125 125 255 
3 42 385 384 125 125 125 255 
3 85 42 31 125 125 125 255 
3 88 36 37 125 125 125 255 
3 41 87 43 125 125 125 255 
3 33 6 21 125 125 125 255 
3 43 87 86 125 125 125 255 
3 44 37 87 125 125 125 255 
3 48 58 51 125 125 125 255 
3 85 17 33 125 125 125 255 
3 36 30 87 125 125 125 255 
3 43 387 380 125 125 125 255 
3 185 38 89 125 125 125 255 
3 380 372 41 125 125 125 255 
3 38 34 88 125 125 125 255 
3 49 45 135 125 125 125 255 
3 137 135 47 125 125 125 255 
3 91 361 93 125 125 125 255 
3 344 345 361 125 125 125 255 
3 95 329 313 125 125 125 255 
3 94 95 39 125 125 125 255 
3 180 38 185 125 125 125 255 
3 391 387 31 125 125 125 255 
3 85 30 35 125 125 125 255 
3 43 31 387 125 125 125 255 
3 90 89 37 125 125 125 255 
3 88 37 89 125 125 125 255 
3 10 16 82 125 125 125 255 
3 313 290 96 125 125 125 255 
3 45 34 47 125 125 125 255 
3 83 45 58 125 125 125 255 
3 4 80 15 125 125 125 255 
3 14 79 52 125 125 125 255 
3 116 105 3 125 125 125 255 
3 34 165 47 125 125 125 255 
3 6 33 82 125 125 125 255 
3 59 9 65 125 125 125 255 
3 47 165 137 125 125 125 255 
3 47 135 45 125 125 125 255 
3 64 61 23 125 125 125 255 
3 99 11 53 125 125 125 255 
3 11 99 98 125 125 125 255 
3 48 51 53 125 125 125 255 
3 58 48 81 125 125 125 255 
3 45 49 58 125 125 125 255 
3 107 51 105 125 125 125 255 
3 10 35 32 125 125 125 255 
3 75 2 26 125 125 125 255 
3 76 197 77 125 125 125 255 
3 65 66 19 125 125 125 255 
3 52 79 8 125 125 125 255 
3 114 125 56 125 125 125 255 
3 26 2 274 125 125 125 255 
3 29 64 18 125 125 125 255 
3 29 60 352 125 125 125 255 
3 84 30 36 125 125 125 255 
3 45 83 84 125 125 125 255 
3 50 8 79 125 125 125 255 
3 70 25 134 125 125 125 255 
3 60 29 68 125 125 125 255 
3 64 57 61 125 125 125 255 
3 15 46 4 125 125 125 255 
3 12 23 1 125 125 125 255 
3 62 370 376 125 125 125 255 
3 69 60 68 125 125 125 255 
3 371 352 60 125 125 125 255 
3 33 385 42 125 125 125 255 
3 64 14 18 125 125 125 255 
3 104 9 102 125 125 125 255 
3 84 36 34 125 125 125 255 
3 98 100 11 125 125 125 255 
3 57 64 29 125 125 125 255 
3 73 27 71 125 125 125 255 
3 18 5 24 125 125 125 255 
3 67 66 56 125 125 125 255 
3 55 59 8 125 125 125 255 
3 382 7 20 125 125 125 255 
3 69 27 326 125 125 125 255 
3 74 302 73 125 125 125 255 
3 54 75 26 125 125 125 255 
3 69 67 70 125 125 125 255 
3 72 133 150 125 125 125 255 
3 326 338 69 125 125 125 255 
3 25 67 56 125 125 125 255 
3 19 66 67 125 125 125 255 
3 71 69 70 125 125 125 255 
3 77 197 196 125 125 125 255 
3 133 72 70 125 125 125 255 
3 78 77 211 125 125 125 255 
3 261 274 2 125 125 125 255 
3 171 197 76 125 125 125 255 
3 210 227 240 125 125 125 255 
3 75 164 171 125 125 125 255 
3 240 261 78 125 125 125 255 
3 171 179 197 125 125 125 255 
3 171 76 75 125 125 125 255 
3 74 26 289 125 125 125 255 
3 102 59 55 125 125 125 255 
3 100 102 55 125 125 125 255 
3 3 51 58 125 125 125 255 
3 66 65 56 125 125 125 255 
3 87 37 36 125 125 125 255 
3 4 81 80 125 125 125 255 
3 53 50 48 125 125 125 255 
3 53 107 99 125 125 125 255 
3 3 58 49 125 125 125 255 
3 32 83 28 125 125 125 255 
3 83 58 81 125 125 125 255 
3 50 53 11 125 125 125 255 
3 52 5 18 125 125 125 255 
3 28 83 81 125 125 125 255 
3 42 389 31 125 125 125 255 
3 49 135 116 125 125 125 255 
3 361 91 372 125 125 125 255 
3 86 87 30 125 125 125 255 
3 63 376 382 125 125 125 255 
3 159 34 38 125 125 125 255 
3 389 42 384 125 125 125 255 
3 93 361 345 125 125 125 255 
3 212 92 94 125 125 125 255 
3 91 93 92 125 125 125 255 
3 159 165 34 125 125 125 255 
3 31 43 86 125 125 125 255 
3 94 213 212 125 125 125 255 
3 189 185 90 125 125 125 255 
3 380 41 43 125 125 125 255 
3 34 36 88 125 125 125 255 
3 92 93 94 125 125 125 255 
3 268 246 237 125 125 125 255 
3 313 39 95 125 125 125 255 
3 329 93 345 125 125 125 255 
3 40 213 96 125 125 125 255 
3 40 97 222 125 125 125 255 
3 40 222 228 125 125 125 255 
3 237 246 229 125 125 125 255 
3 356 386 381 125 125 125 255 
3 1 20 22 125 125 125 255 
3 31 389 391 125 125 125 255 
3 82 17 10 125 125 125 255 
3 85 33 42 125 125 125 255 
3 3 105 51 125 125 125 255 
3 302 326 27 125 125 125 255 
3 0 21 6 125 125 125 255 
3 385 33 21 125 125 125 255 
3 84 34 45 125 125 125 255 
3 35 17 85 125 125 125 255 
3 87 41 44 125 125 125 255 
3 59 5 52 125 125 125 255 
3 180 159 38 125 125 125 255 
3 39 313 96 125 125 125 255 
3 61 20 23 125 125 125 255 
3 32 30 84 125 125 125 255 
3 28 81 4 125 125 125 255 
3 24 19 13 125 125 125 255 
3 56 65 9 125 125 125 255 
3 134 133 70 125 125 125 255 
3 78 210 240 125 125 125 255 
3 68 13 69 125 125 125 255 
3 73 302 27 125 125 125 255 
3 114 56 9 125 125 125 255 
3 71 72 73 125 125 125 255 
3 26 274 289 125 125 125 255 
3 27 69 71 125 125 125 255 
3 37 44 90 125 125 125 255 
3 39 96 213 125 125 125 255 
3 189 92 212 125 125 125 255 
3 32 35 30 125 125 125 255 
3 93 329 95 125 125 125 255 
3 213 94 39 125 125 125 255 
3 97 290 283 125 125 125 255 
3 40 96 97 125 125 125 255 
3 91 41 372 125 125 125 255 
3 97 268 237 125 125 125 255 
3 268 97 283 125 125 125 255 
3 125 134 25 125 125 125 255 
3 54 73 150 125 125 125 255 
3 150 164 54 125 125 125 255 
3 211 77 196 125 125 125 255 
3 228 213 40 125 125 125 255 
3 97 237 222 125 125 125 255 
3 13 19 67 125 125 125 255 
3 289 310 74 125 125 125 255 
3 78 261 2 125 125 125 255 
3 74 54 26 125 125 125 255 
3 91 92 90 125 125 125 255 
3 38 88 89 125 125 125 255 
3 0 22 7 125 125 125 255 
3 54 74 73 125 125 125 255 
3 95 94 93 125 125 125 255 
3 30 85 86 125 125 125 255 
3 96 290 97 125 125 125 255 
3 60 338 371 125 125 125 255 
3 29 352 57 125 125 125 255 
3 89 90 185 125 125 125 255 
3 211 210 78 125 125 125 255 
3 381 358 356 125 125 125 255 
3 386 383 381 125 125 125 255 
3 21 386 385 125 125 125 255 
3 74 310 302 125 125 125 255 
3 92 189 90 125 125 125 255 
3 70 72 71 125 125 125 255 
3 5 59 65 125 125 125 255 
3 91 44 41 125 125 125 255 
3 389 390 391 125 125 125 255 
3 390 387 391 125 125 125 255 
3 388 390 389 125 125 125 255 
3 390 388 374 125 125 125 255 
3 390 374 387 125 125 125 255 
3 384 388 389 125 125 125 255 
3 374 388 378 125 125 125 255 
3 379 378 388 125 125 125 255 
3 386 373 385 125 125 125 255 
3 388 384 379 125 125 125 255 
3 378 362 374 125 125 125 255 
3 374 369 387 125 125 125 255 
3 369 380 387 125 125 125 255 
3 386 356 373 125 125 125 255 
3 385 373 384 125 125 125 255 
3 373 379 384 125 125 125 255 
3 382 381 383 125 125 125 255 
3 378 379 375 125 125 125 255 
3 382 367 381 125 125 125 255 
3 367 377 381 125 125 125 255 
3 369 374 365 125 125 125 255 
3 382 376 367 125 125 125 255 
3 377 358 381 125 125 125 255 
3 379 359 364 125 125 125 255 
3 364 375 379 125 125 125 255 
3 369 372 380 125 125 125 255 
3 357 377 367 125 125 125 255 
3 373 359 379 125 125 125 255 
3 366 378 375 125 125 125 255 
3 378 366 363 125 125 125 255 
3 363 362 378 125 125 125 255 
3 370 351 376 125 125 125 255 
3 357 358 377 125 125 125 255 
3 369 365 355 125 125 125 255 
3 351 367 376 125 125 125 255 
3 356 349 373 125 125 125 255 
3 375 364 366 125 125 125 255 
3 362 365 374 125 125 125 255 
3 370 360 351 125 125 125 255 
3 373 349 359 125 125 125 255 
3 366 334 363 125 125 125 255 
3 361 372 369 125 125 125 255 
3 371 338 352 125 125 125 255 
3 352 348 368 125 125 125 255 
3 368 360 370 125 125 125 255 
3 367 350 357 125 125 125 255 
3 358 343 356 125 125 125 255 
3 363 340 362 125 125 125 255 
3 362 339 365 125 125 125 255 
3 355 361 369 125 125 125 255 
3 348 360 368 125 125 125 255 
3 367 351 350 125 125 125 255 
3 356 337 349 125 125 125 255 
3 359 342 364 125 125 125 255 
3 364 354 366 125 125 125 255 
3 354 353 366 125 125 125 255 
3 353 334 366 125 125 125 255 
3 346 340 363 125 125 125 255 
3 339 355 365 125 125 125 255 
3 364 342 354 125 125 125 255 
3 363 334 346 125 125 125 255 
3 362 340 339 125 125 125 255 
3 355 344 361 125 125 125 255 
3 360 348 341 125 125 125 255 
3 341 347 360 125 125 125 255 
3 347 351 360 125 125 125 255 
3 356 332 337 125 125 125 255 
3 349 342 359 125 125 125 255 
3 322 346 334 125 125 125 255 
3 350 343 357 125 125 125 255 
3 343 358 357 125 125 125 255 
3 356 343 332 125 125 125 255 
3 339 344 355 125 125 125 255 
3 353 354 342 125 125 125 255 
3 353 336 334 125 125 125 255 
3 342 336 353 125 125 125 255 
3 338 348 352 125 125 125 255 
3 347 350 351 125 125 125 255 
3 350 316 328 125 125 125 255 
3 328 343 350 125 125 125 255 
3 335 348 338 125 125 125 255 
3 347 316 350 125 125 125 255 
3 349 337 342 125 125 125 255 
3 330 322 334 125 125 125 255 
3 339 304 344 125 125 125 255 
3 335 341 348 125 125 125 255 
3 341 333 347 125 125 125 255 
3 333 316 347 125 125 125 255 
3 311 330 334 125 125 125 255 
3 322 340 346 125 125 125 255 
3 304 329 344 125 125 125 255 
3 329 345 344 125 125 125 255 
3 328 332 343 125 125 125 255 
3 342 337 327 125 125 125 255 
3 327 331 342 125 125 125 255 
3 331 336 342 125 125 125 255 
3 340 317 339 125 125 125 255 
3 335 333 341 125 125 125 255 
3 316 319 328 125 125 125 255 
3 322 317 340 125 125 125 255 
3 317 304 339 125 125 125 255 
3 338 325 320 125 125 125 255 
3 320 335 338 125 125 125 255 
3 318 332 328 125 125 125 255 
3 337 332 327 125 125 125 255 
3 331 321 336 125 125 125 255 
3 336 321 323 125 125 125 255 
3 323 334 336 125 125 125 255 
3 322 299 317 125 125 125 255 
3 320 333 335 125 125 125 255 
3 315 327 332 125 125 125 255 
3 331 327 314 125 125 125 255 
3 314 324 331 125 125 125 255 
3 323 311 334 125 125 125 255 
3 320 308 333 125 125 125 255 
3 308 316 333 125 125 125 255 
3 318 328 309 125 125 125 255 
3 332 318 315 125 125 125 255 
3 324 321 331 125 125 125 255 
3 300 311 323 125 125 125 255 
3 311 322 330 125 125 125 255 
3 313 329 304 125 125 125 255 
3 319 309 328 125 125 125 255 
3 327 315 314 125 125 125 255 
3 296 304 317 125 125 125 255 
3 325 326 302 125 125 125 255 
3 302 320 325 125 125 125 255 
3 316 298 319 125 125 125 255 
3 324 314 301 125 125 125 255 
3 301 321 324 125 125 125 255 
3 306 312 321 125 125 125 255 
3 323 321 312 125 125 125 255 
3 323 312 300 125 125 125 255 
3 299 322 293 125 125 125 255 
3 303 308 320 125 125 125 255 
3 319 307 309 125 125 125 255 
3 311 300 284 125 125 125 255 
3 322 311 293 125 125 125 255 
3 301 306 321 125 125 125 255 
3 312 305 300 125 125 125 255 
3 302 303 320 125 125 125 255 
3 298 307 319 125 125 125 255 
3 309 315 318 125 125 125 255 
3 317 299 296 125 125 125 255 
3 308 298 316 125 125 125 255 
3 315 309 297 125 125 125 255 
3 315 297 314 125 125 125 255 
3 297 301 314 125 125 125 255 
3 304 290 313 125 125 125 255 
3 306 305 312 125 125 125 255 
3 311 284 293 125 125 125 255 
3 310 289 302 125 125 125 255 
3 307 281 280 125 125 125 255 
3 280 309 307 125 125 125 255 
3 309 280 297 125 125 125 255 
3 301 295 306 125 125 125 255 
3 306 294 305 125 125 125 255 
3 305 294 278 125 125 125 255 
3 282 304 296 125 125 125 255 
3 288 302 289 125 125 125 255 
3 308 303 288 125 125 125 255 
3 288 298 308 125 125 125 255 
3 298 281 307 125 125 125 255 
3 295 292 306 125 125 125 255 
3 292 294 306 125 125 125 255 
3 305 278 291 125 125 125 255 
3 291 300 305 125 125 125 255 
3 296 299 286 125 125 125 255 
3 282 290 304 125 125 125 255 
3 288 303 302 125 125 125 255 
3 301 297 287 125 125 125 255 
3 287 295 301 125 125 125 255 
3 291 284 300 125 125 125 255 
3 293 286 299 125 125 125 255 
3 298 288 285 125 125 125 255 
3 285 281 298 125 125 125 255 
3 297 280 279 125 125 125 255 
3 279 287 297 125 125 125 255 
3 295 275 292 125 125 125 255 
3 296 286 282 125 125 125 255 
3 272 288 289 125 125 125 255 
3 287 275 295 125 125 125 255 
3 292 277 294 125 125 125 255 
3 294 277 271 125 125 125 255 
3 273 278 294 125 125 125 255 
3 284 276 293 125 125 125 255 
3 271 273 294 125 125 125 255 
3 291 270 284 125 125 125 255 
3 276 286 293 125 125 125 255 
3 275 277 292 125 125 125 255 
3 278 270 291 125 125 125 255 
3 286 268 282 125 125 125 255 
3 282 283 290 125 125 125 255 
3 289 274 272 125 125 125 255 
3 272 262 288 125 125 125 255 
3 262 285 288 125 125 125 255 
3 287 279 266 125 125 125 255 
3 266 275 287 125 125 125 255 
3 269 276 284 125 125 125 255 
3 276 268 286 125 125 125 255 
3 281 285 262 125 125 125 255 
3 280 281 267 125 125 125 255 
3 278 255 270 125 125 125 255 
3 270 269 284 125 125 125 255 
3 276 258 268 125 125 125 255 
3 268 283 282 125 125 125 255 
3 262 267 281 125 125 125 255 
3 280 267 279 125 125 125 255 
3 267 266 279 125 125 125 255 
3 273 255 278 125 125 125 255 
3 263 262 272 125 125 125 255 
3 277 275 265 125 125 125 255 
3 265 248 277 125 125 125 255 
3 277 248 257 125 125 125 255 
3 257 271 277 125 125 125 255 
3 269 258 276 125 125 125 255 
3 275 266 265 125 125 125 255 
3 256 273 271 125 125 125 255 
3 258 269 264 125 125 125 255 
3 274 261 272 125 125 125 255 
3 254 265 266 125 125 125 255 
3 260 248 265 125 125 125 255 
3 256 255 273 125 125 125 255 
3 270 255 259 125 125 125 255 
3 261 263 272 125 125 125 255 
3 257 256 271 125 125 125 255 
3 259 269 270 125 125 125 255 
3 259 264 269 125 125 125 255 
3 254 266 253 125 125 125 255 
3 246 268 258 125 125 125 255 
3 262 253 267 125 125 125 255 
3 267 253 266 125 125 125 255 
3 265 254 260 125 125 125 255 
3 260 249 248 125 125 125 255 
3 255 252 259 125 125 125 255 
3 250 258 264 125 125 125 255 
3 264 259 250 125 125 125 255 
3 251 246 258 125 125 125 255 
3 261 243 263 125 125 125 255 
3 262 263 243 125 125 125 255 
3 243 253 262 125 125 125 255 
3 256 257 247 125 125 125 255 
3 251 239 246 125 125 125 255 
3 240 243 261 125 125 125 255 
3 260 254 242 125 125 125 255 
3 242 249 260 125 125 125 255 
3 252 250 259 125 125 125 255 
3 250 251 258 125 125 125 255 
3 246 239 244 125 125 125 255 
3 247 257 248 125 125 125 255 
3 256 247 241 125 125 125 255 
3 241 255 256 125 125 125 255 
3 252 255 241 125 125 125 255 
3 242 254 253 125 125 125 255 
3 248 249 236 125 125 125 255 
3 250 245 251 125 125 125 255 
3 243 242 253 125 125 125 255 
3 249 238 236 125 125 125 255 
3 241 250 252 125 125 125 255 
3 245 239 251 125 125 125 255 
3 249 233 238 125 125 125 255 
3 241 235 250 125 125 125 255 
3 235 245 250 125 125 125 255 
3 242 233 249 125 125 125 255 
3 236 247 248 125 125 125 255 
3 236 232 247 125 125 125 255 
3 234 243 240 125 125 125 255 
3 232 241 247 125 125 125 255 
3 241 220 235 125 125 125 255 
3 246 244 229 125 125 125 255 
3 243 231 242 125 125 125 255 
3 226 236 238 125 125 125 255 
3 230 241 232 125 125 125 255 
3 235 225 245 125 125 125 255 
3 225 239 245 125 125 125 255 
3 239 229 244 125 125 125 255 
3 243 234 231 125 125 125 255 
3 231 233 242 125 125 125 255 
3 241 230 220 125 125 125 255 
3 227 234 240 125 125 125 255 
3 225 224 239 125 125 125 255 
3 224 229 239 125 125 125 255 
3 233 219 218 125 125 125 255 
3 238 233 218 125 125 125 255 
3 218 226 238 125 125 125 255 
3 225 235 223 125 125 125 255 
3 224 207 229 125 125 125 255 
3 229 222 237 125 125 125 255 
3 226 232 236 125 125 125 255 
3 209 230 232 125 125 125 255 
3 220 223 235 125 125 125 255 
3 234 227 231 125 125 125 255 
3 233 231 219 125 125 125 255 
3 226 209 232 125 125 125 255 
3 230 221 208 125 125 125 255 
3 208 215 230 125 125 125 255 
3 216 224 225 125 125 125 255 
3 227 219 231 125 125 125 255 
3 221 230 209 125 125 125 255 
3 215 220 230 125 125 125 255 
3 223 214 225 125 125 125 255 
3 207 222 229 125 125 125 255 
3 222 213 228 125 125 125 255 
3 210 219 227 125 125 125 255 
3 218 206 217 125 125 125 255 
3 217 226 218 125 125 125 255 
3 217 209 226 125 125 125 255 
3 214 216 225 125 125 125 255 
3 216 207 224 125 125 125 255 
3 210 195 219 125 125 125 255 
3 215 201 220 125 125 125 255 
3 220 214 223 125 125 125 255 
3 207 213 222 125 125 125 255 
3 210 203 195 125 125 125 255 
3 217 202 209 125 125 125 255 
3 209 208 221 125 125 125 255 
3 214 220 201 125 125 125 255 
3 204 207 216 125 125 125 255 
3 213 205 212 125 125 125 255 
3 195 206 219 125 125 125 255 
3 219 206 218 125 125 125 255 
3 206 199 217 125 125 125 255 
3 199 202 217 125 125 125 255 
3 214 204 216 125 125 125 255 
3 208 198 215 125 125 125 255 
3 198 201 215 125 125 125 255 
3 214 201 204 125 125 125 255 
3 213 207 205 125 125 125 255 
3 194 199 206 125 125 125 255 
3 190 208 209 125 125 125 255 
3 200 205 207 125 125 125 255 
3 212 205 191 125 125 125 255 
3 191 184 212 125 125 125 255 
3 212 184 189 125 125 125 255 
3 196 210 211 125 125 125 255 
3 196 203 210 125 125 125 255 
3 206 183 194 125 125 125 255 
3 193 202 199 125 125 125 255 
3 202 190 209 125 125 125 255 
3 208 190 198 125 125 125 255 
3 204 200 207 125 125 125 255 
3 205 200 192 125 125 125 255 
3 195 183 206 125 125 125 255 
3 194 183 169 125 125 125 255 
3 191 205 192 125 125 125 255 
3 201 198 188 125 125 125 255 
3 201 177 204 125 125 125 255 
3 204 177 200 125 125 125 255 
3 187 192 200 125 125 125 255 
3 191 192 186 125 125 125 255 
3 184 176 189 125 125 125 255 
3 196 179 203 125 125 125 255 
3 179 195 203 125 125 125 255 
3 199 182 193 125 125 125 255 
3 193 190 202 125 125 125 255 
3 188 177 201 125 125 125 255 
3 177 187 200 125 125 125 255 
3 176 181 189 125 125 125 255 
3 199 194 182 125 125 125 255 
3 188 198 190 125 125 125 255 
3 181 166 189 125 125 125 255 
3 197 179 196 125 125 125 255 
3 195 179 183 125 125 125 255 
3 194 169 182 125 125 125 255 
3 182 190 193 125 125 125 255 
3 178 188 190 125 125 125 255 
3 187 186 192 125 125 125 255 
3 186 184 191 125 125 125 255 
3 182 178 190 125 125 125 255 
3 166 185 189 125 125 125 255 
3 186 187 173 125 125 125 255 
3 178 177 188 125 125 125 255 
3 177 173 187 125 125 125 255 
3 186 173 175 125 125 125 255 
3 175 184 186 125 125 125 255 
3 181 176 157 125 125 125 255 
3 166 180 185 125 125 125 255 
3 179 170 183 125 125 125 255 
3 169 168 182 125 125 125 255 
3 182 162 178 125 125 125 255 
3 173 177 174 125 125 125 255 
3 175 176 184 125 125 125 255 
3 157 172 181 125 125 125 255 
3 183 170 156 125 125 125 255 
3 156 169 183 125 125 125 255 
3 168 162 182 125 125 125 255 
3 160 174 177 125 125 125 255 
3 173 158 175 125 125 125 255 
3 176 161 153 125 125 125 255 
3 153 157 176 125 125 125 255 
3 172 166 181 125 125 125 255 
3 159 180 166 125 125 125 255 
3 171 163 179 125 125 125 255 
3 163 170 179 125 125 125 255 
3 160 178 162 125 125 125 255 
3 178 160 177 125 125 125 255 
3 175 161 176 125 125 125 255 
3 167 160 162 125 125 125 255 
3 173 155 158 125 125 125 255 
3 158 161 175 125 125 125 255 
3 172 151 166 125 125 125 255 
3 155 174 160 125 125 125 255 
3 174 155 173 125 125 125 255 
3 158 152 161 125 125 125 255 
3 146 172 157 125 125 125 255 
3 146 151 172 125 125 125 255 
3 171 164 163 125 125 125 255 
3 170 163 156 125 125 125 255 
3 156 168 169 125 125 125 255 
3 168 142 162 125 125 125 255 
3 153 161 154 125 125 125 255 
3 156 142 168 125 125 125 255 
3 149 167 162 125 125 125 255 
3 167 149 160 125 125 125 255 
3 151 159 166 125 125 125 255 
3 159 137 165 125 125 125 255 
3 163 164 150 125 125 125 255 
3 150 156 163 125 125 125 255 
3 162 142 149 125 125 125 255 
3 152 154 161 125 125 125 255 
3 151 138 159 125 125 125 255 
3 149 155 160 125 125 125 255 
3 146 157 148 125 125 125 255 
3 159 138 137 125 125 125 255 
3 156 150 132 125 125 125 255 
3 158 155 145 125 125 125 255 
3 145 152 158 125 125 125 255 
3 144 153 154 125 125 125 255 
3 153 148 157 125 125 125 255 
3 143 156 132 125 125 125 255 
3 143 142 156 125 125 125 255 
3 155 149 145 125 125 125 255 
3 152 140 147 125 125 125 255 
3 147 154 152 125 125 125 255 
3 147 144 154 125 125 125 255 
3 144 148 153 125 125 125 255 
3 149 141 145 125 125 125 255 
3 145 140 152 125 125 125 255 
3 146 138 151 125 125 125 255 
3 132 150 133 125 125 125 255 
3 142 141 149 125 125 125 255 
3 140 145 130 125 125 125 255 
3 148 144 139 125 125 125 255 
3 139 146 148 125 125 125 255 
3 144 147 131 125 125 125 255 
3 146 136 138 125 125 125 255 
3 130 123 140 125 125 125 255 
3 147 140 131 125 125 125 255 
3 144 129 139 125 125 125 255 
3 139 136 146 125 125 125 255 
3 134 121 133 125 125 125 255 
3 143 124 142 125 125 125 255 
3 141 130 145 125 125 125 255 
3 144 131 129 125 125 125 255 
3 126 138 136 125 125 125 255 
3 133 127 132 125 125 125 255 
3 132 124 143 125 125 125 255 
3 124 141 142 125 125 125 255 
3 124 130 141 125 125 125 255 
3 140 123 131 125 125 125 255 
3 129 128 139 125 125 125 255 
3 136 139 128 125 125 125 255 
3 128 122 136 125 125 125 255 
3 137 138 126 125 125 125 255 
3 126 135 137 125 125 125 255 
3 132 119 124 125 125 125 255 
3 130 117 123 125 125 125 255 
3 122 126 136 125 125 125 255 
3 126 116 135 125 125 125 255 
3 134 125 121 125 125 125 255 
3 121 127 133 125 125 125 255 
3 127 119 132 125 125 125 255 
3 123 129 131 125 125 125 255 
3 124 117 130 125 125 125 255 
3 129 123 115 125 125 125 255 
3 129 115 120 125 125 125 255 
3 120 128 129 125 125 125 255 
3 120 122 128 125 125 125 255 
3 117 110 123 125 125 125 255 
3 121 111 127 125 125 125 255 
3 127 111 119 125 125 125 255 
3 118 115 123 125 125 125 255 
3 126 122 112 125 125 125 255 
3 112 116 126 125 125 125 255 
3 121 125 114 125 125 125 255 
3 119 117 124 125 125 125 255 
3 110 118 123 125 125 125 255 
3 115 106 120 125 125 125 255 
3 112 122 120 125 125 125 255 
3 121 114 111 125 125 125 255 
3 110 113 118 125 125 125 255 
3 108 115 118 125 125 125 255 
3 106 112 120 125 125 125 255 
3 111 117 119 125 125 125 255 
3 113 108 118 125 125 125 255 
3 111 110 117 125 125 125 255 
3 105 116 112 125 125 125 255 
3 113 110 103 125 125 125 255 
3 108 106 115 125 125 125 255 
3 114 104 111 125 125 125 255 
3 113 109 108 125 125 125 255 
3 113 103 109 125 125 125 255 
3 106 105 112 125 125 125 255 
3 110 101 103 125 125 125 255 
3 109 99 108 125 125 125 255 
3 104 101 111 125 125 125 255 
3 111 101 110 125 125 125 255 
3 109 103 99 125 125 125 255 
3 103 101 100 125 125 125 255 
3 108 99 107 125 125 125 255 
3 107 106 108 125 125 125 255 
3 106 107 105 125 125 125 255 
3 102 101 104 125 125 125 255 
3 100 99 103 125 125 125 255 
3 101 102 100 125 125 125 255 
3 99 100 98 125 125 125 255 
