ply
format ascii 1.0
comment VCGLIB generated
element vertex 380
property float x
property float y
property float z
property float nx
property float ny
property float nz
element face 756
property list uchar int vertex_indices
property uchar red
property uchar green
property uchar blue
property uchar alpha
end_header
-8.701089 -0.6498445 16.41362 -0.6231811 -0.6970489 -0.3546382 
-5.321606 -1.653954 15.38272 0.1579426 -0.981388 -0.1092327 
-3.375209 0.6946316 15.7237 0.9416593 0.3198719 -0.104689 
-7.076698 -1.180276 15.3272 -0.357632 -0.8631675 -0.3564285 
-5.629474 -1.133315 13.36398 -0.09405473 -0.9852531 -0.1429336 
-4.834765 -1.51843 15.2279 0.4400826 -0.8943969 -0.07988428 
-3.391133 0.9312298 17.98626 0.9802686 0.000906479 0.1976682 
-4.191326 -1.504468 18.20814 0.6954484 -0.7157763 -0.06337099 
-3.453036 2.085546 18.08685 0.968504 0.1371499 0.207822 
-3.483817 -0.01349137 15.50811 0.9052887 -0.3793562 -0.1911576 
-3.351585 0.1724962 17.38094 0.9955219 -0.08484417 -0.04168556 
-3.874121 -1.110081 17.90648 0.7481858 -0.6523435 -0.1211039 
-6.233613 -1.430382 15.08943 -0.3307766 -0.9014089 -0.2793725 
-6.354687 -1.718401 16.10608 -0.1822173 -0.9203195 -0.3461342 
-7.207642 -0.8228061 14.41667 -0.4185773 -0.8657051 -0.2744954 
-8.84671 -0.134778 15.98954 -0.6872228 -0.4882839 -0.5378696 
-4.527764 -0.9562191 13.99103 0.5557679 -0.8259374 -0.09460229 
-6.688937 -0.769889 13.62294 -0.3388888 -0.8926048 -0.2973402 
-6.055871 -1.322182 14.46802 -0.3059531 -0.9167155 -0.2569542 
-5.862378 -1.675993 15.54556 -0.1675251 -0.9640256 -0.2063737 
-6.69847 -0.9844239 14.15422 -0.3907719 -0.8819661 -0.2635016 
-8.763751 0.590089 15.45469 -0.907626 -0.1082289 -0.4055879 
-4.152397 -1.43983 18.59761 0.7644138 -0.6429316 0.04806868 
-4.213169 -1.39948 17.35295 0.7092062 -0.6972228 -0.1044362 
-7.408129 -0.9104572 14.96825 -0.4299857 -0.8505991 -0.3026444 
-8.618229 -0.4834965 16.0082 -0.6856008 -0.5930685 -0.4221626 
-3.421107 0.07267826 18.19691 0.9971527 -0.03598576 0.06626918 
-3.353667 0.3067959 15.9851 0.9968631 -0.07833205 -0.01131563 
-5.135561 -1.816697 16.31309 0.3508491 -0.900004 -0.2586463 
-6.205907 -0.9131033 13.18462 -0.4711 -0.849238 -0.2384524 
-5.469905 -1.327858 14.1161 0.04736793 -0.9498661 -0.3090482 
-5.021041 -1.124735 13.71689 0.2342614 -0.9689508 -0.07909442 
-6.778938 -1.107706 14.77264 -0.3705948 -0.8891737 -0.2683834 
-9.182957 1.607396 16.35442 -0.9408311 -0.2330955 -0.2459742 
-6.147428 -2.327004 18.25714 -0.1818351 -0.9489396 -0.2577783 
-7.029695 -1.976044 17.88764 -0.2943434 -0.9425671 -0.1578902 
-8.403307 -1.033536 16.71666 -0.5948567 -0.731724 -0.3327546 
-5.665232 -1.844539 16.14106 -0.01391552 -0.9556232 -0.2942629 
-4.016509 -0.5704697 14.4551 0.8044254 -0.5831503 -0.1132943 
-3.832247 -0.7664441 16.16021 0.7851444 -0.5962113 -0.1675721 
-3.37517 -0.09069422 17.69824 0.9845693 -0.1693712 0.04400797 
-3.761519 -0.3822878 15.28868 0.828298 -0.5209601 -0.2062114 
-3.307247 1.747148 17.24656 0.9966862 0.004552616 0.08121468 
-3.371067 0.578574 16.71964 0.9997163 -0.01953658 -0.01362555 
-8.207852 -0.7942827 15.91179 -0.6040356 -0.7032823 -0.3748803 
-9.232151 2.07731 16.1099 -0.9461465 -0.2124965 -0.2442377 
-3.654308 5.076633 18.31744 0.8518025 0.08983434 0.5161031 
-3.447165 3.357014 17.85469 0.9795884 -0.01818251 0.2001898 
-3.390233 1.517258 17.93099 0.9836773 0.04875971 0.1732093 
-3.386848 -0.06203167 16.85407 0.9833649 -0.1716075 -0.05953546 
-6.095421 -1.163269 13.78274 -0.3108743 -0.9131405 -0.2636887 
-3.816621 -1.181451 18.3489 0.7839429 -0.6134297 0.09559053 
-3.564906 -0.6566863 17.56444 0.8491203 -0.5278934 0.01798209 
-4.332083 -1.367695 16.53408 0.6444362 -0.7515793 -0.1408211 
-4.719326 -1.921606 17.76234 0.6060754 -0.7883202 -0.105943 
-4.56434 -1.177229 14.54649 0.5537119 -0.7799349 -0.2917272 
-4.516519 -1.839848 18.46942 0.6815627 -0.7266551 -0.08628308 
-3.507915 -0.6906207 18.11213 0.8964071 -0.4330561 -0.0944282 
-4.240837 -1.492105 17.80609 0.6960886 -0.7109452 -0.1000886 
-5.043901 -2.288754 18.44356 0.4571535 -0.8714474 -0.1777362 
-7.186504 -1.75923 16.98493 -0.3407012 -0.92015 -0.1929941 
-4.809186 -1.590298 15.75393 0.4469755 -0.8831995 -0.1420264 
-5.443542 -2.323009 17.68377 0.2299734 -0.9639689 -0.1337023 
-8.893294 0.2518728 15.8558 -0.8957497 -0.1652812 -0.412692 
-8.095147 -1.465082 17.21092 -0.440406 -0.8792014 -0.1817899 
-6.628648 -1.487871 15.64697 -0.2701352 -0.8973784 -0.3489112 
-7.622939 -0.6784155 14.57011 -0.5172225 -0.8067387 -0.2857507 
-9.065814 1.300085 16.08107 -0.95855 -0.1649351 -0.2323325 
-8.565105 -0.2237059 15.59682 -0.7739755 -0.4898382 -0.4012736 
-8.811848 1.183461 15.3969 -0.9055277 -0.09127306 -0.4143534 
-9.413074 2.49623 16.59414 -0.9754046 -0.1337999 -0.1751669 
-9.75421 4.432436 16.69067 -0.9756609 -0.1925981 0.1048418 
-9.617873 3.702137 16.68317 -0.9827104 -0.174997 -0.06046819 
-9.353403 2.72026 15.99793 -0.9658937 -0.1108879 -0.233994 
-8.97958 1.736549 15.57167 -0.8797303 -0.2309422 -0.4156203 
-9.012043 0.8531857 15.94003 -0.961609 -0.1083325 -0.2521353 
-8.58611 0.3349337 15.11137 -0.8936082 -0.1731093 -0.4141227 
-8.3995 -0.02740567 14.83287 -0.8586873 -0.3590523 -0.3657015 
-8.23247 -0.1969093 14.60607 -0.7649342 -0.485101 -0.4237365 
-7.825257 -0.4076993 14.24107 -0.676616 -0.6573915 -0.3317035 
-7.22105 -0.682297 13.90727 -0.4379219 -0.8538932 -0.2812309 
-8.027476 -0.5735503 15.1631 -0.6379644 -0.7109323 -0.2959338 
-7.82251 -0.9452503 15.562 -0.4992705 -0.7831094 -0.3707677 
-7.51435 -1.376797 16.05627 -0.4287784 -0.835724 -0.3430956 
-6.77018 -1.822793 16.53023 -0.2662067 -0.9126384 -0.3102019 
-5.887913 -2.173753 16.89973 -0.09036625 -0.9573046 -0.2745939 
-5.293253 -1.69557 14.84867 0.05307834 -0.9745205 -0.2179277 
-4.932263 -2.015253 17.04427 0.4444014 -0.8673007 -0.22427 
-4.536726 -1.678573 17.06367 0.6503887 -0.7392606 -0.1746096 
-4.401857 -1.269422 15.0811 0.6547367 -0.7428936 -0.1393875 
-4.202044 -1.06007 15.36887 0.7314507 -0.6695212 -0.1293105 
-3.861943 -1.027762 17.1891 0.7114308 -0.6991532 -0.07107089 
-3.435053 -0.644809 17.04903 0.8888966 -0.4562477 -0.04124238 
-3.432753 -0.2115003 15.92267 0.9063284 -0.3977911 -0.142587 
-3.292737 0.6702144 17.5905 0.9972038 -0.01928834 0.07219877 
-3.38771 1.277008 16.64577 0.9965317 -0.08314697 0.003353403 
-3.391013 2.66093 17.61637 0.9757895 0.03870169 0.2152604 
-3.59329 3.416073 18.3446 0.9145446 0.006800846 0.4044279 
-3.564533 4.406167 18.13083 0.9205867 -0.001949966 0.3905334 
-3.731653 4.78652 18.48633 0.7838336 0.007264043 0.6209285 
-4.99432 -1.11487 12.7684 0.2434935 -0.2044962 -0.9480993 
-4.28438 -0.843536 13.2314 0.7545502 -0.08774614 -0.6503497 
-4.59735 -1.19475 12.8464 0.4179036 -0.8468437 -0.3289567 
-4.80773 -0.744838 12.9528 0.3499517 0.4021361 -0.8460617 
-5.59892 -1.00433 12.7095 0.06067725 0.4889376 -0.8702059 
-5.77196 -1.11194 12.5923 -0.3204067 -0.3392088 -0.8844642 
-4.6078 -0.15554 13.4376 0.415664 0.4378061 -0.7972134 
-5.33052 -0.645696 12.8863 0.138915 0.4564741 -0.8788254 
-3.99791 -0.566694 13.7097 0.9009639 -0.3164766 -0.2968276 
-4.24354 0.536797 14.126 0.6584154 0.4058384 -0.6338646 
-3.8096 -0.124494 14.183 0.9317204 -0.01696781 -0.36278 
-3.44387 0.577839 15.2749 0.6620562 0.5858325 -0.4674205 
-3.25718 0.553314 15.313 0.9124094 0.3252524 -0.2484352 
-3.64976 0.124707 14.5745 0.8868976 0.08911514 -0.4532892 
-6.2907 -0.604761 12.9884 -0.1478911 0.4691975 -0.8706216 
-5.05907 0.455168 13.549 0.22576 0.4448671 -0.8666751 
-4.65747 0.144421 13.5371 0.4531381 0.428078 -0.7819304 
-3.92585 0.583891 14.5566 0.7610517 0.3655558 -0.5358818 
-6.75034 -0.464101 13.1788 -0.3423922 0.2816069 -0.8963621 
-5.87862 -0.0318477 13.1682 -0.08162758 0.4687037 -0.8795759 
-4.42944 1.45627 14.5692 0.4793983 0.5449718 -0.687883 
-3.62489 0.798759 15.1971 0.7859235 0.3669868 -0.4976394 
-5.03721 0.737873 13.7217 0.2110778 0.5439948 -0.8121058 
-3.93669 1.06224 14.8177 0.7553909 0.3575622 -0.549121 
-3.32809 1.19926 15.9111 0.9635024 0.1312079 -0.2333403 
-6.86751 -0.600087 13.074 -0.6573126 -0.09231405 -0.7479427 
-6.66245 -0.758741 12.7485 -0.02250479 0.3506759 -0.9362265 
-6.80368 0.010522 13.3989 -0.3055764 0.3996677 -0.8642274 
-5.65808 0.220345 13.3235 0.07228685 0.5106872 -0.8567224 
-7.60803 -0.133613 13.7692 -0.3457097 0.5659025 -0.7484913 
-7.58458 -0.288147 13.5937 -0.6458858 -0.2270541 -0.7288882 
-4.88466 1.51164 14.3771 0.248671 0.6654058 -0.7038452 
-4.22341 1.69425 14.9569 0.5969383 0.5104529 -0.6189529 
-3.50763 1.45006 15.8699 0.8124305 0.3163947 -0.489746 
-3.77192 1.43027 15.3159 0.7935823 0.3377656 -0.5061044 
-6.62116 0.535748 13.634 -0.2068316 0.5323533 -0.8208658 
-5.66332 0.915883 13.7688 -0.03027584 0.5910193 -0.806089 
-3.23799 1.9103 16.5328 0.9783706 0.08157485 -0.1900963 
-5.20885 1.40691 14.2053 0.06230188 0.674331 -0.7357963 
-7.88409 -0.126371 13.8435 -0.7424402 0.2570803 -0.6186213 
-6.13678 1.23432 14.089 -0.08599408 0.6591701 -0.7470608 
-4.52836 2.65228 15.7078 0.3141299 0.6274791 -0.7124552 
-3.56527 2.19348 16.1361 0.832864 0.2636612 -0.4866419 
-7.91555 0.0731226 14.1058 -0.7258152 0.1657985 -0.66761 
-7.25291 0.420057 13.7858 -0.427852 0.4146497 -0.8031241 
-6.72139 1.0631 14.0504 -0.1673651 0.6097747 -0.7747024 
-5.9337 1.84745 14.643 -0.06103703 0.6994701 -0.7120506 
-3.7605 2.46633 16.0545 0.6418141 0.4200036 -0.6416165 
-3.35641 2.93983 16.9814 0.9646887 0.1591062 -0.2099074 
-4.00389 2.37122 15.7491 0.4834747 0.5496367 -0.6812868 
-5.33465 2.64145 15.4559 0.1800083 0.6626939 -0.7269345 
-3.45859 3.11587 16.8204 0.8760498 0.2103889 -0.4339047 
-7.71571 0.392225 14.1276 -0.5434445 0.3389547 -0.76797 
-7.49006 1.26944 14.4336 -0.2846713 0.5339 -0.7961866 
-4.98242 2.39056 15.2908 0.1920628 0.688856 -0.6989917 
-3.47244 3.9906 17.4334 0.9183033 0.2443266 -0.3114862 
-3.35719 3.99404 17.6031 0.9937742 0.1110516 0.008968904 
-7.69555 0.870875 14.2789 -0.5106029 0.3916486 -0.7654385 
-5.62912 2.40199 15.1915 -0.02421423 0.7011935 -0.7125598 
-6.87557 1.61989 14.5535 -0.133561 0.6611332 -0.7382848 
-3.72847 3.60353 16.6325 0.617312 0.3038279 -0.7256821 
-3.48463 3.70802 17.0846 0.9411809 0.1989894 -0.2730964 
-8.08882 0.991859 14.6279 -0.3837938 0.3780997 -0.8424625 
-4.09047 2.92866 16.0808 0.4000571 0.4717721 -0.7857388 
-8.08567 0.220364 14.2741 -0.6917505 0.09330153 -0.7160838 
-4.63121 3.22096 16.0933 0.2305266 0.5030331 -0.8329557 
-7.3318 1.91071 14.8722 -0.05283877 0.5971863 -0.8003603 
-6.51471 2.68271 15.4627 0.05259436 0.5743473 -0.8169205 
-3.64104 4.31677 17.001 0.8801028 0.2232447 -0.4190238 
-3.6209 4.91105 17.4554 0.9680704 0.2395684 -0.07380149 
-3.62568 4.82059 17.6788 0.8876973 0.4062012 -0.2167813 
-5.2278 3.01211 15.7912 0.3091174 0.5693859 -0.761739 
-4.19339 3.68334 16.4196 0.2774307 0.4050761 -0.8711748 
-3.45943 4.63066 17.8456 0.9142637 0.2937616 -0.2789733 
-7.90156 1.77494 14.8261 -0.1759742 0.4540932 -0.8734028 
-3.67476 5.07083 17.9953 0.5496435 0.6194484 -0.5605138 
-3.8364 5.36228 18.2435 0.7081286 0.702489 -0.07115605 
-3.49159 5.04873 18.0719 0.9213813 0.3886313 -0.004716078 
-8.3126 1.88056 14.9963 -0.2864836 0.3057417 -0.9079918 
-4.07377 4.10577 16.6217 0.2643424 0.3250095 -0.9080154 
-3.85282 4.85163 16.9518 0.5629885 0.3256859 -0.7595872 
-8.44392 0.960647 14.679 -0.6482762 0.1720923 -0.7417023 
-8.33012 1.17745 14.7974 -0.2159085 0.3883106 -0.8958786 
-5.21129 3.4725 16.0792 0.2344888 0.4805997 -0.8450083 
-3.73968 5.39465 18.3941 0.4983526 0.7670184 0.4041379 
-7.97181 2.16741 15.0455 -0.01415023 0.4205774 -0.9071463 
-6.0531 3.4075 15.9246 0.09919669 0.4486469 -0.8881869 
-7.27618 2.93803 15.5371 0.1163955 0.4682773 -0.8758816 
-6.5507 3.53693 15.9693 0.08666005 0.4267736 -0.9001969 
-3.82116 5.40337 17.3062 0.7697061 0.4312494 -0.4707191 
-8.7396 1.95146 15.1669 -0.4039551 0.1468235 -0.9029193 
-8.36458 2.55886 15.2126 -0.102707 0.2527708 -0.9620594 
-5.83646 4.16772 16.3211 0.1600801 0.4029183 -0.9011278 
-4.096 4.90065 16.8563 0.2256628 0.3440022 -0.9114487 
-3.85801 5.67922 17.7389 0.8525834 0.5224307 0.012953 
-3.9703 5.25377 18.5383 0.1944264 0.6427615 0.7409832 
-8.8576 2.82512 15.3448 -0.288585 0.1386396 -0.9473636 
-5.54684 4.62999 16.5688 0.2099841 0.3647246 -0.9071289 
-4.11578 5.41844 17.1085 0.3110015 0.5310054 -0.788233 
-3.98197 5.61876 18.2708 0.6253855 0.6052798 0.4924728 
-7.87409 2.90612 15.4056 0.2115649 0.3821794 -0.8995439 
-6.16339 3.97965 16.1733 0.07959087 0.4300815 -0.8992748 
-4.78405 4.73082 16.7514 0.1055558 0.3451496 -0.932593 
-3.85855 5.1351 18.6696 0.4465011 0.2700704 0.8530526 
-9.10303 2.77115 15.4007 -0.4999387 0.1990333 -0.8428802 
-4.05774 5.85122 17.5429 0.4104478 0.7646919 -0.4967684 
-6.26546 4.88733 16.4835 0.1376358 0.346365 -0.9279481 
-4.26124 5.24908 18.7682 0.4646453 0.3414908 0.8169999 
-8.84303 3.42593 15.3693 -0.08815503 0.2437143 -0.9658323 
-7.25031 4.16669 16.1436 0.1838311 0.3856403 -0.9041503 
-6.43961 4.15298 16.2398 0.09596111 0.3723998 -0.923098 
-5.68681 5.30516 16.8126 0.2253128 0.380459 -0.896931 
-4.55149 5.14522 16.8952 0.08018936 0.3895261 -0.917518 
-4.33376 5.68804 17.2794 0.2012018 0.6821191 -0.7030159 
-4.0938 5.9147 17.7296 0.2710785 0.9395112 0.2093683 
-4.29697 5.49595 18.6167 0.1511939 0.8081965 0.5691738 
-9.13135 2.47388 15.2759 -0.8076929 -0.07487284 -0.5848301 
-8.05742 3.30602 15.5274 0.284759 0.4010119 -0.8706905 
-5.90712 5.11504 16.6579 0.2440113 0.3777651 -0.8931696 
-5.0145 5.7046 17.1275 0.1482124 0.5125012 -0.8457989 
-8.28238 3.64076 15.5879 0.3063042 0.3751248 -0.8749052 
-7.08599 4.89268 16.4291 0.1392477 0.3413626 -0.9295599 
-4.58523 5.93182 17.5218 0.1128839 0.9626993 -0.2459011 
-4.05807 4.82342 18.6937 0.2722246 0.07303044 0.9594584 
-9.37252 3.51398 15.6846 -0.7331703 0.05846373 -0.6775274 
-7.66535 4.51394 16.1763 0.266705 0.3511231 -0.8975417 
-4.59803 5.76585 18.0359 0.02248614 0.885921 0.4632908 
-4.55257 5.31317 18.8384 0.09426747 0.2703476 0.9581367 
-6.34201 5.66925 16.7942 0.1341773 0.533294 -0.8352209 
-8.67386 4.39594 15.7677 0.1191111 0.45028 -0.8849071 
-6.94254 5.22013 16.5804 0.1011003 0.4092964 -0.9067829 
-5.27984 5.77465 17.1294 0.159833 0.7388279 -0.6546654 
-4.93087 5.65689 18.2624 0.0440282 0.8945227 0.4448491 
-9.1339 4.28064 15.7163 -0.4267008 0.3451934 -0.8359235 
-5.19247 5.51052 18.61 0.01923023 0.7601172 0.6495013 
-4.74109 4.74599 18.8622 -0.1423068 0.08489531 0.9861752 
-4.94303 5.28705 18.8051 -0.184674 0.316809 0.9303374 
-4.46267 3.41651 18.9083 0.2722927 0.06224039 0.9601994 
-3.9997 3.69823 18.7191 0.2265813 0.007099148 0.9739664 
-3.84482 4.17573 18.7175 0.6078573 0.04797804 0.7925955 
-7.88206 5.13614 16.3381 0.2226256 0.4109046 -0.8840788 
-5.20457 5.88371 17.8967 0.1635682 0.9325615 0.32183 
-4.64551 4.11613 18.8882 0.06548338 0.07314494 0.9951692 
-7.35106 5.7277 16.8089 0.06682783 0.6771007 -0.7328498 
-5.30454 6.00479 17.4119 0.1362384 0.9570297 -0.2559947 
-9.36767 4.00153 15.8661 -0.6015775 0.228033 -0.7655752 
-9.28104 4.42406 15.8961 -0.7032166 0.3033057 -0.6430335 
-6.77704 5.91736 16.9924 0.0006950056 0.8841835 -0.4671392 
-6.26353 5.92935 17.0916 0.1018206 0.8286906 -0.5503675 
-5.88379 6.09294 17.5469 0.06281494 0.9887624 -0.1356582 
-3.81686 3.373 18.6799 0.5323587 -0.01091252 0.8464485 
-9.22469 5.00899 16.1831 -0.3568703 0.5630288 -0.7454142 
-8.35396 5.18805 16.2674 0.04673494 0.5528858 -0.8319455 
-7.68928 5.64952 16.6558 0.09530702 0.6617241 -0.7436652 
-4.20705 3.19621 18.82 0.3920054 0.02799416 0.9195369 
-8.78311 5.1228 16.2595 -0.06330439 0.6121716 -0.7881868 
-5.92559 5.93176 18.2648 -0.1144158 0.5902565 0.7990659 
-5.46203 5.50346 18.5851 -0.2679248 0.2793567 0.92205 
-8.4065 5.50383 16.5219 -0.07414335 0.7174648 -0.6926377 
-6.1091 6.12693 17.9131 -0.03847774 0.9922758 0.1179335 
-5.18759 1.75688 19.2089 0.02929819 0.1049391 0.994047 
-5.1762 3.20706 19 -0.05738366 0.1275728 0.9901679 
-9.56539 3.91178 15.9578 -0.7179891 0.2069815 -0.6645679 
-7.96795 5.74734 16.8141 -0.03243809 0.8237523 -0.5660211 
-5.96793 6.07181 18.0856 0.02505787 0.8866954 0.4616746 
-5.93351 5.30978 18.4412 -0.3001945 0.2528941 0.9197434 
-5.69368 4.21573 18.7397 -0.227409 0.180648 0.9568968 
-9.58911 4.69438 16.6076 -0.6484548 0.6814426 -0.3393265 
-6.04339 4.749 18.5524 -0.2728463 0.2023717 0.9405321 
-5.51826 3.74615 18.8723 -0.1792913 0.1683017 0.9692932 
-9.66501 4.34847 16.2902 -0.8079757 0.2197993 -0.5466841 
-4.44133 2.06282 19.0085 0.4312273 0.0294757 0.9017618 
-9.3145 5.14012 16.4299 -0.7649347 0.4837403 -0.4252885 
-9.12882 5.40659 16.5504 -0.2695094 0.7421096 -0.6137085 
-7.51882 5.95624 17.1786 -0.12343 0.9753621 -0.1828491 
-3.75582 2.58524 18.6408 0.6041854 0.04776036 0.7954112 
-6.63958 6.01892 17.5457 -0.08977423 0.991994 -0.08881678 
-4.81978 0.834894 19.2248 0.2543261 0.04704073 0.9659739 
-8.507 5.69429 16.772 -0.1850502 0.9151592 -0.3581062 
-6.85737 5.38732 18.2028 -0.2621924 0.2326473 0.9365525 
-6.31329 4.03773 18.6276 -0.2604708 0.194553 0.9456766 
-6.71374 5.92175 17.9691 -0.2962614 0.8017276 0.5190974 
-6.89112 4.4426 18.3698 -0.3051954 0.185165 0.9341144 
-9.83174 4.74752 16.7145 -0.7840085 0.5986919 0.1640082 
-6.14319 3.22891 18.841 -0.2330991 0.1842338 0.9548417 
-5.77213 2.2712 19.0825 -0.1502243 0.1502795 0.9771637 
-4.54068 1.25611 19.083 0.4608434 0.03716452 0.886703 
-9.21329 5.47282 16.7884 -0.6218887 0.7755266 -0.1086876 
-7.0827 5.96145 17.5113 -0.2579221 0.9311322 0.2578158 
-7.16537 5.65288 18.0334 -0.3546282 0.3674002 0.8598 
-3.66634 1.27951 18.5477 0.3349267 -0.03694557 0.9415196 
-3.64678 1.72462 18.5689 -0.05493837 -0.08202432 0.995115 
-8.47242 5.71327 16.9575 -0.3312024 0.8946444 0.2998604 
-6.49563 2.04178 18.9687 -0.2685239 0.1614827 0.9496411 
-6.11764 0.887458 19.2151 -0.1739091 0.06843462 0.982381 
-5.36645 0.608503 19.2953 0.01343982 0.04999231 0.9986592 
-4.20477 0.405501 18.9502 0.5232012 0.01349152 0.8521024 
-9.57387 4.54117 16.882 -0.6279311 0.3546956 0.6927435 
-9.30215 5.32333 16.979 -0.7140435 0.5818642 0.3893276 
-7.65378 5.6291 17.7673 -0.3731468 0.7052804 0.6027778 
-6.64468 3.24255 18.6875 -0.297173 0.1848269 0.9367642 
-4.61893 0.260709 19.1556 0.4082165 0.0262346 0.9125081 
-7.11376 3.22925 18.5304 -0.3558142 0.1710393 0.9187719 
-5.39983 -0.305936 19.3206 0.0157941 0.01730462 0.9997255 
-3.93135 0.25817 18.7368 0.5669006 -0.00257992 0.8237822 
-7.70787 4.47984 18.0414 -0.3556063 0.1844319 0.9162582 
-4.86615 -0.524829 19.2755 0.247383 0.0141835 0.968814 
-3.48695 1.22063 18.5861 0.494038 -0.1087881 0.8626075 
-4.65412 -1.07708 19.2036 0.4423259 -0.003605206 0.8968471 
-3.49043 0.606217 18.4373 0.7668689 -0.01192481 0.6416931 
-9.76588 4.20132 17.0673 -0.7404056 0.1258571 0.6602724 
-9.60712 4.11883 17.0305 -0.7444694 -0.1059726 0.6591928 
-9.18591 5.10901 17.2858 -0.648528 0.2655241 0.7133782 
-7.94265 3.88766 18.0689 -0.3607286 0.1469787 0.9210169 
-7.23371 1.7558 18.7445 -0.4008485 0.1358078 0.9060225 
-6.69476 1.61315 18.9789 -0.3322939 0.1177598 0.9357956 
-6.36798 1.0331 19.1401 -0.2589923 0.0964419 0.9610525 
-3.57786 2.07845 18.7132 0.6064087 0.06144199 0.7927757 
-9.38907 4.21599 17.2734 -0.8117405 0.02758219 0.5833667 
-8.04222 5.28793 17.7436 -0.3671562 0.2722574 0.8894225 
-7.55635 3.1024 18.3545 -0.3918541 0.1529644 0.9072223 
-8.67668 5.33701 17.4945 -0.4189719 0.5218725 0.7430422 
-5.90015 -0.788517 19.2941 -0.1369825 -0.02989107 0.9901224 
-4.99113 -1.69932 19.2943 0.1449372 -0.03550678 0.9888036 
-9.47131 4.07314 17.1002 -0.678711 0.0001559326 0.7344055 
-7.31867 0.772832 18.8074 -0.4539843 0.03904516 0.8901538 
-6.82242 0.653291 19.023 -0.3253765 0.04323623 0.9445956 
-4.11874 -0.775941 18.858 0.4610957 0.09389927 0.8823683 
-3.72555 -0.737748 18.6264 0.4818113 -0.1654622 0.8605116 
-8.49229 4.50918 17.7517 -0.3749062 0.1849278 0.9084311 
-8.44701 3.87108 17.887 -0.3807587 0.1254574 0.916124 
-8.55911 3.399 17.8828 -0.4092458 0.1079366 0.9060174 
-6.41218 -0.813218 19.1631 -0.2954031 -0.02064697 0.9551496 
-4.37069 -1.38853 19.0533 0.2481817 0.1638715 0.9547523 
-3.57937 0.0709246 18.4924 0.4570537 0.03961094 0.8885567 
-9.15165 4.14223 17.5184 -0.5696192 0.06728096 0.8191503 
-4.68899 -2.07099 19.1791 0.4941025 -0.4335165 0.7536088 
-3.39772 -0.297488 18.4552 0.9372653 0.0982575 0.3344834 
-9.52235 2.99331 17.0244 -0.8339815 -0.1632691 0.5270845 
-5.24575 -2.06334 19.2936 0.02622504 -0.1517013 0.9880785 
-7.06001 0.171521 18.941 -0.394326 -0.002294679 0.9189678 
-9.29883 2.99154 17.1228 -0.7046508 -0.1661886 0.6898178 
-8.20963 1.93601 18.1994 -0.5455486 0.0309806 0.8375065 
-6.99204 -0.951877 18.9454 -0.4564887 -0.06623346 0.8872605 
-4.32384 -1.76998 19.1655 0.7420549 -0.3891119 0.5458447 
-4.12405 -1.29819 18.9745 0.6991776 -0.1570311 0.6974898 
-5.63677 -2.20065 19.2221 -0.1640012 -0.1479558 0.9753013 
-8.91977 2.33081 17.5904 -0.7982824 -0.1025145 0.5934947 
-6.31946 -1.90179 19.1136 -0.3038261 -0.09940965 0.947527 
-8.57978 1.70008 17.889 -0.7116744 -0.06054321 0.6998958 
-8.17552 0.943831 18.2141 -0.6523712 -0.04832614 0.7563574 
-7.50216 -0.153575 18.686 -0.564043 -0.03435381 0.8250305 
-3.04317 -0.621121 18.7453 0.02377376 -0.0002367574 0.9997174 
-7.04392 -2.02724 18.7644 -0.6017729 -0.5244321 0.6023624 
-6.38133 -2.6293 18.9996 -0.4361043 -0.6569818 0.6149699 
-3.26408 -0.746612 18.6921 0.6245067 -0.7578514 -0.1888193 
-9.32491 2.23201 16.8742 -0.4128051 -0.2303075 0.881221 
-5.51045 -2.78002 19.1073 0.1575517 -0.8600296 0.4853109 
-7.54292 -0.907029 18.5868 -0.61559 -0.09561225 0.782245 
-8.91571 1.57081 17.4446 -0.8801669 -0.1365696 0.4545933 
-9.17245 1.80333 16.8699 -0.7033944 -0.2237624 0.6746604 
-8.49493 0.235701 17.8379 -0.7627409 -0.08704917 0.640819 
-8.17965 -0.0845452 18.1125 -0.6698289 -0.06354298 0.7397916 
-7.92463 -1.45017 18.169 -0.6569295 -0.0735862 0.7503524 
-9.36347 1.77512 16.7601 -0.910894 -0.2594382 0.3208801 
-8.98447 1.41905 17.1207 -0.9426246 -0.1642867 0.2906353 
-8.13135 -0.808787 18.1001 -0.7042516 -0.1069339 0.701851 
-8.54643 -0.454018 17.6139 -0.8901765 -0.1262706 0.437769 
-8.15725 -1.72714 17.9988 -0.725126 -0.6337766 0.2692945 
-9.03744 0.800751 16.6582 -0.9503462 -0.141766 0.2770279 
-8.36126 -1.19464 17.7294 -0.7796734 -0.2101926 0.5898547 
-9.20582 1.31052 16.7315 -0.9109498 -0.3057102 0.2769687 
-8.78669 0.103199 17.2367 -0.9427282 -0.1375932 0.3038614 
-8.59873 -0.84277 17.3887 -0.8011965 0.1373937 0.582415 
-8.76856 -0.438747 17.0176 -0.9105356 0.01718828 0.4130733 
-9.0058 0.0580431 16.5491 -0.7525679 -0.02604069 0.6579996 
-8.90714 -0.612811 16.926 -0.9306957 -0.2852443 0.2290004 
-8.61384 -1.29131 17.5777 -0.7715425 -0.5260218 0.3578032 
-9.22874 -0.17621 16.381 -0.9734987 -0.2286176 0.005852053 
-9.08173 -0.432501 16.516 -0.9187122 -0.3776806 0.1154351 
3 36 376 0 0 0 255 255 
3 81 68 77 0 0 255 255 
3 32 20 18 0 0 255 255 
3 90 61 5 0 0 255 255 
3 113 112 9 0 0 255 255 
3 39 41 93 0 0 255 255 
3 68 81 44 0 0 255 255 
3 86 5 1 0 0 255 255 
3 126 118 17 0 0 255 255 
3 86 30 55 0 0 255 255 
3 83 3 65 0 0 255 255 
3 41 39 90 0 0 255 255 
3 23 58 88 0 0 255 255 
3 275 291 317 0 0 255 255 
3 112 111 2 0 0 255 255 
3 336 357 59 0 0 255 255 
3 148 47 96 0 0 255 255 
3 94 95 42 0 0 255 255 
3 38 41 90 0 0 255 255 
3 93 27 49 0 0 255 255 
3 40 94 26 0 0 255 255 
3 39 91 53 0 0 255 255 
3 59 56 336 0 0 255 255 
3 91 23 53 0 0 255 255 
3 28 88 87 0 0 255 255 
3 24 81 66 0 0 255 255 
3 32 18 12 0 0 255 255 
3 64 83 60 0 0 255 255 
3 50 30 18 0 0 255 255 
3 20 14 80 0 0 255 255 
3 143 79 78 0 0 255 255 
3 44 25 68 0 0 255 255 
3 90 39 53 0 0 255 255 
3 89 55 90 0 0 255 255 
3 143 139 79 0 0 255 255 
3 105 29 118 0 0 255 255 
3 65 12 19 0 0 255 255 
3 1 37 19 0 0 255 255 
3 29 4 50 0 0 255 255 
3 34 85 62 0 0 255 255 
3 31 55 30 0 0 255 255 
3 125 80 130 0 0 255 255 
3 190 69 74 0 0 255 255 
3 0 15 25 0 0 255 255 
3 11 57 51 0 0 255 255 
3 91 92 52 0 0 255 255 
3 1 5 61 0 0 255 255 
3 26 309 337 0 0 255 255 
3 78 79 66 0 0 255 255 
3 344 336 56 0 0 255 255 
3 36 0 44 0 0 255 255 
3 78 81 77 0 0 255 255 
3 48 307 6 0 0 255 255 
3 337 355 57 0 0 255 255 
3 27 2 124 0 0 255 255 
3 94 40 10 0 0 255 255 
3 61 53 28 0 0 255 255 
3 37 28 85 0 0 255 255 
3 14 32 24 0 0 255 255 
3 118 29 17 0 0 255 255 
3 65 13 84 0 0 255 255 
3 50 18 20 0 0 255 255 
3 16 31 101 0 0 255 255 
3 105 100 4 0 0 255 255 
3 100 102 31 0 0 255 255 
3 50 4 30 0 0 255 255 
3 33 364 45 0 0 255 255 
3 75 69 21 0 0 255 255 
3 88 28 53 0 0 255 255 
3 377 370 373 0 0 255 255 
3 62 59 34 0 0 255 255 
3 65 3 12 0 0 255 255 
3 60 35 64 0 0 255 255 
3 51 345 22 0 0 255 255 
3 44 82 83 0 0 255 255 
3 55 38 90 0 0 255 255 
3 105 4 29 0 0 255 255 
3 42 137 148 0 0 255 255 
3 40 26 57 0 0 255 255 
3 94 10 43 0 0 255 255 
3 87 85 28 0 0 255 255 
3 124 43 27 0 0 255 255 
3 10 40 49 0 0 255 255 
3 2 111 124 0 0 255 255 
3 97 156 98 0 0 255 255 
3 96 97 275 0 0 255 255 
3 110 38 108 0 0 255 255 
3 39 49 92 0 0 255 255 
3 181 164 76 0 0 255 255 
3 67 45 74 0 0 255 255 
3 74 45 216 0 0 255 255 
3 63 369 75 0 0 255 255 
3 173 156 155 0 0 255 255 
3 97 96 47 0 0 255 255 
3 175 177 173 0 0 255 255 
3 99 98 177 0 0 255 255 
3 317 48 8 0 0 255 255 
3 309 94 6 0 0 255 255 
3 94 42 48 0 0 255 255 
3 16 101 108 0 0 255 255 
3 24 82 81 0 0 255 255 
3 38 16 108 0 0 255 255 
3 49 40 92 0 0 255 255 
3 62 85 87 0 0 255 255 
3 355 328 57 0 0 255 255 
3 7 22 56 0 0 255 255 
3 55 89 5 0 0 255 255 
3 64 36 83 0 0 255 255 
3 332 348 322 0 0 255 255 
3 1 28 37 0 0 255 255 
3 55 16 38 0 0 255 255 
3 112 27 9 0 0 255 255 
3 346 322 348 0 0 255 255 
3 22 345 344 0 0 255 255 
3 352 355 337 0 0 255 255 
3 94 309 26 0 0 255 255 
3 58 11 7 0 0 255 255 
3 34 35 85 0 0 255 255 
3 58 54 88 0 0 255 255 
3 354 34 357 0 0 255 255 
3 377 36 64 0 0 255 255 
3 84 85 60 0 0 255 255 
3 53 23 88 0 0 255 255 
3 19 86 1 0 0 255 255 
3 62 54 59 0 0 255 255 
3 353 368 35 0 0 255 255 
3 181 76 21 0 0 255 255 
3 216 73 204 0 0 255 255 
3 36 377 376 0 0 255 255 
3 13 19 37 0 0 255 255 
3 13 85 84 0 0 255 255 
3 125 17 80 0 0 255 255 
3 89 90 5 0 0 255 255 
3 81 78 66 0 0 255 255 
3 371 67 369 0 0 255 255 
3 66 79 14 0 0 255 255 
3 15 68 25 0 0 255 255 
3 15 0 379 0 0 255 255 
3 181 21 69 0 0 255 255 
3 69 75 67 0 0 255 255 
3 71 72 311 0 0 255 255 
3 72 262 224 0 0 255 255 
3 73 72 224 0 0 255 255 
3 216 190 74 0 0 255 255 
3 45 364 70 0 0 255 255 
3 70 338 73 0 0 255 255 
3 369 63 378 0 0 255 255 
3 72 338 311 0 0 255 255 
3 360 371 369 0 0 255 255 
3 75 21 63 0 0 255 255 
3 73 224 204 0 0 255 255 
3 64 370 377 0 0 255 255 
3 181 69 190 0 0 255 255 
3 24 66 14 0 0 255 255 
3 3 32 12 0 0 255 255 
3 82 3 83 0 0 255 255 
3 14 79 80 0 0 255 255 
3 0 25 44 0 0 255 255 
3 13 37 85 0 0 255 255 
3 20 17 50 0 0 255 255 
3 368 64 35 0 0 255 255 
3 9 41 113 0 0 255 255 
3 76 164 77 0 0 255 255 
3 15 378 63 0 0 255 255 
3 68 15 63 0 0 255 255 
3 82 44 81 0 0 255 255 
3 84 60 83 0 0 255 255 
3 24 3 82 0 0 255 255 
3 9 27 93 0 0 255 255 
3 54 62 87 0 0 255 255 
3 59 357 34 0 0 255 255 
3 354 357 346 0 0 255 255 
3 337 57 26 0 0 255 255 
3 18 30 86 0 0 255 255 
3 20 32 14 0 0 255 255 
3 51 22 7 0 0 255 255 
3 9 93 41 0 0 255 255 
3 328 51 57 0 0 255 255 
3 86 55 5 0 0 255 255 
3 12 18 86 0 0 255 255 
3 84 83 65 0 0 255 255 
3 13 65 19 0 0 255 255 
3 52 57 11 0 0 255 255 
3 11 58 23 0 0 255 255 
3 52 92 40 0 0 255 255 
3 39 92 91 0 0 255 255 
3 2 27 112 0 0 255 255 
3 4 31 30 0 0 255 255 
3 345 51 328 0 0 255 255 
3 58 56 54 0 0 255 255 
3 42 96 8 0 0 255 255 
3 59 54 56 0 0 255 255 
3 46 99 177 0 0 255 255 
3 99 223 239 0 0 255 255 
3 99 46 203 0 0 255 255 
3 173 177 98 0 0 255 255 
3 203 223 99 0 0 255 255 
3 42 8 48 0 0 255 255 
3 307 309 6 0 0 255 255 
3 148 156 47 0 0 255 255 
3 216 45 73 0 0 255 255 
3 71 310 297 0 0 255 255 
3 71 297 283 0 0 255 255 
3 72 73 338 0 0 255 255 
3 33 371 364 0 0 255 255 
3 72 71 270 0 0 255 255 
3 126 17 125 0 0 255 255 
3 67 33 45 0 0 255 255 
3 20 80 17 0 0 255 255 
3 3 24 32 0 0 255 255 
3 130 80 79 0 0 255 255 
3 50 17 29 0 0 255 255 
3 130 79 139 0 0 255 255 
3 75 369 67 0 0 255 255 
3 87 88 54 0 0 255 255 
3 77 68 76 0 0 255 255 
3 86 19 12 0 0 255 255 
3 4 100 31 0 0 255 255 
3 48 317 307 0 0 255 255 
3 78 77 164 0 0 255 255 
3 1 61 28 0 0 255 255 
3 41 38 113 0 0 255 255 
3 95 124 137 0 0 255 255 
3 11 23 91 0 0 255 255 
3 49 39 93 0 0 255 255 
3 124 95 43 0 0 255 255 
3 148 96 42 0 0 255 255 
3 310 71 311 0 0 255 255 
3 42 95 137 0 0 255 255 
3 98 156 173 0 0 255 255 
3 97 98 239 0 0 255 255 
3 94 43 95 0 0 255 255 
3 46 177 184 0 0 255 255 
3 97 239 250 0 0 255 255 
3 51 7 11 0 0 255 255 
3 27 43 49 0 0 255 255 
3 56 58 7 0 0 255 255 
3 110 113 38 0 0 255 255 
3 96 275 8 0 0 255 255 
3 63 21 76 0 0 255 255 
3 184 203 46 0 0 255 255 
3 344 56 22 0 0 255 255 
3 379 0 376 0 0 255 255 
3 53 61 90 0 0 255 255 
3 68 63 76 0 0 255 255 
3 52 40 57 0 0 255 255 
3 52 11 91 0 0 255 255 
3 164 143 78 0 0 255 255 
3 368 363 370 0 0 255 255 
3 275 317 8 0 0 255 255 
3 71 283 270 0 0 255 255 
3 73 45 70 0 0 255 255 
3 224 262 245 0 0 255 255 
3 94 48 6 0 0 255 255 
3 99 239 98 0 0 255 255 
3 371 33 67 0 0 255 255 
3 270 262 72 0 0 255 255 
3 275 97 250 0 0 255 255 
3 16 55 31 0 0 255 255 
3 36 44 83 0 0 255 255 
3 102 101 31 0 0 255 255 
3 338 70 364 0 0 255 255 
3 64 368 370 0 0 255 255 
3 60 85 35 0 0 255 255 
3 353 35 34 0 0 255 255 
3 15 379 378 0 0 255 255 
3 156 97 47 0 0 255 255 
3 34 354 353 0 0 255 255 
3 74 69 67 0 0 255 255 
3 10 49 43 0 0 255 255 
3 374 379 376 0 0 255 255 
3 375 378 379 0 0 255 255 
3 376 373 374 0 0 255 255 
3 374 375 379 0 0 255 255 
3 375 369 378 0 0 255 255 
3 377 373 376 0 0 255 255 
3 367 374 373 0 0 255 255 
3 375 374 369 0 0 255 255 
3 367 372 374 0 0 255 255 
3 372 365 374 0 0 255 255 
3 365 369 374 0 0 255 255 
3 370 367 373 0 0 255 255 
3 370 361 367 0 0 255 255 
3 372 367 359 0 0 255 255 
3 372 359 365 0 0 255 255 
3 371 360 364 0 0 255 255 
3 366 361 370 0 0 255 255 
3 363 366 370 0 0 255 255 
3 365 360 369 0 0 255 255 
3 366 362 361 0 0 255 255 
3 364 360 356 0 0 255 255 
3 353 363 368 0 0 255 255 
3 361 359 367 0 0 255 255 
3 363 358 366 0 0 255 255 
3 358 362 366 0 0 255 255 
3 365 359 360 0 0 255 255 
3 364 356 338 0 0 255 255 
3 362 350 361 0 0 255 255 
3 359 349 347 0 0 255 255 
3 353 358 363 0 0 255 255 
3 362 358 350 0 0 255 255 
3 361 350 349 0 0 255 255 
3 349 359 361 0 0 255 255 
3 359 341 360 0 0 255 255 
3 351 350 358 0 0 255 255 
3 341 356 360 0 0 255 255 
3 359 347 341 0 0 255 255 
3 348 353 354 0 0 255 255 
3 358 353 343 0 0 255 255 
3 357 339 346 0 0 255 255 
3 358 343 351 0 0 255 255 
3 357 336 339 0 0 255 255 
3 350 351 342 0 0 255 255 
3 347 349 335 0 0 255 255 
3 341 338 356 0 0 255 255 
3 352 328 355 0 0 255 255 
3 354 346 348 0 0 255 255 
3 348 343 353 0 0 255 255 
3 349 342 335 0 0 255 255 
3 337 328 352 0 0 255 255 
3 351 343 325 0 0 255 255 
3 342 351 325 0 0 255 255 
3 350 342 349 0 0 255 255 
3 335 318 347 0 0 255 255 
3 318 324 347 0 0 255 255 
3 336 323 339 0 0 255 255 
3 332 343 348 0 0 255 255 
3 335 342 331 0 0 255 255 
3 347 324 341 0 0 255 255 
3 343 340 325 0 0 255 255 
3 344 333 336 0 0 255 255 
3 339 322 346 0 0 255 255 
3 331 330 335 0 0 255 255 
3 337 334 328 0 0 255 255 
3 345 328 327 0 0 255 255 
3 327 333 345 0 0 255 255 
3 345 333 344 0 0 255 255 
3 325 314 342 0 0 255 255 
3 329 335 330 0 0 255 255 
3 332 340 343 0 0 255 255 
3 314 331 342 0 0 255 255 
3 338 341 324 0 0 255 255 
3 332 326 340 0 0 255 255 
3 340 326 325 0 0 255 255 
3 319 321 329 0 0 255 255 
3 323 322 339 0 0 255 255 
3 312 329 321 0 0 255 255 
3 335 329 312 0 0 255 255 
3 324 311 338 0 0 255 255 
3 337 309 334 0 0 255 255 
3 336 333 308 0 0 255 255 
3 308 323 336 0 0 255 255 
3 331 314 320 0 0 255 255 
3 312 318 335 0 0 255 255 
3 309 304 334 0 0 255 255 
3 304 328 334 0 0 255 255 
3 327 308 333 0 0 255 255 
3 332 322 294 0 0 255 255 
3 294 326 332 0 0 255 255 
3 313 331 320 0 0 255 255 
3 330 331 313 0 0 255 255 
3 313 329 330 0 0 255 255 
3 329 313 305 0 0 255 255 
3 305 319 329 0 0 255 255 
3 304 327 328 0 0 255 255 
3 308 306 323 0 0 255 255 
3 323 303 322 0 0 255 255 
3 326 294 316 0 0 255 255 
3 326 315 325 0 0 255 255 
3 327 304 308 0 0 255 255 
3 316 315 326 0 0 255 255 
3 315 314 325 0 0 255 255 
3 319 299 321 0 0 255 255 
3 299 292 321 0 0 255 255 
3 321 298 312 0 0 255 255 
3 318 297 324 0 0 255 255 
3 297 311 324 0 0 255 255 
3 306 308 301 0 0 255 255 
3 306 303 323 0 0 255 255 
3 303 294 322 0 0 255 255 
3 293 315 316 0 0 255 255 
3 292 298 321 0 0 255 255 
3 304 296 308 0 0 255 255 
3 306 301 277 0 0 255 255 
3 314 293 302 0 0 255 255 
3 302 320 314 0 0 255 255 
3 320 302 313 0 0 255 255 
3 319 305 289 0 0 255 255 
3 289 299 319 0 0 255 255 
3 292 287 298 0 0 255 255 
3 312 297 318 0 0 255 255 
3 317 291 307 0 0 255 255 
3 309 290 304 0 0 255 255 
3 316 294 293 0 0 255 255 
3 315 293 314 0 0 255 255 
3 302 305 313 0 0 255 255 
3 298 297 312 0 0 255 255 
3 311 297 310 0 0 255 255 
3 309 307 290 0 0 255 255 
3 296 301 308 0 0 255 255 
3 291 290 307 0 0 255 255 
3 277 303 306 0 0 255 255 
3 295 294 303 0 0 255 255 
3 293 300 302 0 0 255 255 
3 302 289 305 0 0 255 255 
3 288 299 281 0 0 255 255 
3 288 292 299 0 0 255 255 
3 290 296 304 0 0 255 255 
3 277 295 303 0 0 255 255 
3 293 294 285 0 0 255 255 
3 289 302 282 0 0 255 255 
3 282 279 289 0 0 255 255 
3 296 286 301 0 0 255 255 
3 302 300 282 0 0 255 255 
3 298 267 297 0 0 255 255 
3 286 277 301 0 0 255 255 
3 277 260 295 0 0 255 255 
3 260 285 294 0 0 255 255 
3 300 293 284 0 0 255 255 
3 284 280 300 0 0 255 255 
3 300 280 282 0 0 255 255 
3 289 281 299 0 0 255 255 
3 298 287 267 0 0 255 255 
3 297 267 283 0 0 255 255 
3 290 286 296 0 0 255 255 
3 295 260 294 0 0 255 255 
3 293 285 284 0 0 255 255 
3 281 259 288 0 0 255 255 
3 292 288 274 0 0 255 255 
3 292 278 287 0 0 255 255 
3 267 287 272 0 0 255 255 
3 275 254 291 0 0 255 255 
3 271 290 291 0 0 255 255 
3 274 278 292 0 0 255 255 
3 273 272 287 0 0 255 255 
3 254 271 291 0 0 255 255 
3 271 286 290 0 0 255 255 
3 284 285 269 0 0 255 255 
3 279 256 289 0 0 255 255 
3 256 281 289 0 0 255 255 
3 259 276 288 0 0 255 255 
3 288 276 274 0 0 255 255 
3 278 273 287 0 0 255 255 
3 286 271 277 0 0 255 255 
3 260 261 285 0 0 255 255 
3 261 269 285 0 0 255 255 
3 269 266 284 0 0 255 255 
3 266 280 284 0 0 255 255 
3 280 268 282 0 0 255 255 
3 264 259 281 0 0 255 255 
3 278 274 263 0 0 255 255 
3 273 251 272 0 0 255 255 
3 267 270 283 0 0 255 255 
3 268 279 282 0 0 255 255 
3 265 256 279 0 0 255 255 
3 281 256 264 0 0 255 255 
3 254 275 238 0 0 255 255 
3 277 237 260 0 0 255 255 
3 266 268 280 0 0 255 255 
3 279 268 265 0 0 255 255 
3 263 273 278 0 0 255 255 
3 271 237 277 0 0 255 255 
3 259 249 276 0 0 255 255 
3 249 247 276 0 0 255 255 
3 247 274 276 0 0 255 255 
3 247 243 274 0 0 255 255 
3 273 263 258 0 0 255 255 
3 272 246 267 0 0 255 255 
3 238 275 250 0 0 255 255 
3 249 248 247 0 0 255 255 
3 243 263 274 0 0 255 255 
3 273 258 255 0 0 255 255 
3 273 255 251 0 0 255 255 
3 251 246 272 0 0 255 255 
3 271 254 237 0 0 255 255 
3 268 257 265 0 0 255 255 
3 234 256 257 0 0 255 255 
3 259 264 241 0 0 255 255 
3 249 244 248 0 0 255 255 
3 270 267 262 0 0 255 255 
3 269 261 235 0 0 255 255 
3 235 266 269 0 0 255 255 
3 266 257 268 0 0 255 255 
3 258 263 253 0 0 255 255 
3 252 255 258 0 0 255 255 
3 246 262 267 0 0 255 255 
3 261 242 235 0 0 255 255 
3 235 257 266 0 0 255 255 
3 256 265 257 0 0 255 255 
3 256 241 264 0 0 255 255 
3 243 253 263 0 0 255 255 
3 262 246 245 0 0 255 255 
3 237 242 260 0 0 255 255 
3 242 261 260 0 0 255 255 
3 241 249 259 0 0 255 255 
3 244 231 248 0 0 255 255 
3 253 252 258 0 0 255 255 
3 246 251 233 0 0 255 255 
3 257 235 236 0 0 255 255 
3 257 236 234 0 0 255 255 
3 234 241 256 0 0 255 255 
3 243 240 253 0 0 255 255 
3 240 229 252 0 0 255 255 
3 229 255 252 0 0 255 255 
3 251 255 229 0 0 255 255 
3 254 238 237 0 0 255 255 
3 241 234 232 0 0 255 255 
3 231 228 248 0 0 255 255 
3 243 230 240 0 0 255 255 
3 253 240 252 0 0 255 255 
3 229 233 251 0 0 255 255 
3 250 239 238 0 0 255 255 
3 241 244 249 0 0 255 255 
3 228 247 248 0 0 255 255 
3 247 228 243 0 0 255 255 
3 241 222 244 0 0 255 255 
3 245 246 233 0 0 255 255 
3 245 233 224 0 0 255 255 
3 238 223 237 0 0 255 255 
3 227 234 236 0 0 255 255 
3 222 231 244 0 0 255 255 
3 243 228 230 0 0 255 255 
3 230 221 240 0 0 255 255 
3 229 240 225 0 0 255 255 
3 242 237 227 0 0 255 255 
3 235 242 227 0 0 255 255 
3 226 241 232 0 0 255 255 
3 241 226 214 0 0 255 255 
3 214 222 241 0 0 255 255 
3 221 225 240 0 0 255 255 
3 229 225 220 0 0 255 255 
3 239 223 238 0 0 255 255 
3 223 227 237 0 0 255 255 
3 227 236 235 0 0 255 255 
3 222 205 231 0 0 255 255 
3 229 208 233 0 0 255 255 
3 227 215 234 0 0 255 255 
3 215 232 234 0 0 255 255 
3 231 205 213 0 0 255 255 
3 219 228 231 0 0 255 255 
3 228 206 230 0 0 255 255 
3 208 224 233 0 0 255 255 
3 215 226 232 0 0 255 255 
3 213 219 231 0 0 255 255 
3 211 218 228 0 0 255 255 
3 218 206 228 0 0 255 255 
3 230 206 221 0 0 255 255 
3 221 209 225 0 0 255 255 
3 220 208 229 0 0 255 255 
3 223 207 227 0 0 255 255 
3 219 211 228 0 0 255 255 
3 196 204 224 0 0 255 255 
3 202 211 219 0 0 255 255 
3 206 210 221 0 0 255 255 
3 225 217 220 0 0 255 255 
3 223 195 207 0 0 255 255 
3 207 215 227 0 0 255 255 
3 215 214 226 0 0 255 255 
3 198 219 213 0 0 255 255 
3 219 212 202 0 0 255 255 
3 209 221 188 0 0 255 255 
3 209 217 225 0 0 255 255 
3 208 196 224 0 0 255 255 
3 223 203 195 0 0 255 255 
3 222 214 205 0 0 255 255 
3 211 197 218 0 0 255 255 
3 210 206 192 0 0 255 255 
3 210 188 221 0 0 255 255 
3 220 217 200 0 0 255 255 
3 200 208 220 0 0 255 255 
3 215 199 214 0 0 255 255 
3 198 212 219 0 0 255 255 
3 218 197 206 0 0 255 255 
3 210 192 201 0 0 255 255 
3 209 187 217 0 0 255 255 
3 217 187 200 0 0 255 255 
3 200 191 208 0 0 255 255 
3 204 190 216 0 0 255 255 
3 207 199 215 0 0 255 255 
3 214 199 194 0 0 255 255 
3 194 205 214 0 0 255 255 
3 205 198 213 0 0 255 255 
3 198 193 212 0 0 255 255 
3 193 202 212 0 0 255 255 
3 202 197 211 0 0 255 255 
3 201 188 210 0 0 255 255 
3 188 187 209 0 0 255 255 
3 191 196 208 0 0 255 255 
3 195 199 207 0 0 255 255 
3 194 189 205 0 0 255 255 
3 197 192 206 0 0 255 255 
3 194 199 176 0 0 255 255 
3 189 198 205 0 0 255 255 
3 193 179 202 0 0 255 255 
3 187 185 200 0 0 255 255 
3 196 190 204 0 0 255 255 
3 184 195 203 0 0 255 255 
3 198 180 193 0 0 255 255 
3 179 197 202 0 0 255 255 
3 192 186 201 0 0 255 255 
3 188 201 186 0 0 255 255 
3 187 174 185 0 0 255 255 
3 200 185 191 0 0 255 255 
3 176 199 195 0 0 255 255 
3 189 194 169 0 0 255 255 
3 189 180 198 0 0 255 255 
3 179 192 197 0 0 255 255 
3 191 190 196 0 0 255 255 
3 184 176 195 0 0 255 255 
3 176 169 194 0 0 255 255 
3 180 179 193 0 0 255 255 
3 179 172 192 0 0 255 255 
3 192 172 183 0 0 255 255 
3 183 186 192 0 0 255 255 
3 191 185 178 0 0 255 255 
3 178 190 191 0 0 255 255 
3 182 181 190 0 0 255 255 
3 172 165 183 0 0 255 255 
3 188 167 187 0 0 255 255 
3 187 166 174 0 0 255 255 
3 178 182 190 0 0 255 255 
3 189 169 168 0 0 255 255 
3 189 168 180 0 0 255 255 
3 188 186 167 0 0 255 255 
3 187 167 166 0 0 255 255 
3 180 168 160 0 0 255 255 
3 183 165 171 0 0 255 255 
3 183 167 186 0 0 255 255 
3 185 174 178 0 0 255 255 
3 170 176 175 0 0 255 255 
3 169 176 170 0 0 255 255 
3 177 176 184 0 0 255 255 
3 168 169 155 0 0 255 255 
3 171 150 183 0 0 255 255 
3 167 183 150 0 0 255 255 
3 167 158 166 0 0 255 255 
3 178 162 182 0 0 255 255 
3 182 162 181 0 0 255 255 
3 181 162 164 0 0 255 255 
3 155 161 168 0 0 255 255 
3 179 180 160 0 0 255 255 
3 160 172 179 0 0 255 255 
3 172 163 165 0 0 255 255 
3 174 162 178 0 0 255 255 
3 177 175 176 0 0 255 255 
3 173 170 175 0 0 255 255 
3 141 171 165 0 0 255 255 
3 154 150 171 0 0 255 255 
3 153 174 166 0 0 255 255 
3 153 162 174 0 0 255 255 
3 173 155 170 0 0 255 255 
3 160 163 172 0 0 255 255 
3 141 154 171 0 0 255 255 
3 158 159 166 0 0 255 255 
3 164 162 152 0 0 255 255 
3 170 155 169 0 0 255 255 
3 168 161 151 0 0 255 255 
3 151 160 168 0 0 255 255 
3 160 147 163 0 0 255 255 
3 167 150 158 0 0 255 255 
3 159 153 166 0 0 255 255 
3 153 157 162 0 0 255 255 
3 163 141 165 0 0 255 255 
3 146 159 158 0 0 255 255 
3 143 164 152 0 0 255 255 
3 151 142 160 0 0 255 255 
3 149 163 147 0 0 255 255 
3 149 141 163 0 0 255 255 
3 158 138 146 0 0 255 255 
3 145 153 159 0 0 255 255 
3 157 152 162 0 0 255 255 
3 161 155 148 0 0 255 255 
3 148 151 161 0 0 255 255 
3 142 147 160 0 0 255 255 
3 149 132 141 0 0 255 255 
3 146 140 159 0 0 255 255 
3 140 145 159 0 0 255 255 
3 152 157 144 0 0 255 255 
3 154 141 131 0 0 255 255 
3 150 138 158 0 0 255 255 
3 135 153 145 0 0 255 255 
3 144 157 153 0 0 255 255 
3 152 129 143 0 0 255 255 
3 156 148 155 0 0 255 255 
3 131 150 154 0 0 255 255 
3 135 144 153 0 0 255 255 
3 144 129 152 0 0 255 255 
3 148 142 151 0 0 255 255 
3 132 120 141 0 0 255 255 
3 131 138 150 0 0 255 255 
3 144 127 129 0 0 255 255 
3 142 148 133 0 0 255 255 
3 147 134 132 0 0 255 255 
3 132 149 147 0 0 255 255 
3 137 133 148 0 0 255 255 
3 147 142 134 0 0 255 255 
3 138 140 146 0 0 255 255 
3 145 140 136 0 0 255 255 
3 136 135 145 0 0 255 255 
3 135 127 144 0 0 255 255 
3 129 139 143 0 0 255 255 
3 133 134 142 0 0 255 255 
3 134 123 132 0 0 255 255 
3 120 131 141 0 0 255 255 
3 131 122 138 0 0 255 255 
3 140 138 136 0 0 255 255 
3 129 130 139 0 0 255 255 
3 136 128 119 0 0 255 255 
3 119 135 136 0 0 255 255 
3 118 129 127 0 0 255 255 
3 134 121 123 0 0 255 255 
3 138 122 136 0 0 255 255 
3 137 124 133 0 0 255 255 
3 122 128 136 0 0 255 255 
3 135 119 127 0 0 255 255 
3 124 121 133 0 0 255 255 
3 121 134 133 0 0 255 255 
3 121 117 123 0 0 255 255 
3 123 109 132 0 0 255 255 
3 109 120 132 0 0 255 255 
3 120 122 131 0 0 255 255 
3 118 125 129 0 0 255 255 
3 125 130 129 0 0 255 255 
3 122 120 116 0 0 255 255 
3 127 119 114 0 0 255 255 
3 116 115 122 0 0 255 255 
3 107 128 122 0 0 255 255 
3 128 107 119 0 0 255 255 
3 114 118 127 0 0 255 255 
3 118 126 125 0 0 255 255 
3 121 124 111 0 0 255 255 
3 123 117 109 0 0 255 255 
3 115 107 122 0 0 255 255 
3 117 121 113 0 0 255 255 
3 111 113 121 0 0 255 255 
3 109 116 120 0 0 255 255 
3 104 114 119 0 0 255 255 
3 116 109 106 0 0 255 255 
3 107 104 119 0 0 255 255 
3 114 105 118 0 0 255 255 
3 117 113 109 0 0 255 255 
3 115 116 106 0 0 255 255 
3 106 107 115 0 0 255 255 
3 110 109 113 0 0 255 255 
3 109 101 106 0 0 255 255 
3 106 103 107 0 0 255 255 
3 104 105 114 0 0 255 255 
3 112 113 111 0 0 255 255 
3 101 109 108 0 0 255 255 
3 103 100 107 0 0 255 255 
3 109 110 108 0 0 255 255 
3 100 104 107 0 0 255 255 
3 106 101 103 0 0 255 255 
3 100 105 104 0 0 255 255 
3 103 101 100 0 0 255 255 
3 101 102 100 0 0 255 255 
