ply
format ascii 1.0
comment VCGLIB generated
element vertex 417
property float x
property float y
property float z
property float nx
property float ny
property float nz
element face 830
property list uchar int vertex_indices
property uchar red
property uchar green
property uchar blue
property uchar alpha
end_header
10.1881 -0.324073 12.5805 0.4186968 -0.2499065 -0.8730634 
10.6906 -0.306611 12.4573 0.1530286 -0.329314 -0.9317374 
10.89587 0.108657 17.55017 0.6570946 -0.04984212 0.7521585 
6.609817 -0.861559 13.34076 -0.6302056 -0.761736 0.1503303 
9.331475 -2.32265 15.83551 0.0053335 -0.929396 -0.3690455 
7.70379 -1.615161 14.78674 -0.5980074 -0.7998926 0.05058667 
6.621638 -0.692433 14.07514 -0.6948554 -0.7018238 0.1569056 
7.871407 -1.336896 12.07915 0.1636329 -0.9865039 -0.005865874 
9.940147 -2.246667 15.69073 0.05093151 -0.9204838 -0.3874474 
7.12166 -1.208208 13.03481 -0.4872662 -0.8726499 0.03246167 
9.300398 -1.866723 14.54199 0.1791435 -0.9541473 -0.2398135 
7.407616 -1.415244 14.27114 -0.6828718 -0.7187464 0.1307284 
7.235355 -1.014474 15.41814 -0.7384916 -0.6462795 0.1922316 
7.001198 -0.975323 14.50801 -0.6919944 -0.7041854 0.1589551 
7.532112 -1.651171 13.48046 -0.5183802 -0.8393704 -0.1635216 
6.976366 -0.442728 15.92034 -0.7803319 -0.5388605 0.317351 
7.294462 3.892609 17.49491 -0.9511853 0.0206509 0.3079287 
7.076043 2.823681 16.90897 -0.9454371 0.1305071 0.2985242 
6.873658 -0.639208 15.37592 -0.7138793 -0.6609145 0.2314488 
7.03303 -1.163418 13.81008 -0.671007 -0.7356272 0.09274872 
7.616305 -0.970417 16.98019 -0.7194133 -0.6658493 0.1977099 
8.400138 -1.688223 13.0942 0.07235023 -0.8806856 -0.4681436 
7.72898 -1.399457 12.71616 -0.1130095 -0.9657428 -0.2336019 
9.775596 -0.942781 12.72743 0.4219265 -0.7160648 -0.5560839 
10.23909 -1.110932 13.28749 0.3754104 -0.7499831 -0.544603 
11.61921 -0.926844 15.05617 0.7213343 -0.60857 -0.3306348 
11.56077 -0.164984 14.01378 0.7713419 -0.3943977 -0.499482 
11.02519 -2.041467 15.80341 0.5301479 -0.7378852 -0.4176946 
12.36899 2.718302 15.03116 0.9819459 -0.1487301 -0.1168829 
11.20146 -1.085072 14.46506 0.6723261 -0.6288679 -0.3905161 
10.7911 -0.621511 13.12681 0.5436534 -0.6226231 -0.5628335 
12.45442 3.174999 14.74149 0.9561104 -0.2762453 -0.09768108 
11.79243 1.52088 13.73098 0.9081143 -0.1356878 -0.3961278 
11.18134 -0.68155 13.89982 0.733206 -0.5262118 -0.4307089 
8.315374 -2.153863 15.37099 -0.3923692 -0.9046098 -0.1665159 
11.25991 0.525453 13.12246 0.8808812 -0.1758756 -0.4394498 
11.70043 -1.192825 15.62232 0.7416469 -0.5650616 -0.3614765 
10.85633 -1.559066 14.81909 0.4860557 -0.7567737 -0.4370852 
10.55288 -2.674203 16.68088 0.1799273 -0.850324 -0.4945455 
9.594812 -2.039428 15.13247 0.07137565 -0.9337696 -0.350685 
8.808064 -1.24244 12.54811 0.2864702 -0.8720776 -0.3967562 
9.190277 -1.406108 13.24064 0.3233166 -0.8366837 -0.4420711 
8.711453 -1.950749 14.63809 -0.07477023 -0.9883461 -0.1325952 
10.28421 -1.644966 14.41453 0.2598166 -0.8872955 -0.381054 
9.717867 -2.560403 16.3859 -0.07154942 -0.9316989 -0.3561151 
9.075326 -2.49761 17.15779 -0.5719038 -0.8135231 -0.1053866 
8.430936 -1.820187 17.15416 -0.7562216 -0.6318198 0.1700961 
8.070981 -1.568268 16.51295 -0.747939 -0.6043237 0.2745544 
7.361814 3.418018 17.68925 -0.8575365 0.05557635 0.5114123 
7.288983 2.889215 17.44163 -0.9325672 -0.01337878 0.3607484 
7.217256 0.013517 17.07417 -0.8220087 -0.03256325 0.5685432 
7.332132 -1.20818 14.93263 -0.7102121 -0.6913995 0.132535 
7.254851 -0.578512 16.58346 -0.8748254 -0.4376059 0.2078021 
6.330394 0.382314 15.07329 -0.9550721 -0.02633729 0.2952011 
7.921551 -1.763168 15.35689 -0.7250038 -0.6829387 0.08924261 
6.638433 -0.554372 14.78133 -0.7735452 -0.5980844 0.2095779 
6.482264 -0.167216 15.40057 -0.8778428 -0.3624861 0.3130432 
6.946557 0.035067 16.4146 -0.9026028 -0.1653285 0.3974605 
6.632137 0.631402 15.74577 -0.9029027 -0.05589624 0.4261951 
6.817767 1.291673 16.24723 -0.9076098 -0.02936727 0.4187866 
7.152853 1.331523 16.9905 -0.9125891 -0.006758362 0.4088221 
6.973227 2.06851 16.6373 -0.9236531 -0.01704067 0.3828505 
7.238587 2.37087 17.30933 -0.9065515 -0.05131194 0.4189647 
7.140934 3.309163 17.05917 -0.9747433 0.01367929 0.2229089 
7.285373 4.411383 17.37337 -0.9568858 0.1261707 0.2616307 
7.383023 4.851264 17.56923 -0.9719853 0.01972975 0.2342125 
7.43981 4.97485 17.7383 -0.9242843 0.1016184 0.3679297 
7.500277 -1.196035 15.94587 -0.7682072 -0.6049666 0.209459 
8.107344 -1.91337 16.08707 -0.6992888 -0.6278999 0.3416678 
8.40669 -2.219337 16.0541 -0.4625979 -0.7316408 0.5007044 
8.681746 -2.36812 15.98817 -0.3091609 -0.9455181 0.1020539 
7.857687 -1.874133 14.0707 -0.3619401 -0.9119173 0.1934068 
8.13568 -2.01763 13.79247 -0.1191778 -0.9887186 -0.09073117 
8.616444 -1.92805 13.71233 0.2242202 -0.96306 -0.1491335 
9.594927 -1.609993 13.8554 0.287995 -0.8794598 -0.3789583 
10.50776 -2.14017 15.55383 0.219429 -0.8772442 -0.4269584 
10.74993 -1.184734 13.83437 0.5158483 -0.7444763 -0.4238581 
11.1113 -1.75009 15.2967 0.560718 -0.7118576 -0.4229116 
11.3113 -1.352294 15.06907 0.6784274 -0.6048002 -0.4170766 
11.54313 -0.718188 14.49173 0.68561 -0.5807692 -0.4389147 
11.25097 -0.14173 13.37337 0.7833611 -0.346581 -0.5159721 
11.48293 0.311134 13.54877 0.8334422 -0.2334919 -0.500855 
11.8882 0.364966 14.17623 0.8695956 -0.148643 -0.4708595 
11.73137 1.053797 13.71157 0.851763 -0.1069328 -0.5128988 
11.9946 1.086887 14.37293 0.9365335 -0.07073764 -0.3433676 
12.0781 1.47854 14.4979 0.9251726 -0.1456655 -0.3504814 
11.96443 1.774173 14.04767 0.9296417 -0.1325179 -0.3438101 
12.19773 1.962313 14.6623 0.9461295 -0.1072412 -0.3055133 
12.28477 2.668807 14.43437 0.9456351 -0.1922819 -0.2623013 
12.59283 3.660927 14.97363 0.9695356 -0.172772 0.1736387 
11.0997 4.49636 17.3301 0.682653 0.6497393 0.3344007 
11.2941 2.79437 17.7665 0.9487888 0.02140035 0.3151854 
11.1237 1.24834 17.4408 0.7902372 -0.1727938 0.587935 
8.44829 -1.11899 11.7778 0.2879036 -0.2766647 -0.9168251 
10.4243 -0.277455 12.6444 0.02882799 0.00157867 -0.9995831 
7.83412 -1.19325 11.8442 -0.179258 0.3953335 -0.9008763 
7.43695 -1.49224 11.7435 -0.1410287 -0.1700548 -0.9752909 
9.42012 -0.41542 12.3155 0.2884888 0.2763987 -0.9167213 
9.35946 -0.680281 12.1542 0.4337803 -0.1513944 -0.8882085 
9.96945 -0.302749 12.5133 0.3058053 0.2758669 -0.9112522 
7.57577 -0.933238 12.04 -0.3086163 0.4362657 -0.8452386 
8.48251 -0.946285 11.8187 0.07539039 0.2988489 -0.9513178 
10.9103 0.213244 12.8351 0.2968441 0.186953 -0.9364465 
7.006 -1.38773 12.0182 -0.561842 -0.6934878 -0.4510081 
8.769 -0.455344 12.04 0.1988692 0.3321764 -0.9220141 
10.0326 0.114591 12.6308 0.3409289 0.1902633 -0.9206343 
6.94247 -0.945964 12.3335 -0.5211698 0.4419623 -0.7301037 
8.53352 -0.153265 12.1689 -0.01999125 0.416096 -0.9091009 
9.63819 0.091066 12.4598 0.3027315 0.1867037 -0.9346097 
8.17172 -0.402211 12.0788 -0.1730547 0.4014937 -0.8993636 
10.4896 0.231647 12.8488 0.2392434 0.2745818 -0.9313257 
8.9731 0.138186 12.3188 0.1718766 0.3145178 -0.9335615 
10.7465 0.497413 12.9927 0.183919 0.2389915 -0.9534447 
6.60297 -1.06175 12.5782 -0.9080858 -0.1325113 -0.3972669 
7.70791 -0.114921 12.3268 -0.3692338 0.4562819 -0.8096131 
10.3829 0.504285 12.8236 0.3727284 0.1134465 -0.9209796 
7.07253 -0.620813 12.4494 -0.5470508 0.440566 -0.7117844 
9.87432 0.760538 12.6878 0.2158044 0.2704479 -0.9382358 
6.77407 -0.489913 12.8024 -0.6677853 0.4475464 -0.5947816 
8.33371 0.612394 12.5778 -0.1886423 0.5366842 -0.8224258 
11.261 1.19754 13.1919 0.3837988 0.2087487 -0.8995124 
6.48593 -0.500056 13.2267 -0.6807957 0.5071575 -0.5284966 
8.93869 0.570206 12.487 0.01716926 0.4331544 -0.9011562 
10.846 1.37389 13.1139 0.3220231 0.1227262 -0.9387436 
11.3865 1.05198 12.9835 0.8241617 0.05264355 -0.5639027 
7.26245 0.081001 12.7063 -0.5392026 0.4971849 -0.6797556 
6.19345 -0.359509 13.634 -0.9350357 0.1033031 -0.3391705 
10.0288 1.39988 12.9675 -0.02761528 0.4821101 -0.8756753 
8.83668 0.993797 12.7472 -0.1259379 0.5975929 -0.7918475 
10.8132 1.89877 13.1807 0.1193182 0.2463149 -0.9618171 
11.5227 1.98687 13.4625 0.3811105 0.196097 -0.9034936 
6.48625 0.082037 13.8349 -0.7290439 0.5129809 -0.4531508 
7.88785 0.934537 13.0193 -0.3506579 0.6461604 -0.6778761 
8.53196 1.28965 13.1221 -0.2510549 0.688096 -0.6808049 
10.5184 1.98601 13.2395 -0.1740623 0.4397478 -0.8810927 
6.13446 0.099717 14.4359 -0.7785302 0.561459 -0.2804542 
11.4739 2.76385 13.4746 0.4396823 0.04663014 -0.8969421 
11.6815 1.73467 13.4337 0.6745703 0.01743 -0.7380049 
5.99461 -0.026799 14.3759 -0.9915079 -0.1014329 0.08138404 
6.94565 0.551872 13.4838 -0.7148351 0.5007132 -0.4881567 
7.43626 0.856743 13.224 -0.5372227 0.6195915 -0.5722746 
9.58568 1.74409 13.2629 -0.1833513 0.6128229 -0.7686549 
8.75358 2.12963 13.9884 -0.355655 0.7072892 -0.6109432 
10.7974 2.40742 13.3411 -0.1985658 0.3144176 -0.9282851 
11.8352 2.03815 13.6169 0.7642046 0.02674935 -0.644419 
6.50166 0.864037 14.6723 -0.7375773 0.5466743 -0.3963924 
9.95516 2.31549 13.5744 -0.3264078 0.5366967 -0.7780839 
11.9681 2.44192 13.7951 0.7738922 -0.04539248 -0.6316885 
10.4788 2.51989 13.4967 -0.3297584 0.3949385 -0.8574865 
11.4255 3.20456 13.4816 0.1209962 0.1486571 -0.9814586 
7.55329 1.30484 13.6912 -0.449789 0.7212015 -0.5268379 
9.14001 2.01786 13.671 -0.3003163 0.6620932 -0.6866169 
6.63037 0.595782 14.0916 -0.7697878 0.4870993 -0.4125057 
7.00399 1.23334 14.2666 -0.6455339 0.6268435 -0.4362949 
11.8382 2.83902 13.7077 0.6057646 0.0009090125 -0.7956434 
8.21275 2.02259 14.2012 -0.4275412 0.7180232 -0.5492278 
11.095 3.29 13.5448 -0.3197041 0.2913255 -0.9016201 
11.7608 3.7164 13.6534 0.5226145 0.04550487 -0.8513539 
12.2221 3.16081 14.048 0.7852198 -0.04562341 -0.617534 
11.5639 4.10781 13.5916 0.178267 0.1727884 -0.9686925 
6.37446 1.21444 15.3834 -0.9646515 0.2579474 0.05395024 
9.53501 2.76078 14.1708 -0.422087 0.6034698 -0.6765108 
12.4454 3.806 14.4168 0.7614088 0.2041128 -0.6153004 
12.6377 3.66918 14.4086 0.9012765 0.1157625 -0.4174923 
6.59916 1.30496 15.2256 -0.6634088 0.5954457 -0.4531372 
10.454 2.93918 13.727 -0.4412677 0.4550299 -0.7734537 
12.0711 3.44813 13.8969 0.7151173 -0.003611715 -0.6989952 
12.5314 4.10252 14.7978 0.9149175 0.3452943 -0.20904 
7.88164 2.24847 14.8303 -0.5177658 0.6993743 -0.4927414 
7.02556 1.81539 15.1682 -0.6387265 0.6249283 -0.4488798 
8.80726 2.62418 14.5201 -0.4385368 0.6588334 -0.611248 
11.4112 4.10926 13.6154 -0.3863259 0.2583705 -0.8854361 
9.84932 3.16769 14.2903 -0.4841065 0.5072692 -0.7129649 
10.3898 3.46351 14.0731 -0.5429493 0.3891855 -0.7441376 
7.3811 2.45784 15.5986 -0.5694916 0.6031706 -0.5584484 
8.21872 2.7142 15.0988 -0.5145654 0.6326008 -0.5788252 
11.4944 4.5889 13.7409 -0.2525544 0.3828243 -0.8886292 
12.231 4.09454 14.0358 0.7022412 0.05599431 -0.7097337 
12.4086 4.88862 14.4036 0.8949676 0.1932026 -0.4021267 
12.459 4.0912 15.1115 0.6614754 0.4541904 0.5967928 
12.7 4.12659 15.1308 0.7241189 0.5675681 0.3918142 
6.69135 2.08053 15.9403 -0.8377243 0.4684895 -0.2805985 
11.9227 4.89796 13.9035 0.3519712 0.3192516 -0.8798833 
6.8635 2.08308 15.7248 -0.5965658 0.6461238 -0.4760602 
10.9572 4.09877 13.9126 -0.5895183 0.3391405 -0.7331112 
8.78139 3.34045 15.1963 -0.525413 0.5164995 -0.6761431 
10.3416 3.83983 14.3296 -0.571546 0.4506721 -0.6857331 
12.1382 4.82704 14.0569 0.6863691 0.2045233 -0.6979024 
9.27625 3.59353 15.0112 -0.5189792 0.4662748 -0.7164137 
7.96978 3.01039 15.5853 -0.5317466 0.5492063 -0.6446845 
9.58552 4.10254 15.0638 -0.5209036 0.4393645 -0.7318595 
12.0678 5.37287 14.228 0.5290663 0.5067801 -0.6806341 
12.4764 4.91571 14.8012 0.9687609 0.2268266 0.1002593 
12.4921 3.80228 15.3041 0.5438522 0.08951836 0.8343928 
12.2744 3.62424 15.4714 0.7720827 0.03371143 0.6346273 
11.2175 4.77553 14 -0.5372416 0.4432413 -0.7175713 
7.52877 3.28256 16.1483 -0.5559371 0.4527293 -0.6971156 
9.99861 4.11368 14.8025 -0.5321968 0.4435036 -0.7211596 
12.2676 5.12659 15.2492 0.8430208 0.2551503 0.4735128 
7.03479 2.72143 16.209 -0.5398874 0.5019607 -0.6756901 
8.90445 3.98232 15.4844 -0.5596201 0.3954642 -0.7283087 
10.5496 4.58757 14.6039 -0.6165797 0.3939542 -0.6816375 
11.7052 5.31846 14.1422 -0.1481762 0.6084358 -0.7796472 
8.44172 3.79611 15.7681 -0.5677382 0.4282226 -0.7030638 
12.1457 4.67651 15.6066 0.8324115 0.1390422 0.5364312 
9.88453 4.64645 15.1432 -0.5294566 0.3790349 -0.7589521 
12.1242 4.02777 15.7494 0.7943918 0.04844459 0.6054708 
12.1286 3.19028 15.7205 0.858127 -0.004481041 0.5134179 
6.84861 2.79101 16.3584 -0.9021868 0.411577 -0.1290867 
7.14638 3.13536 16.386 -0.7862288 0.3975004 -0.4731148 
12.1499 5.72065 14.7517 0.8064294 0.5432501 -0.2335616 
11.9468 4.78755 15.8118 0.8069699 0.182722 0.5616159 
8.05169 4.24718 16.3366 -0.497227 0.3992564 -0.7702984 
9.40929 4.92722 15.5849 -0.5339095 0.3797813 -0.7554514 
11.216 5.34676 14.4322 -0.4968575 0.5412089 -0.6783993 
12.1097 5.77569 14.9988 0.6511388 0.7418637 0.1601767 
11.985 3.84717 15.8933 0.8285944 0.05575768 0.5570659 
12.277 2.69189 15.398 0.7322863 -0.08145905 0.6761074 
12.4408 3.18701 15.3815 0.8915417 -0.09990086 0.4417843 
8.92331 4.80769 15.9016 -0.6135721 0.3600079 -0.7027971 
11.9563 5.84436 14.6602 0.2474183 0.8668127 -0.4329202 
7.25167 4.01272 16.7439 -0.4841776 0.3814338 -0.7874518 
7.61112 4.15491 16.5447 -0.5093457 0.3907887 -0.7667145 
8.43468 4.8039 16.3592 -0.5955032 0.3837394 -0.7057762 
11.9593 3.10691 16.0511 0.94167 0.01245605 0.336307 
10.3617 5.50378 15.2481 -0.5147115 0.4997983 -0.6966159 
11.6445 5.78625 14.6236 -0.2549058 0.7681902 -0.5872877 
11.9228 5.15832 15.6918 0.7277313 0.3423179 0.5943279 
11.8512 4.35444 16.1009 0.9497191 0.09311129 0.2989381 
11.9461 5.74825 15.3682 0.6442297 0.6269153 0.4381159 
7.08676 4.14887 16.8627 -0.9539525 0.2345118 -0.1870265 
7.543 4.66589 16.8463 -0.5299426 0.3721189 -0.7620291 
10.9399 5.67795 14.9228 -0.4422205 0.6666749 -0.5999881 
11.763 4.65922 16.2225 0.8583133 0.2282096 0.4595853 
11.8879 3.25502 16.5033 0.9258893 0.09635016 0.3653022 
12.1429 1.95371 15.6176 0.9378535 -0.03946984 0.3447795 
12.3814 2.29909 15.2776 0.9043936 -0.1278913 0.4070823 
9.93413 5.63251 15.6159 -0.3829646 0.5856941 -0.7143533 
10.9412 5.94395 15.2758 -0.3094299 0.80967 -0.4986859 
11.3364 5.96812 15.119 0.01021473 0.9765765 -0.2149278 
11.6048 5.76746 15.7482 0.6270729 0.4876451 0.6074387 
11.8482 4.01328 16.3449 0.8937746 0.1847453 0.4087005 
8.35647 5.20749 16.6316 -0.5608476 0.3972219 -0.7264054 
8.82476 5.51477 16.3458 -0.6239197 0.4699254 -0.6244152 
11.4703 4.92443 16.4691 0.7583739 0.3545519 0.5469571 
11.9031 1.87782 16.2109 0.939756 -0.03540427 0.3400078 
12.281 2.01693 15.2657 0.7198769 -0.2007754 0.6644295 
7.88283 5.25685 16.8874 -0.515534 0.4686956 -0.7173209 
9.40952 5.82328 16.0246 -0.4727133 0.6188818 -0.6273177 
11.3226 5.2016 16.4299 0.669409 0.5513747 0.4978729 
12.1522 1.30911 15.3747 0.986088 -0.1133602 0.1215729 
11.5006 5.53986 15.9292 0.6274502 0.3575295 0.6917217 
11.1558 5.48997 16.3007 0.6428909 0.5079793 0.5732787 
10.4352 6.09656 15.8708 -0.3066317 0.8049646 -0.507946 
11.8266 2.71116 16.7186 0.9092333 -0.03680765 0.4146563 
11.8673 0.525161 16.2495 0.9089206 -0.02416437 0.4162686 
7.34224 4.80946 17.0707 -0.7697458 0.3527184 -0.5320538 
8.70042 5.63263 16.6343 -0.5611058 0.5914446 -0.5790973 
11.1623 4.61911 17.0449 0.7156385 0.4474077 0.5363654 
11.3442 4.1794 17.1369 0.8604524 0.3149175 0.4005604 
12.0627 0.342855 15.7342 0.972432 -0.06743228 0.2232239 
9.09969 5.97393 16.5324 -0.5513989 0.7013974 -0.4516648 
9.66016 6.04818 16.1541 -0.2757792 0.8312553 -0.4826599 
10.984 6.01549 15.9373 0.3781996 0.8850167 0.271497 
11.0373 5.18861 16.8584 0.6615376 0.476178 0.5793295 
11.5509 2.68781 17.0736 0.8522037 0.02450351 0.5226362 
11.6835 1.70183 16.7078 0.8936871 -0.07875624 0.4417248 
7.31228 5.128 17.2052 -0.9180375 0.2608476 -0.2986064 
7.52966 5.22407 17.2062 -0.346822 0.5700238 -0.7448406 
10.8714 5.88509 16.2628 0.5562061 0.6045127 0.5702624 
11.3719 3.68828 17.3319 0.9319911 0.08205725 0.3530711 
12.1762 1.15125 14.9676 0.9706038 -0.1996381 0.1344354 
12.3766 1.5497 15.0924 0.9516842 -0.2478765 0.181258 
10.5846 6.14082 15.9218 0.02019843 0.9960824 -0.08609296 
8.64872 5.84063 16.9691 -0.4520032 0.8521596 -0.2636612 
9.28608 6.09671 16.6052 -0.2536475 0.9509631 -0.1770093 
10.6159 4.92351 17.3862 0.5682943 0.5201476 0.6375642 
12.0937 0.841393 15.0328 0.9849129 -0.1214155 0.1233083 
7.59099 5.5429 17.4968 -0.4131903 0.814098 -0.4080664 
11.3479 2.4086 17.5042 0.9488823 -0.06298898 0.3092809 
11.5051 1.91791 17.0785 0.8583782 -0.1158266 0.4997711 
11.8494 -0.417744 16.1863 0.9264514 -0.07766002 0.368316 
7.37971 5.46851 17.4503 -0.8563807 0.5087808 -0.08805821 
10.3949 5.75249 16.9379 0.5305319 0.6535963 0.5397663 
11.4998 0.56539 16.9058 0.832313 -0.03646575 0.5531052 
10.359 5.45372 17.3038 0.5522394 0.5191318 0.6523296 
11.2278 4.18204 17.69 0.8632743 0.3328868 0.3793994 
11.5715 -0.08774 16.8062 0.8436404 -0.0346676 0.5357884 
9.09549 6.05796 16.8681 -0.2940356 0.9531196 0.07145727 
10.2329 6.0767 16.6373 0.2924693 0.8880964 0.3546076 
11.5268 -1.45541 16.6941 0.8898613 -0.1206009 0.4400026 
10.3793 4.76774 17.7742 0.4045252 0.800501 0.4422189 
10.9558 4.54021 17.5498 0.5604653 0.7480275 0.3554342 
7.48264 5.49876 17.7124 -0.6525343 0.6304746 0.4203581 
8.02154 5.7316 17.4414 -0.1956372 0.9621251 0.1898461 
8.64232 5.838 17.1968 -0.1650012 0.9398276 0.2991635 
12.0555 -0.132949 15.2801 0.9892896 -0.142591 -0.03120559 
9.53894 6.07423 17.0096 -0.04484003 0.9383655 0.3427237 
9.91988 5.46986 17.612 0.4532929 0.5468393 0.7039123 
11.3195 0.108726 17.1261 0.7481376 -0.03841455 0.6624307 
11.894 -0.794784 15.9004 0.9503367 0.01235175 0.3109786 
9.93154 4.84013 17.9678 0.2633106 0.6566558 0.7067324 
12.0375 -0.006575 14.9112 0.9681803 -0.05938841 0.2431047 
10.4102 4.49018 18.2616 0.4589343 0.6573197 0.5977542 
11.5838 -1.60271 16.4351 0.8741661 -0.04427437 0.4836046 
12.1261 0.37474 14.7175 0.9978211 -0.005314644 -0.06576397 
9.76628 5.06376 17.9215 0.3933255 0.3724572 0.8405775 
11.0836 4.18719 17.8837 0.6778216 0.3728647 0.6336638 
11.0984 3.11454 18.0715 0.7962394 0.08965848 0.5983011 
11.2268 2.22757 17.9859 0.8545815 -0.004828187 0.5192949 
11.2199 1.86613 17.91 0.8976496 -0.2713136 0.3472956 
11.1688 -0.82515 17.2612 0.7410931 -0.06036064 0.6686836 
9.94606 4.4953 18.4756 0.1170049 0.6475922 0.7529504 
11.7868 -1.51613 16.1902 0.944508 -0.3231064 0.05921964 
7.86658 5.34556 18.1251 -0.4031 0.6010005 0.6901513 
7.64115 5.38728 17.8885 -0.8175237 0.08072507 0.5702092 
8.38153 5.52424 17.8053 -0.05850488 0.9012226 0.429389 
8.92491 5.65399 17.647 -0.1358414 0.9019774 0.4098583 
12.152 -0.331822 14.8277 0.9717702 -0.2001063 -0.1249813 
9.07153 5.56575 17.9172 -0.01416791 0.8667929 0.4984671 
9.52537 5.87644 17.3679 0.2664382 0.779282 0.5672126 
10.9197 3.62775 18.1777 0.642751 0.156455 0.7499287 
10.8005 1.31788 17.9028 0.7050161 -0.4591038 0.5405331 
11.182 1.57766 17.5594 0.866577 -0.3153906 0.3867469 
10.8385 0.856243 17.6874 0.6733778 -0.1684026 0.7198633 
11.2314 -2.17933 16.9565 0.7872853 -0.1428447 0.5998143 
11.4565 -2.23414 16.5597 0.878916 -0.4749198 0.0442486 
12.0032 -0.710051 15.6077 0.9619395 -0.2695113 -0.04512452 
10.33 4.21563 18.4701 0.4732138 0.2989875 0.8286587 
10.9511 -1.65369 17.3898 0.6817371 -0.1213493 0.7214631 
8.3854 5.254 18.4056 -0.02267552 0.5601496 0.8280811 
9.14915 5.36672 18.1282 0.3207769 0.5483217 0.7722989 
9.41863 4.62038 18.247 -0.03885099 0.3387052 0.9400901 
9.6664 4.43469 18.4135 -0.230718 0.5140052 0.8261766 
10.9056 1.92516 18.3684 0.6541883 -0.2015944 0.7289701 
10.9236 1.65924 18.225 0.6164325 -0.5194741 0.5917411 
10.7174 2.47323 18.549 0.6339866 0.06146796 0.7708973 
8.90357 4.84084 18.3897 0.2632141 0.1247283 0.9566406 
10.4343 3.35961 18.5754 0.4728914 0.1450777 0.869095 
9.20397 4.74797 18.271 0.1405545 -0.2122694 0.9670503 
10.3685 1.20471 18.1835 0.5157031 -0.4714815 0.7153709 
10.5296 -0.638998 17.837 0.5819934 -0.06949273 0.8102188 
10.9394 -2.37181 17.2236 0.6616431 -0.2042083 0.7214759 
11.1868 -2.70952 16.8731 0.6525859 -0.7410542 0.1580201 
7.56655 4.94035 18.035 -0.7898812 0.1452691 0.5958058 
10.4264 0.809901 18.0081 0.5791816 -0.160855 0.7991711 
10.4921 -1.75638 17.74 0.5536081 -0.1619575 0.8168768 
8.05234 5.01257 18.3833 -0.4042656 0.1640013 0.8998182 
9.97579 3.88929 18.6923 0.04876659 0.2499368 0.9670333 
9.94625 1.10773 18.3683 0.3363446 -0.2954418 0.894196 
10.2043 -0.167411 18.0851 0.5049962 -0.08971478 0.8584464 
10.1209 2.11565 18.8867 0.2536973 -0.08635806 0.963421 
10.3049 1.55501 18.5514 0.3506625 -0.4912117 0.7973374 
9.73216 0.306528 18.3348 0.2295379 -0.1271699 0.964956 
10.7057 -2.91289 17.2354 0.5927716 -0.4817053 0.6454315 
9.67051 3.91406 18.5993 -0.330578 0.2176632 0.918336 
10.0118 2.99914 18.8256 0.06820793 0.1320001 0.9889002 
9.91322 1.37939 18.4842 0.06525948 -0.4572277 0.8869521 
10.4234 -2.46568 17.6043 0.5145783 -0.2730057 0.8128206 
7.45708 3.95728 18.0522 -0.7924067 -0.01503015 0.609808 
7.56589 4.50273 18.1008 -0.6376655 0.08690717 0.7653953 
7.804 4.53757 18.2611 -0.5248331 0.02826643 0.8507357 
9.26987 4.09564 18.3767 -0.01527874 0.1541274 0.9879329 
10.0311 -0.658569 18.0954 0.372169 -0.1261308 0.9195549 
9.95844 1.79194 18.8215 -0.01801025 -0.4410226 0.8973153 
8.52387 4.33859 18.4944 -0.04151773 0.02575581 0.9988058 
8.04355 4.58037 18.3977 -0.3834309 -0.02392296 0.9232597 
9.5573 3.34601 18.6277 -0.4250855 0.1231442 0.8967373 
9.56943 1.21241 18.4868 0.1406255 -0.2193531 0.9654577 
10.1179 -2.1561 17.8657 0.3174117 -0.2295255 0.9200913 
10.2574 -3.00951 17.4733 0.4301926 -0.4651021 0.7737018 
9.18483 3.39652 18.4646 -0.2033846 0.08399217 0.9754897 
7.84234 3.43492 18.1974 -0.4904532 -0.0879119 0.867022 
8.68103 3.64401 18.4783 -0.03176323 0.008784159 0.9994568 
9.52623 1.59928 18.5816 -0.2030117 -0.262255 0.9434026 
9.96409 -3.17292 17.6157 0.01451081 -0.997591 0.0678365 
8.06665 3.64727 18.3427 -0.3194938 -0.06680282 0.9452307 
9.78788 2.66713 18.8382 -0.3060308 0.08267687 0.9484249 
9.19415 0.990905 18.4675 0.02663214 -0.1173883 0.9927289 
9.59382 -0.624044 18.216 0.09942935 -0.1641919 0.9814045 
9.4557 2.60081 18.6581 -0.4650323 0.04154171 0.8843185 
9.69479 2.03905 18.8135 -0.3788007 -0.1206528 0.9175799 
9.26016 0.428348 18.4207 0.006089259 -0.1494279 0.9887539 
7.69198 2.81346 18.016 -0.5072169 -0.0458984 0.8605953 
9.66996 -2.1537 17.9452 0.09878378 -0.2122727 0.9722047 
9.47818 -2.86969 17.7706 -0.04664556 -0.457168 0.8881563 
9.26106 -1.75911 18.0389 -0.1444961 -0.1962658 0.9698457 
9.1544 2.24813 18.5275 -0.2867377 -0.01717934 0.9578551 
9.47315 1.94199 18.6518 -0.5077495 -0.1359504 0.8507103 
8.85389 -0.058226 18.2508 -0.2745231 -0.1919757 0.9422221 
8.22081 2.13823 18.2732 -0.5004364 -0.07850509 0.8622067 
7.83084 1.94437 17.9833 -0.6063478 -0.1361504 0.7834574 
8.81189 2.54101 18.4832 -0.1993191 0.007249973 0.9799079 
8.51164 1.61142 18.4756 -0.3027268 -0.06768749 0.9506708 
8.87492 0.819556 18.4526 -0.2242769 -0.1592581 0.9614244 
7.60034 1.82537 17.7784 -0.6244681 -0.1267659 0.7706945 
7.48743 2.98761 17.9564 -0.7058672 0.04472496 0.7069308 
8.49805 2.62341 18.3903 -0.2928398 -0.07194901 0.9534507 
8.065 1.641 18.1289 -0.6109571 -0.1201192 0.7824978 
8.56586 1.04863 18.3444 -0.5208991 -0.1789652 0.834647 
7.58273 0.743415 17.5048 -0.4835641 -0.1874889 0.8549934 
7.94911 1.4789 17.9737 -0.6460037 -0.1404839 0.7502957 
8.87454 -1.62422 17.9415 -0.433267 -0.1674051 0.8855819 
7.38749 0.580049 17.418 -0.6574508 -0.1477088 0.738878 
7.37972 1.33399 17.6132 -0.7755637 -0.02065645 0.6309313 
7.90617 0.52446 17.7952 -0.6661345 -0.1676209 0.7267517 
8.72605 -1.87793 17.8535 -0.1450294 0.001065094 0.9894268 
9.13892 -2.72657 17.8135 -0.4135958 -0.6068391 0.6787377 
8.26054 0.206926 18.0134 -0.552684 -0.1801372 0.8136898 
8.49471 -0.029379 18.0919 -0.4690562 -0.1948781 0.8613994 
8.58014 -1.95179 17.8695 -0.6845776 -0.4503335 0.5731957 
8.29095 -0.585938 17.8134 -0.6129316 -0.2095263 0.7618488 
7.79647 -0.344972 17.3802 -0.5714652 -0.1364552 0.8092018 
7.55466 -0.455294 17.2954 -0.2565498 0.1250738 0.9584043 
8.18059 -1.02686 17.6108 -0.4308839 0.02062836 0.9021716 
8.03092 -1.14065 17.6048 -0.5693001 -0.2407741 0.7860823 
7.31772 -0.574566 17.3899 -0.7076129 -0.17467 0.6846711 
3 1 30 94 0 0 255 255 
3 30 0 94 0 0 255 255 
3 299 2 311 0 0 255 255 
3 92 324 299 0 0 255 255 
3 350 363 341 0 0 255 255 
3 309 91 308 0 0 255 255 
3 345 350 2 0 0 255 255 
3 2 324 345 0 0 255 255 
3 279 323 280 0 0 255 255 
3 346 341 363 0 0 255 255 
3 323 92 280 0 0 255 255 
3 323 279 310 0 0 255 255 
3 259 90 286 0 0 255 255 
3 91 279 270 0 0 255 255 
3 299 324 2 0 0 255 255 
3 341 2 350 0 0 255 255 
3 308 91 286 0 0 255 255 
3 307 286 292 0 0 255 255 
3 286 90 292 0 0 255 255 
3 258 276 90 0 0 255 255 
3 310 279 91 0 0 255 255 
3 311 2 341 0 0 255 255 
3 355 377 356 0 0 255 255 
3 312 348 328 0 0 255 255 
3 348 356 338 0 0 255 255 
3 356 348 355 0 0 255 255 
3 19 14 11 0 0 255 255 
3 93 40 7 0 0 255 255 
3 4 44 70 0 0 255 255 
3 45 375 385 0 0 255 255 
3 5 11 71 0 0 255 255 
3 18 13 51 0 0 255 255 
3 13 19 11 0 0 255 255 
3 113 9 3 0 0 255 255 
3 72 71 14 0 0 255 255 
3 96 7 103 0 0 255 255 
3 78 29 25 0 0 255 255 
3 77 75 37 0 0 255 255 
3 3 6 126 0 0 255 255 
3 103 22 9 0 0 255 255 
3 34 70 69 0 0 255 255 
3 44 8 75 0 0 255 255 
3 71 42 5 0 0 255 255 
3 3 9 19 0 0 255 255 
3 18 12 15 0 0 255 255 
3 135 53 160 0 0 255 255 
3 9 14 19 0 0 255 255 
3 56 55 18 0 0 255 255 
3 6 3 19 0 0 255 255 
3 34 54 5 0 0 255 255 
3 50 403 57 0 0 255 255 
3 208 181 61 0 0 255 255 
3 65 267 256 0 0 255 255 
3 63 48 16 0 0 255 255 
3 416 50 52 0 0 255 255 
3 64 256 230 0 0 255 255 
3 54 12 51 0 0 255 255 
3 22 40 21 0 0 255 255 
3 54 51 5 0 0 255 255 
3 5 51 11 0 0 255 255 
3 50 57 52 0 0 255 255 
3 72 73 71 0 0 255 255 
3 81 26 80 0 0 255 255 
3 73 74 10 0 0 255 255 
3 30 1 102 0 0 255 255 
3 22 14 9 0 0 255 255 
3 30 33 76 0 0 255 255 
3 126 113 3 0 0 255 255 
3 82 81 83 0 0 255 255 
3 11 14 71 0 0 255 255 
3 75 27 38 0 0 255 255 
3 27 313 326 0 0 255 255 
3 80 30 102 0 0 255 255 
3 37 76 29 0 0 255 255 
3 33 26 79 0 0 255 255 
3 36 313 27 0 0 255 255 
3 86 144 147 0 0 255 255 
3 167 89 163 0 0 255 255 
3 26 81 82 0 0 255 255 
3 21 40 41 0 0 255 255 
3 102 35 80 0 0 255 255 
3 24 0 30 0 0 255 255 
3 236 87 28 0 0 255 255 
3 89 218 31 0 0 255 255 
3 86 147 87 0 0 255 255 
3 124 120 35 0 0 255 255 
3 4 34 39 0 0 255 255 
3 45 70 44 0 0 255 255 
3 76 74 24 0 0 255 255 
3 35 83 81 0 0 255 255 
3 25 79 318 0 0 255 255 
3 4 70 34 0 0 255 255 
3 77 78 36 0 0 255 255 
3 43 76 37 0 0 255 255 
3 29 76 33 0 0 255 255 
3 45 46 70 0 0 255 255 
3 39 10 43 0 0 255 255 
3 39 43 75 0 0 255 255 
3 75 43 37 0 0 255 255 
3 24 74 41 0 0 255 255 
3 40 22 7 0 0 255 255 
3 42 10 39 0 0 255 255 
3 42 73 10 0 0 255 255 
3 15 67 52 0 0 255 255 
3 68 54 34 0 0 255 255 
3 24 23 0 0 0 255 255 
3 98 40 93 0 0 255 255 
3 415 46 410 0 0 255 255 
3 38 44 75 0 0 255 255 
3 70 68 69 0 0 255 255 
3 44 4 8 0 0 255 255 
3 46 47 68 0 0 255 255 
3 20 52 67 0 0 255 255 
3 416 413 50 0 0 255 255 
3 15 12 67 0 0 255 255 
3 383 48 396 0 0 255 255 
3 344 64 359 0 0 255 255 
3 404 395 60 0 0 255 255 
3 62 61 60 0 0 255 255 
3 68 47 67 0 0 255 255 
3 138 55 53 0 0 255 255 
3 138 53 135 0 0 255 255 
3 21 72 14 0 0 255 255 
3 416 20 415 0 0 255 255 
3 404 60 403 0 0 255 255 
3 47 20 67 0 0 255 255 
3 58 59 160 0 0 255 255 
3 13 11 51 0 0 255 255 
3 73 41 74 0 0 255 255 
3 160 53 58 0 0 255 255 
3 12 18 51 0 0 255 255 
3 55 6 13 0 0 255 255 
3 53 56 58 0 0 255 255 
3 413 403 50 0 0 255 255 
3 38 326 343 0 0 255 255 
3 30 76 24 0 0 255 255 
3 20 47 415 0 0 255 255 
3 17 209 208 0 0 255 255 
3 58 57 59 0 0 255 255 
3 18 55 13 0 0 255 255 
3 53 55 56 0 0 255 255 
3 49 63 17 0 0 255 255 
3 56 57 58 0 0 255 255 
3 61 17 208 0 0 255 255 
3 48 383 359 0 0 255 255 
3 57 15 52 0 0 255 255 
3 396 62 395 0 0 255 255 
3 63 230 209 0 0 255 255 
3 63 49 48 0 0 255 255 
3 16 48 359 0 0 255 255 
3 315 66 344 0 0 255 255 
3 267 65 66 0 0 255 255 
3 64 65 256 0 0 255 255 
3 46 45 410 0 0 255 255 
3 8 39 75 0 0 255 255 
3 54 67 12 0 0 255 255 
3 57 403 60 0 0 255 255 
3 68 67 54 0 0 255 255 
3 327 25 318 0 0 255 255 
3 27 326 38 0 0 255 255 
3 407 45 385 0 0 255 255 
3 79 29 33 0 0 255 255 
3 13 6 19 0 0 255 255 
3 71 73 42 0 0 255 255 
3 21 14 22 0 0 255 255 
3 93 7 96 0 0 255 255 
3 407 410 45 0 0 255 255 
3 7 22 103 0 0 255 255 
3 415 47 46 0 0 255 255 
3 375 370 385 0 0 255 255 
3 36 27 77 0 0 255 255 
3 36 78 25 0 0 255 255 
3 36 327 313 0 0 255 255 
3 76 43 74 0 0 255 255 
3 0 23 98 0 0 255 255 
3 75 77 27 0 0 255 255 
3 272 271 85 0 0 255 255 
3 84 85 271 0 0 255 255 
3 98 23 40 0 0 255 255 
3 84 305 82 0 0 255 255 
3 416 52 20 0 0 255 255 
3 35 81 80 0 0 255 255 
3 271 305 84 0 0 255 255 
3 272 85 87 0 0 255 255 
3 37 78 77 0 0 255 255 
3 82 318 26 0 0 255 255 
3 87 147 88 0 0 255 255 
3 193 89 180 0 0 255 255 
3 28 218 236 0 0 255 255 
3 26 33 80 0 0 255 255 
3 137 83 120 0 0 255 255 
3 87 236 272 0 0 255 255 
3 218 28 31 0 0 255 255 
3 86 84 32 0 0 255 255 
3 89 193 194 0 0 255 255 
3 86 85 84 0 0 255 255 
3 120 83 35 0 0 255 255 
3 87 88 28 0 0 255 255 
3 5 42 34 0 0 255 255 
3 43 10 74 0 0 255 255 
3 61 59 60 0 0 255 255 
3 113 103 9 0 0 255 255 
3 18 15 56 0 0 255 255 
3 26 318 79 0 0 255 255 
3 138 126 6 0 0 255 255 
3 73 21 41 0 0 255 255 
3 72 21 73 0 0 255 255 
3 32 83 137 0 0 255 255 
3 33 30 80 0 0 255 255 
3 41 40 23 0 0 255 255 
3 39 34 42 0 0 255 255 
3 38 375 44 0 0 255 255 
3 89 194 218 0 0 255 255 
3 46 68 70 0 0 255 255 
3 327 36 25 0 0 255 255 
3 25 29 79 0 0 255 255 
3 32 144 86 0 0 255 255 
3 23 24 41 0 0 255 255 
3 158 88 147 0 0 255 255 
3 85 86 87 0 0 255 255 
3 37 29 78 0 0 255 255 
3 31 88 158 0 0 255 255 
3 8 4 39 0 0 255 255 
3 137 144 32 0 0 255 255 
3 167 180 89 0 0 255 255 
3 32 84 83 0 0 255 255 
3 60 59 57 0 0 255 255 
3 158 163 31 0 0 255 255 
3 55 138 6 0 0 255 255 
3 17 62 49 0 0 255 255 
3 395 62 60 0 0 255 255 
3 359 64 16 0 0 255 255 
3 59 181 160 0 0 255 255 
3 63 16 230 0 0 255 255 
3 65 64 344 0 0 255 255 
3 315 282 66 0 0 255 255 
3 282 267 66 0 0 255 255 
3 282 315 293 0 0 255 255 
3 221 230 256 0 0 255 255 
3 64 230 16 0 0 255 255 
3 163 89 31 0 0 255 255 
3 35 102 124 0 0 255 255 
3 56 15 57 0 0 255 255 
3 59 61 181 0 0 255 255 
3 82 83 84 0 0 255 255 
3 209 17 63 0 0 255 255 
3 28 88 31 0 0 255 255 
3 48 49 396 0 0 255 255 
3 179 193 180 0 0 255 255 
3 69 68 34 0 0 255 255 
3 344 66 65 0 0 255 255 
3 318 82 305 0 0 255 255 
3 282 268 267 0 0 255 255 
3 44 375 45 0 0 255 255 
3 343 375 38 0 0 255 255 
3 396 49 62 0 0 255 255 
3 62 17 61 0 0 255 255 
3 415 413 416 0 0 255 255 
3 414 413 415 0 0 255 255 
3 414 412 413 0 0 255 255 
3 415 406 414 0 0 255 255 
3 414 411 412 0 0 255 255 
3 410 406 415 0 0 255 255 
3 406 402 414 0 0 255 255 
3 411 405 412 0 0 255 255 
3 413 412 400 0 0 255 255 
3 402 411 414 0 0 255 255 
3 411 408 405 0 0 255 255 
3 409 408 411 0 0 255 255 
3 413 400 403 0 0 255 255 
3 405 400 412 0 0 255 255 
3 402 409 411 0 0 255 255 
3 409 402 389 0 0 255 255 
3 409 399 408 0 0 255 255 
3 408 398 405 0 0 255 255 
3 398 399 390 0 0 255 255 
3 401 405 398 0 0 255 255 
3 406 410 407 0 0 255 255 
3 386 402 406 0 0 255 255 
3 409 389 399 0 0 255 255 
3 399 398 408 0 0 255 255 
3 399 393 390 0 0 255 255 
3 393 392 390 0 0 255 255 
3 400 395 403 0 0 255 255 
3 391 405 401 0 0 255 255 
3 385 406 407 0 0 255 255 
3 406 385 386 0 0 255 255 
3 390 392 397 0 0 255 255 
3 391 400 405 0 0 255 255 
3 395 404 403 0 0 255 255 
3 386 389 402 0 0 255 255 
3 398 391 401 0 0 255 255 
3 391 395 400 0 0 255 255 
3 389 394 399 0 0 255 255 
3 399 394 393 0 0 255 255 
3 398 390 391 0 0 255 255 
3 392 393 387 0 0 255 255 
3 383 395 391 0 0 255 255 
3 387 388 380 0 0 255 255 
3 376 390 397 0 0 255 255 
3 385 384 386 0 0 255 255 
3 382 378 394 0 0 255 255 
3 378 393 394 0 0 255 255 
3 388 381 380 0 0 255 255 
3 387 371 392 0 0 255 255 
3 392 376 397 0 0 255 255 
3 383 396 395 0 0 255 255 
3 389 382 394 0 0 255 255 
3 393 378 374 0 0 255 255 
3 374 387 393 0 0 255 255 
3 392 371 373 0 0 255 255 
3 373 376 392 0 0 255 255 
3 390 383 391 0 0 255 255 
3 386 379 389 0 0 255 255 
3 378 368 374 0 0 255 255 
3 388 387 374 0 0 255 255 
3 376 372 390 0 0 255 255 
3 390 372 383 0 0 255 255 
3 385 369 384 0 0 255 255 
3 389 379 382 0 0 255 255 
3 374 381 388 0 0 255 255 
3 380 371 387 0 0 255 255 
3 365 376 373 0 0 255 255 
3 384 379 386 0 0 255 255 
3 381 377 380 0 0 255 255 
3 370 369 385 0 0 255 255 
3 369 379 384 0 0 255 255 
3 369 363 379 0 0 255 255 
3 382 353 378 0 0 255 255 
3 364 381 374 0 0 255 255 
3 377 381 351 0 0 255 255 
3 351 356 377 0 0 255 255 
3 380 367 371 0 0 255 255 
3 366 376 365 0 0 255 255 
3 372 359 383 0 0 255 255 
3 379 353 382 0 0 255 255 
3 364 351 381 0 0 255 255 
3 377 367 380 0 0 255 255 
3 373 362 365 0 0 255 255 
3 363 353 379 0 0 255 255 
3 353 368 378 0 0 255 255 
3 357 364 374 0 0 255 255 
3 355 367 377 0 0 255 255 
3 366 372 376 0 0 255 255 
3 372 361 359 0 0 255 255 
3 375 343 370 0 0 255 255 
3 369 370 358 0 0 255 255 
3 368 357 374 0 0 255 255 
3 373 371 362 0 0 255 255 
3 366 361 372 0 0 255 255 
3 343 354 370 0 0 255 255 
3 367 362 371 0 0 255 255 
3 366 347 361 0 0 255 255 
3 361 360 359 0 0 255 255 
3 354 358 370 0 0 255 255 
3 349 368 353 0 0 255 255 
3 365 362 337 0 0 255 255 
3 337 330 365 0 0 255 255 
3 369 358 346 0 0 255 255 
3 346 363 369 0 0 255 255 
3 349 357 368 0 0 255 255 
3 364 357 352 0 0 255 255 
3 355 362 367 0 0 255 255 
3 362 339 337 0 0 255 255 
3 330 347 365 0 0 255 255 
3 347 366 365 0 0 255 255 
3 352 351 364 0 0 255 255 
3 347 344 361 0 0 255 255 
3 350 353 363 0 0 255 255 
3 352 340 335 0 0 255 255 
3 351 352 334 0 0 255 255 
3 355 332 362 0 0 255 255 
3 332 339 362 0 0 255 255 
3 344 360 361 0 0 255 255 
3 359 360 344 0 0 255 255 
3 354 343 342 0 0 255 255 
3 358 354 346 0 0 255 255 
3 349 352 357 0 0 255 255 
3 335 334 352 0 0 255 255 
3 334 336 351 0 0 255 255 
3 356 351 338 0 0 255 255 
3 338 328 348 0 0 255 255 
3 348 333 355 0 0 255 255 
3 333 332 355 0 0 255 255 
3 342 346 354 0 0 255 255 
3 353 350 349 0 0 255 255 
3 352 349 340 0 0 255 255 
3 336 338 351 0 0 255 255 
3 347 314 344 0 0 255 255 
3 329 341 346 0 0 255 255 
3 350 345 349 0 0 255 255 
3 330 337 331 0 0 255 255 
3 345 340 349 0 0 255 255 
3 338 336 321 0 0 255 255 
3 348 312 333 0 0 255 255 
3 319 316 330 0 0 255 255 
3 330 314 347 0 0 255 255 
3 325 342 343 0 0 255 255 
3 346 342 329 0 0 255 255 
3 340 345 324 0 0 255 255 
3 324 322 340 0 0 255 255 
3 334 309 336 0 0 255 255 
3 331 319 330 0 0 255 255 
3 314 315 344 0 0 255 255 
3 343 326 325 0 0 255 255 
3 342 325 329 0 0 255 255 
3 311 341 329 0 0 255 255 
3 322 335 340 0 0 255 255 
3 328 303 312 0 0 255 255 
3 332 337 339 0 0 255 255 
3 331 337 306 0 0 255 255 
3 319 317 316 0 0 255 255 
3 335 310 334 0 0 255 255 
3 338 321 328 0 0 255 255 
3 301 332 333 0 0 255 255 
3 337 332 306 0 0 255 255 
3 319 331 320 0 0 255 255 
3 326 290 325 0 0 255 255 
3 309 308 336 0 0 255 255 
3 308 321 336 0 0 255 255 
3 320 331 298 0 0 255 255 
3 322 310 335 0 0 255 255 
3 310 309 334 0 0 255 255 
3 328 307 303 0 0 255 255 
3 312 301 333 0 0 255 255 
3 301 306 332 0 0 255 255 
3 306 298 331 0 0 255 255 
3 320 297 319 0 0 255 255 
3 330 316 314 0 0 255 255 
3 305 302 318 0 0 255 255 
3 318 300 327 0 0 255 255 
3 329 325 311 0 0 255 255 
3 323 310 322 0 0 255 255 
3 321 307 328 0 0 255 255 
3 298 283 320 0 0 255 255 
3 327 300 313 0 0 255 255 
3 326 313 304 0 0 255 255 
3 304 290 326 0 0 255 255 
3 290 311 325 0 0 255 255 
3 322 324 92 0 0 255 255 
3 92 323 322 0 0 255 255 
3 321 308 307 0 0 255 255 
3 283 289 320 0 0 255 255 
3 289 297 320 0 0 255 255 
3 297 317 319 0 0 255 255 
3 294 314 316 0 0 255 255 
3 318 302 300 0 0 255 255 
3 287 311 290 0 0 255 255 
3 317 297 295 0 0 255 255 
3 316 317 295 0 0 255 255 
3 295 294 316 0 0 255 255 
3 314 294 293 0 0 255 255 
3 293 315 314 0 0 255 255 
3 296 300 302 0 0 255 255 
3 300 304 313 0 0 255 255 
3 303 291 312 0 0 255 255 
3 312 291 301 0 0 255 255 
3 311 287 299 0 0 255 255 
3 309 310 91 0 0 255 255 
3 307 308 286 0 0 255 255 
3 307 292 303 0 0 255 255 
3 301 298 306 0 0 255 255 
3 271 302 305 0 0 255 255 
3 302 277 296 0 0 255 255 
3 300 290 304 0 0 255 255 
3 284 92 299 0 0 255 255 
3 303 292 291 0 0 255 255 
3 291 276 301 0 0 255 255 
3 275 288 297 0 0 255 255 
3 288 295 297 0 0 255 255 
3 294 278 293 0 0 255 255 
3 302 271 277 0 0 255 255 
3 260 300 296 0 0 255 255 
3 290 300 281 0 0 255 255 
3 276 298 301 0 0 255 255 
3 285 283 298 0 0 255 255 
3 296 250 260 0 0 255 255 
3 300 260 281 0 0 255 255 
3 287 284 299 0 0 255 255 
3 270 286 91 0 0 255 255 
3 276 285 298 0 0 255 255 
3 269 289 283 0 0 255 255 
3 289 275 297 0 0 255 255 
3 295 274 294 0 0 255 255 
3 296 277 250 0 0 255 255 
3 295 288 274 0 0 255 255 
3 274 278 294 0 0 255 255 
3 278 282 293 0 0 255 255 
3 90 291 292 0 0 255 255 
3 90 276 291 0 0 255 255 
3 276 264 285 0 0 255 255 
3 289 273 275 0 0 255 255 
3 281 287 290 0 0 255 255 
3 284 280 92 0 0 255 255 
3 280 265 279 0 0 255 255 
3 269 283 252 0 0 255 255 
3 269 263 289 0 0 255 255 
3 263 273 289 0 0 255 255 
3 262 275 273 0 0 255 255 
3 288 275 274 0 0 255 255 
3 281 255 287 0 0 255 255 
3 287 255 284 0 0 255 255 
3 284 266 280 0 0 255 255 
3 270 259 286 0 0 255 255 
3 264 283 285 0 0 255 255 
3 283 249 252 0 0 255 255 
3 247 268 278 0 0 255 255 
3 255 266 284 0 0 255 255 
3 266 254 280 0 0 255 255 
3 264 249 283 0 0 255 255 
3 269 240 263 0 0 255 255 
3 253 262 273 0 0 255 255 
3 278 257 247 0 0 255 255 
3 268 282 278 0 0 255 255 
3 260 255 281 0 0 255 255 
3 265 280 254 0 0 255 255 
3 265 270 279 0 0 255 255 
3 239 273 263 0 0 255 255 
3 248 275 262 0 0 255 255 
3 261 274 275 0 0 255 255 
3 274 257 278 0 0 255 255 
3 271 250 277 0 0 255 255 
3 266 245 254 0 0 255 255 
3 259 258 90 0 0 255 255 
3 258 264 276 0 0 255 255 
3 248 261 275 0 0 255 255 
3 261 257 274 0 0 255 255 
3 272 246 271 0 0 255 255 
3 252 251 269 0 0 255 255 
3 239 253 273 0 0 255 255 
3 237 262 253 0 0 255 255 
3 257 242 247 0 0 255 255 
3 236 246 272 0 0 255 255 
3 246 250 271 0 0 255 255 
3 265 234 270 0 0 255 255 
3 234 259 270 0 0 255 255 
3 244 249 264 0 0 255 255 
3 251 240 269 0 0 255 255 
3 239 238 253 0 0 255 255 
3 257 261 243 0 0 255 255 
3 268 247 256 0 0 255 255 
3 268 256 267 0 0 255 255 
3 255 245 266 0 0 255 255 
3 254 234 265 0 0 255 255 
3 234 241 259 0 0 255 255 
3 244 264 258 0 0 255 255 
3 229 263 240 0 0 255 255 
3 263 229 215 0 0 255 255 
3 215 239 263 0 0 255 255 
3 225 237 253 0 0 255 255 
3 237 248 262 0 0 255 255 
3 248 243 261 0 0 255 255 
3 231 221 256 0 0 255 255 
3 250 235 260 0 0 255 255 
3 235 255 260 0 0 255 255 
3 241 244 259 0 0 255 255 
3 259 244 258 0 0 255 255 
3 253 232 225 0 0 255 255 
3 257 243 242 0 0 255 255 
3 247 231 256 0 0 255 255 
3 235 245 255 0 0 255 255 
3 245 224 254 0 0 255 255 
3 224 234 254 0 0 255 255 
3 252 227 251 0 0 255 255 
3 226 238 239 0 0 255 255 
3 238 232 253 0 0 255 255 
3 242 212 247 0 0 255 255 
3 249 227 252 0 0 255 255 
3 251 227 240 0 0 255 255 
3 213 248 237 0 0 255 255 
3 231 222 221 0 0 255 255 
3 246 235 250 0 0 255 255 
3 241 233 244 0 0 255 255 
3 244 227 249 0 0 255 255 
3 213 243 248 0 0 255 255 
3 243 219 242 0 0 255 255 
3 212 231 247 0 0 255 255 
3 246 217 235 0 0 255 255 
3 215 220 239 0 0 255 255 
3 246 236 217 0 0 255 255 
3 235 224 245 0 0 255 255 
3 228 233 241 0 0 255 255 
3 244 233 211 0 0 255 255 
3 211 227 244 0 0 255 255 
3 240 198 229 0 0 255 255 
3 243 213 219 0 0 255 255 
3 219 223 242 0 0 255 255 
3 223 212 242 0 0 255 255 
3 241 234 228 0 0 255 255 
3 227 198 240 0 0 255 255 
3 220 226 239 0 0 255 255 
3 226 232 238 0 0 255 255 
3 225 213 237 0 0 255 255 
3 236 218 217 0 0 255 255 
3 217 224 235 0 0 255 255 
3 224 228 234 0 0 255 255 
3 228 211 233 0 0 255 255 
3 210 220 215 0 0 255 255 
3 226 214 232 0 0 255 255 
3 214 225 232 0 0 255 255 
3 231 212 222 0 0 255 255 
3 230 221 209 0 0 255 255 
3 224 217 207 0 0 255 255 
3 216 228 224 0 0 255 255 
3 211 204 227 0 0 255 255 
3 198 215 229 0 0 255 255 
3 225 214 201 0 0 255 255 
3 205 213 225 0 0 255 255 
3 200 223 219 0 0 255 255 
3 216 211 228 0 0 255 255 
3 204 198 227 0 0 255 255 
3 220 202 226 0 0 255 255 
3 202 214 226 0 0 255 255 
3 201 205 225 0 0 255 255 
3 223 203 212 0 0 255 255 
3 222 196 221 0 0 255 255 
3 207 216 224 0 0 255 255 
3 195 201 214 0 0 255 255 
3 223 200 203 0 0 255 255 
3 212 196 222 0 0 255 255 
3 196 209 221 0 0 255 255 
3 216 207 206 0 0 255 255 
3 191 210 178 0 0 255 255 
3 220 210 191 0 0 255 255 
3 220 191 202 0 0 255 255 
3 213 200 219 0 0 255 255 
3 199 208 209 0 0 255 255 
3 218 194 217 0 0 255 255 
3 194 207 217 0 0 255 255 
3 206 211 216 0 0 255 255 
3 215 198 192 0 0 255 255 
3 215 192 210 0 0 255 255 
3 202 195 214 0 0 255 255 
3 205 200 213 0 0 255 255 
3 212 203 196 0 0 255 255 
3 206 204 211 0 0 255 255 
3 210 192 178 0 0 255 255 
3 197 205 201 0 0 255 255 
3 190 200 205 0 0 255 255 
3 196 199 209 0 0 255 255 
3 208 199 181 0 0 255 255 
3 194 206 207 0 0 255 255 
3 194 204 206 0 0 255 255 
3 191 182 202 0 0 255 255 
3 201 195 184 0 0 255 255 
3 197 190 205 0 0 255 255 
3 204 194 179 0 0 255 255 
3 204 179 198 0 0 255 255 
3 190 188 200 0 0 255 255 
3 200 185 203 0 0 255 255 
3 196 203 185 0 0 255 255 
3 185 189 196 0 0 255 255 
3 199 174 181 0 0 255 255 
3 182 176 202 0 0 255 255 
3 202 176 195 0 0 255 255 
3 201 184 186 0 0 255 255 
3 197 201 186 0 0 255 255 
3 188 185 200 0 0 255 255 
3 174 199 196 0 0 255 255 
3 179 192 198 0 0 255 255 
3 178 187 191 0 0 255 255 
3 186 190 197 0 0 255 255 
3 190 173 188 0 0 255 255 
3 189 174 196 0 0 255 255 
3 174 183 181 0 0 255 255 
3 179 167 192 0 0 255 255 
3 187 178 177 0 0 255 255 
3 195 176 184 0 0 255 255 
3 188 161 185 0 0 255 255 
3 179 194 193 0 0 255 255 
3 167 178 192 0 0 255 255 
3 187 182 191 0 0 255 255 
3 186 173 190 0 0 255 255 
3 173 172 188 0 0 255 255 
3 185 175 189 0 0 255 255 
3 174 189 175 0 0 255 255 
3 182 159 176 0 0 255 255 
3 188 172 161 0 0 255 255 
3 185 170 175 0 0 255 255 
3 177 178 162 0 0 255 255 
3 187 177 182 0 0 255 255 
3 171 184 176 0 0 255 255 
3 184 173 186 0 0 255 255 
3 161 170 185 0 0 255 255 
3 175 168 174 0 0 255 255 
3 183 169 181 0 0 255 255 
3 162 166 177 0 0 255 255 
3 171 173 184 0 0 255 255 
3 183 174 169 0 0 255 255 
3 169 164 181 0 0 255 255 
3 166 162 158 0 0 255 255 
3 182 177 159 0 0 255 255 
3 173 165 172 0 0 255 255 
3 164 160 181 0 0 255 255 
3 180 167 179 0 0 255 255 
3 167 162 178 0 0 255 255 
3 166 157 177 0 0 255 255 
3 177 157 159 0 0 255 255 
3 159 171 176 0 0 255 255 
3 156 173 171 0 0 255 255 
3 175 170 155 0 0 255 255 
3 155 168 175 0 0 255 255 
3 168 169 174 0 0 255 255 
3 145 164 169 0 0 255 255 
3 156 165 173 0 0 255 255 
3 172 165 146 0 0 255 255 
3 172 146 161 0 0 255 255 
3 161 142 170 0 0 255 255 
3 155 150 168 0 0 255 255 
3 153 169 168 0 0 255 255 
3 159 156 171 0 0 255 255 
3 142 155 170 0 0 255 255 
3 169 153 145 0 0 255 255 
3 166 154 157 0 0 255 255 
3 157 149 159 0 0 255 255 
3 156 148 165 0 0 255 255 
3 150 153 168 0 0 255 255 
3 163 162 167 0 0 255 255 
3 154 166 158 0 0 255 255 
3 148 146 165 0 0 255 255 
3 142 161 151 0 0 255 255 
3 153 152 145 0 0 255 255 
3 145 160 164 0 0 255 255 
3 163 158 162 0 0 255 255 
3 146 151 161 0 0 255 255 
3 145 135 160 0 0 255 255 
3 154 136 157 0 0 255 255 
3 156 159 149 0 0 255 255 
3 139 152 153 0 0 255 255 
3 152 131 145 0 0 255 255 
3 158 147 154 0 0 255 255 
3 136 149 157 0 0 255 255 
3 149 143 156 0 0 255 255 
3 148 156 143 0 0 255 255 
3 155 142 150 0 0 255 255 
3 153 150 140 0 0 255 255 
3 154 147 136 0 0 255 255 
3 151 146 141 0 0 255 255 
3 140 139 153 0 0 255 255 
3 149 129 143 0 0 255 255 
3 152 139 131 0 0 255 255 
3 136 147 130 0 0 255 255 
3 146 148 134 0 0 255 255 
3 151 141 133 0 0 255 255 
3 133 142 151 0 0 255 255 
3 142 132 150 0 0 255 255 
3 132 140 150 0 0 255 255 
3 136 129 149 0 0 255 255 
3 143 134 148 0 0 255 255 
3 144 130 147 0 0 255 255 
3 134 141 146 0 0 255 255 
3 131 135 145 0 0 255 255 
3 144 137 130 0 0 255 255 
3 129 134 143 0 0 255 255 
3 133 132 142 0 0 255 255 
3 127 128 141 0 0 255 255 
3 133 141 128 0 0 255 255 
3 140 132 125 0 0 255 255 
3 125 118 139 0 0 255 255 
3 136 123 129 0 0 255 255 
3 134 127 141 0 0 255 255 
3 132 133 119 0 0 255 255 
3 140 125 139 0 0 255 255 
3 118 121 139 0 0 255 255 
3 121 131 139 0 0 255 255 
3 126 138 135 0 0 255 255 
3 130 137 120 0 0 255 255 
3 130 123 136 0 0 255 255 
3 131 126 135 0 0 255 255 
3 134 129 127 0 0 255 255 
3 128 119 133 0 0 255 255 
3 122 128 127 0 0 255 255 
3 132 119 114 0 0 255 255 
3 114 125 132 0 0 255 255 
3 121 126 131 0 0 255 255 
3 120 123 130 0 0 255 255 
3 129 123 115 0 0 255 255 
3 115 117 129 0 0 255 255 
3 117 127 129 0 0 255 255 
3 122 119 128 0 0 255 255 
3 117 122 127 0 0 255 255 
3 118 125 116 0 0 255 255 
3 126 121 113 0 0 255 255 
3 115 123 112 0 0 255 255 
3 117 111 122 0 0 255 255 
3 107 119 122 0 0 255 255 
3 119 109 114 0 0 255 255 
3 114 116 125 0 0 255 255 
3 120 124 102 0 0 255 255 
3 120 112 123 0 0 255 255 
3 111 107 122 0 0 255 255 
3 118 116 106 0 0 255 255 
3 113 121 118 0 0 255 255 
3 120 102 112 0 0 255 255 
3 107 109 119 0 0 255 255 
3 106 113 118 0 0 255 255 
3 105 117 115 0 0 255 255 
3 117 108 111 0 0 255 255 
3 110 115 112 0 0 255 255 
3 105 108 117 0 0 255 255 
3 116 114 106 0 0 255 255 
3 110 105 115 0 0 255 255 
3 104 107 111 0 0 255 255 
3 109 100 114 0 0 255 255 
3 100 106 114 0 0 255 255 
3 106 103 113 0 0 255 255 
3 102 110 112 0 0 255 255 
3 111 108 97 0 0 255 255 
3 104 111 97 0 0 255 255 
3 102 94 110 0 0 255 255 
3 94 105 110 0 0 255 255 
3 94 0 105 0 0 255 255 
3 109 107 101 0 0 255 255 
3 101 95 109 0 0 255 255 
3 95 100 109 0 0 255 255 
3 108 105 99 0 0 255 255 
3 99 97 108 0 0 255 255 
3 107 104 101 0 0 255 255 
3 100 103 106 0 0 255 255 
3 105 0 99 0 0 255 255 
3 97 99 98 0 0 255 255 
3 97 101 104 0 0 255 255 
3 103 100 96 0 0 255 255 
3 1 94 102 0 0 255 255 
3 97 93 101 0 0 255 255 
3 95 101 93 0 0 255 255 
3 95 96 100 0 0 255 255 
3 99 0 98 0 0 255 255 
3 98 93 97 0 0 255 255 
3 93 96 95 0 0 255 255 
